<?xml version="1.0" standalone="no"?>
<!DOCTYPE svg PUBLIC "-//W3C//DTD SVG 20010904//EN"
 "http://www.w3.org/TR/2001/REC-SVG-20010904/DTD/svg10.dtd">
<svg version="1.0" xmlns="http://www.w3.org/2000/svg"
 width="640.000000pt" height="640.000000pt" viewBox="0 0 640.000000 640.000000"
 preserveAspectRatio="xMidYMid meet">

<g transform="translate(0.000000,640.000000) scale(0.100000,-0.100000)"
fill="#000000" stroke="none">
<path d="M2977 4785 c-705 -97 -1268 -664 -1363 -1375 -116 -873 502 -1681
1374 -1795 501 -66 983 98 1342 455 356 355 521 842 455 1342 -36 270 -136
517 -305 750 -58 80 -238 260 -318 318 -353 256 -765 362 -1185 305z m499
-166 c462 -89 849 -397 1046 -834 145 -321 163 -713 49 -1045 -37 -107 -63
-167 -114 -255 -41 -72 -128 -197 -134 -192 -1 2 -14 43 -28 93 -66 225 -214
439 -405 583 -80 60 -229 141 -296 161 -37 11 -45 10 -90 -13 -98 -49 -159
-61 -304 -61 -145 0 -206 12 -304 61 -45 23 -53 24 -90 13 -67 -20 -216 -101
-296 -161 -191 -144 -339 -358 -405 -583 -14 -50 -27 -91 -28 -93 -12 -11
-149 206 -194 306 -150 334 -170 734 -52 1069 191 539 652 906 1224 973 103
11 301 2 421 -22z"/>
<path d="M3045 4321 c-153 -45 -283 -150 -350 -286 -117 -235 -78 -486 104
-665 151 -149 342 -202 545 -150 104 26 176 69 262 154 141 141 196 340 148
535 -49 198 -213 364 -410 415 -81 21 -222 20 -299 -3z"/>
</g>
</svg>
