<svg width="44" height="19" viewBox="0 0 44 19" fill="none" xmlns="http://www.w3.org/2000/svg">
<path d="M8.21851 1.26953H6.59351C2.53101 1.26953 0.906006 2.9362 0.906006 7.10286V12.1029C0.906006 16.2695 2.53101 17.9362 6.59351 17.9362H11.4685C15.531 17.9362 17.156 16.2695 17.156 12.1029V10.4362" stroke="#5A55D2" stroke-linecap="round" stroke-linejoin="round"/>
<path d="M12.3135 2.11942L5.91103 8.68608C5.66728 8.93608 5.42353 9.42775 5.37478 9.78608L5.0254 12.2944C4.8954 13.2027 5.52103 13.8361 6.40665 13.7111L8.85228 13.3527C9.19353 13.3027 9.6729 13.0527 9.92478 12.8027L16.3273 6.23608C17.4323 5.10275 17.9523 3.78608 16.3273 2.11942C14.7023 0.45275 13.4185 0.986083 12.3135 2.11942Z" stroke="#5A55D2" stroke-miterlimit="10" stroke-linecap="round" stroke-linejoin="round"/>
<path d="M11.3954 3.06104C11.9398 5.0527 13.4591 6.61104 15.4091 7.1777" stroke="#5A55D2" stroke-miterlimit="10" stroke-linecap="round" stroke-linejoin="round"/>
<path d="M35.5387 1.06006C36.2134 1.06001 36.8625 1.32477 37.353 1.8C37.8434 2.27524 38.1379 2.92494 38.1761 3.61582L38.1801 3.76919H42.447C42.6015 3.76924 42.7501 3.82942 42.863 3.93755C42.9758 4.04569 43.0444 4.19374 43.055 4.35177C43.0655 4.5098 43.0171 4.66604 42.9197 4.78891C42.8222 4.91179 42.6829 4.99214 42.5299 5.01373L42.447 5.01956H41.8001L40.7598 15.8728C40.7077 16.4139 40.4697 16.9183 40.0884 17.2961C39.7072 17.6739 39.2074 17.9003 38.6783 17.9351L38.5353 17.9401H32.5422C32.0118 17.94 31.4987 17.7466 31.0947 17.3943C30.6906 17.042 30.4218 16.5538 30.3364 16.017L30.3177 15.8719L29.2766 5.01956H28.6304C28.4831 5.01956 28.3408 4.96485 28.2298 4.86555C28.1188 4.76625 28.0466 4.62908 28.0266 4.4794L28.0209 4.39438C28.0209 4.2433 28.0742 4.09734 28.171 3.98348C28.2679 3.86962 28.4016 3.79558 28.5475 3.77503L28.6304 3.76919H32.8973C32.8973 3.05069 33.1756 2.36161 33.671 1.85355C34.1663 1.34548 34.8382 1.06006 35.5387 1.06006ZM40.5753 5.01956H30.5014L31.5311 15.7494C31.5539 15.9888 31.6568 16.2128 31.8222 16.3832C31.9877 16.5537 32.2056 16.6602 32.4389 16.6847L32.5422 16.6897H38.5353C39.0229 16.6897 39.4366 16.3354 39.5309 15.8544L39.5472 15.7494L40.5745 5.01956H40.5753ZM36.961 7.31191C37.1083 7.31192 37.2506 7.36663 37.3616 7.46593C37.4727 7.56523 37.5449 7.7024 37.5649 7.85207L37.5706 7.9371V13.7722C37.5705 13.9306 37.5119 14.083 37.4064 14.1988C37.301 14.3145 37.1566 14.3849 37.0026 14.3957C36.8485 14.4065 36.6962 14.3569 36.5764 14.2569C36.4565 14.157 36.3782 14.0141 36.3572 13.8572L36.3515 13.7722V7.9371C36.3515 7.77129 36.4157 7.61227 36.53 7.49502C36.6443 7.37778 36.7994 7.31191 36.961 7.31191ZM34.1164 7.31191C34.2637 7.31192 34.406 7.36663 34.5171 7.46593C34.6281 7.56523 34.7003 7.7024 34.7203 7.85207L34.726 7.9371V13.7722C34.7259 13.9306 34.6673 14.083 34.5618 14.1988C34.4564 14.3145 34.3121 14.3849 34.158 14.3957C34.0039 14.4065 33.8516 14.3569 33.7318 14.2569C33.612 14.157 33.5336 14.0141 33.5126 13.8572L33.5069 13.7722V7.9371C33.5069 7.77129 33.5711 7.61227 33.6854 7.49502C33.7997 7.37778 33.9548 7.31191 34.1164 7.31191ZM35.5387 2.31043C35.1818 2.31044 34.8379 2.44811 34.5753 2.69611C34.3127 2.94411 34.1507 3.2843 34.1213 3.64916L34.1164 3.76919H36.961C36.961 3.38231 36.8112 3.01126 36.5444 2.73769C36.2777 2.46412 35.9159 2.31043 35.5387 2.31043Z" fill="#5A55D2"/>
</svg>
