<svg width="15" height="15" viewBox="0 0 15 15" fill="none" xmlns="http://www.w3.org/2000/svg">
<path d="M8.53116 7.5C8.53116 7.30109 8.45412 7.11032 8.31699 6.96967C8.17985 6.82902 7.99385 6.75 7.79991 6.75C7.60597 6.75 7.41998 6.82902 7.28284 6.96967C7.14571 7.11032 7.06866 7.30109 7.06866 7.5C7.06866 7.69891 7.14571 7.88968 7.28284 8.03033C7.41998 8.17098 7.60597 8.25 7.79991 8.25C7.99385 8.25 8.17985 8.17098 8.31699 8.03033C8.45412 7.88968 8.53116 7.69891 8.53116 7.5ZM5.48429 7.5C5.48429 7.30109 5.40725 7.11032 5.27011 6.96967C5.13297 6.82902 4.94698 6.75 4.75304 6.75C4.5591 6.75 4.3731 6.82902 4.23597 6.96967C4.09883 7.11032 4.02179 7.30109 4.02179 7.5C4.02179 7.69891 4.09883 7.88968 4.23597 8.03033C4.3731 8.17098 4.5591 8.25 4.75304 8.25C4.94698 8.25 5.13297 8.17098 5.27011 8.03033C5.40725 7.88968 5.48429 7.69891 5.48429 7.5ZM11.578 7.5C11.578 7.30109 11.501 7.11032 11.3639 6.96967C11.2267 6.82902 11.0407 6.75 10.8468 6.75C10.6528 6.75 10.4669 6.82902 10.3297 6.96967C10.1926 7.11032 10.1155 7.30109 10.1155 7.5C10.1155 7.69891 10.1926 7.88968 10.3297 8.03033C10.4669 8.17098 10.6528 8.25 10.8468 8.25C11.0407 8.25 11.2267 8.17098 11.3639 8.03033C11.501 7.88968 11.578 7.69891 11.578 7.5ZM1.50507 10.2125C1.84937 11.0516 2.34296 11.8047 2.97214 12.4516C3.59692 13.0947 4.33861 13.6059 5.15523 13.9562C5.99312 14.3172 6.8828 14.5 7.79991 14.5H7.83038C8.75359 14.4953 9.64784 14.3078 10.4888 13.9391C11.2984 13.5851 12.0331 13.073 12.6521 12.4313C13.2751 11.7859 13.7642 11.0359 14.1024 10.2C14.4528 9.33437 14.6295 8.41406 14.6249 7.46719C14.6197 6.38208 14.3694 5.31296 13.8937 4.34375V1.96875C13.8937 1.77813 13.8198 1.59531 13.6884 1.46052C13.557 1.32573 13.3787 1.25 13.1929 1.25H10.8757C9.93075 0.762018 8.88836 0.505302 7.83038 0.5H7.79839C6.88585 0.5 6.00073 0.68125 5.16741 1.03594C4.35492 1.38211 3.616 1.88736 2.99195 2.52344C2.36277 3.1625 1.86765 3.90938 1.52183 4.74219C1.1623 5.60469 0.979484 6.52187 0.974914 7.46875C0.970343 8.42031 1.15011 9.34375 1.50507 10.2125ZM3.80698 3.36875C4.87491 2.28437 6.29171 1.6875 7.79991 1.6875H7.82581C8.74444 1.69219 9.65698 1.92656 10.4629 2.36719L10.5909 2.4375H12.7359V4.6375L12.8044 4.76875C13.234 5.59531 13.4625 6.53125 13.4671 7.47344C13.4732 9.03125 12.8928 10.4938 11.8279 11.5953C10.7645 12.6969 9.34316 13.3062 7.82429 13.3125H7.79839C7.03667 13.3125 6.2978 13.1609 5.60159 12.8609C4.92214 12.5688 4.31277 12.1484 3.7887 11.6109C3.26616 11.075 2.85484 10.4484 2.56995 9.75156C2.27441 9.02969 2.12663 8.26406 2.12968 7.47344C2.13882 5.91719 2.73448 4.45937 3.80698 3.36875Z" fill="#192A3E"/>
</svg>
