<svg width="289" height="329" viewBox="0 0 289 329" fill="none" xmlns="http://www.w3.org/2000/svg">
<path opacity="0.43" d="M232.65 328.182C263.772 328.182 289.001 325.522 289.001 322.241C289.001 318.96 263.772 316.3 232.65 316.3C201.528 316.3 176.299 318.96 176.299 322.241C176.299 325.522 201.528 328.182 232.65 328.182Z" fill="#C1CACD"/>
<path opacity="0.43" d="M57.3375 295.01C88.4594 295.01 113.689 292.35 113.689 289.069C113.689 285.788 88.4594 283.128 57.3375 283.128C26.2156 283.128 0.986328 285.788 0.986328 289.069C0.986328 292.35 26.2156 295.01 57.3375 295.01Z" fill="#C1CACD"/>
<g style="mix-blend-mode:multiply" opacity="0.34">
<path d="M162.901 277.372C162.901 277.372 143.423 266.721 146.971 254.943C149.11 247.838 159.681 250.991 160.441 258.089C161.2 265.188 165.714 278.911 165.714 278.911L162.901 277.372Z" fill="#CDD6D9"/>
</g>
<g style="mix-blend-mode:multiply" opacity="0.34">
<path d="M171.857 285.88C171.857 285.88 191.068 279.243 189.628 268.026C188.759 261.254 178.692 262.485 176.967 268.802C175.241 275.118 169.068 286.822 169.068 286.822L171.857 285.88Z" fill="#CDD6D9"/>
</g>
<g style="mix-blend-mode:multiply" opacity="0.34">
<path d="M170.509 255.43C170.509 255.43 190.801 255.079 192.818 243.972C194.033 237.274 182.283 235.421 178.705 240.894C175.126 246.367 167.574 255.491 167.574 255.491L170.509 255.43Z" fill="#CDD6D9"/>
</g>
<g style="mix-blend-mode:multiply" opacity="0.34">
<path d="M210.812 182.295C210.605 182.794 232.435 188.039 236.852 180.325C241.269 172.611 233.419 163.438 219.719 172.402C219.719 172.402 212.999 177.05 210.812 182.295Z" fill="#CDD6D9"/>
</g>
<g style="mix-blend-mode:multiply" opacity="0.34">
<path d="M188.127 201.953C188.127 201.953 200.94 209.403 210.929 202.569C220.917 195.735 205.546 184.481 189.913 199.774L188.127 201.953Z" fill="#CDD6D9"/>
</g>
<g style="mix-blend-mode:multiply" opacity="0.34">
<path d="M174.543 227.423C174.543 227.423 187.356 234.866 197.351 228.039C207.345 221.211 191.968 209.957 176.329 225.244L174.543 227.423Z" fill="#CDD6D9"/>
</g>
<g style="mix-blend-mode:multiply" opacity="0.34">
<path d="M180.46 211.989C180.46 211.989 169.141 202.372 172.003 190.514C174.864 178.657 190.612 189.394 181.851 209.538L180.46 211.989Z" fill="#CDD6D9"/>
</g>
<g style="mix-blend-mode:multiply" opacity="0.34">
<path d="M202.21 186.352C202.21 186.352 191.274 166.479 199.604 157.644C207.709 149.025 218.967 168.24 204.3 184.487L202.21 186.352Z" fill="#CDD6D9"/>
</g>
<g style="mix-blend-mode:multiply" opacity="0.34">
<path d="M164.158 242.236C164.158 242.236 148.635 229.412 152.888 218.97C155.452 212.672 165.702 215.159 165.793 221.71C165.884 228.261 168.223 246.207 168.223 246.207L164.158 242.236Z" fill="#CDD6D9"/>
</g>
<g opacity="0.9">
<g style="mix-blend-mode:multiply" opacity="0.34">
<path d="M135.571 233.968C135.571 233.968 154.369 216.643 147.206 204.508C142.88 197.188 131.963 203.665 133.05 211.792C134.138 219.918 132.85 236.473 132.85 236.473L135.571 233.968Z" fill="#CDD6D9"/>
</g>
<g style="mix-blend-mode:multiply">
<path d="M122.698 194.011C122.698 194.011 138.379 176.533 130.797 166.085C126.222 159.787 116.823 166.664 118.493 173.984C120.164 181.304 120.432 196.535 120.432 196.535L122.698 194.011Z" fill="#D3E6EA"/>
</g>
<g style="mix-blend-mode:multiply" opacity="0.34">
<path d="M127.91 245.967C127.91 245.967 104.683 243.947 103.237 231.062C102.362 223.292 113.881 221.827 117.557 228.384C121.233 234.94 131.263 246.238 131.263 246.238L127.91 245.967Z" fill="#CDD6D9"/>
</g>
<g style="mix-blend-mode:multiply" opacity="0.34">
<path d="M121.112 211.65C121.112 211.65 98.3954 216.945 93.1218 205.13C89.9382 198.007 102.527 192.651 108.007 197.742C113.487 202.834 124.411 210.893 124.411 210.893L121.112 211.65Z" fill="#CDD6D9"/>
</g>
<g style="mix-blend-mode:multiply" opacity="0.34">
<path d="M56.2365 141.44C56.601 141.933 37.2077 154.369 30.1843 146.981C23.161 139.593 32.5478 128.868 43.6296 132.913C43.6296 132.925 52.3603 136.201 56.2365 141.44Z" fill="#CDD6D9"/>
</g>
<g style="mix-blend-mode:multiply" opacity="0.34">
<path d="M86.9247 157.01C86.9247 157.01 74.6763 168.898 61.6806 164.102C48.6849 159.306 62.7438 142.437 84.3426 155.101L86.9247 157.01Z" fill="#CDD6D9"/>
</g>
<g style="mix-blend-mode:multiply" opacity="0.34">
<path d="M108.966 181.569C108.966 181.569 96.7173 193.457 83.7216 188.655C70.7259 183.853 84.7848 166.996 106.384 179.66L108.966 181.569Z" fill="#CDD6D9"/>
</g>
<g style="mix-blend-mode:multiply" opacity="0.34">
<path d="M98.1586 166.023C98.1586 166.023 108.153 152.14 101.731 139.722C95.3092 127.304 80.6852 143.687 95.9471 163.684L98.1586 166.023Z" fill="#CDD6D9"/>
</g>
<g style="mix-blend-mode:multiply" opacity="0.34">
<path d="M66.9239 143.552C66.9239 143.552 72.0092 127.157 62.0027 117.478C51.9962 107.8 43.3142 128.074 64.0927 142.05L66.9239 143.552Z" fill="#CDD6D9"/>
</g>
</g>
<path d="M210.65 107.874C210.778 107.702 215.267 107.874 215.267 107.874C215.267 107.874 210.085 113.206 208.05 114.973C203.627 118.821 200.212 116.352 200.212 116.352C200.212 116.352 195.297 113.668 191.548 107.265C189.221 103.294 187.544 102.703 187.544 102.703C187.544 102.703 185.169 104.082 183.723 102.789C182.277 101.496 182.362 99.8337 182.806 99.3596C183.249 98.8856 186.961 100.369 186.913 98.5223C186.864 96.6753 186.56 95.1731 187.344 95.6841C188.128 96.1951 188.128 99.7536 188.128 99.7536C188.128 99.7536 199.793 109.235 200.194 109.5C204.653 112.399 210.65 107.874 210.65 107.874Z" fill="#EED0D0" stroke="#002A4E" stroke-width="1.49" stroke-linecap="round" stroke-linejoin="round"/>
<path d="M127.918 158.051C112.593 158.051 97.6128 153.446 84.8709 144.818C72.1291 136.191 62.198 123.929 56.3336 109.582C50.4691 95.235 48.9347 79.4483 51.9244 64.2178C54.914 48.9874 62.2935 34.9973 73.1296 24.0167C83.9656 13.0362 97.7716 5.55835 112.802 2.52882C127.832 -0.500702 143.411 1.05416 157.569 6.99679C171.727 12.9394 183.828 23.0029 192.342 35.9147C200.856 48.8264 205.4 64.0065 205.4 79.5354C205.377 100.352 197.207 120.309 182.681 135.029C168.155 149.748 148.46 158.028 127.918 158.051V158.051ZM127.918 1.39573C112.666 1.39573 97.7577 5.97854 85.0768 14.5646C72.3959 23.1507 62.5123 35.3545 56.676 49.6326C50.8396 63.9108 49.3125 79.622 52.2879 94.7796C55.2632 109.937 62.6074 123.86 73.3916 134.788C84.1759 145.716 97.9158 153.159 112.874 156.174C127.832 159.189 143.337 157.641 157.427 151.727C171.517 145.813 183.56 135.797 192.034 122.947C200.507 110.097 205.029 94.9899 205.029 79.5354C205.007 58.8184 196.875 38.9566 182.419 24.3075C167.963 9.65842 148.362 1.41855 127.918 1.39573V1.39573Z" fill="#EED0D0" stroke="#002A4E" stroke-width="1.49" stroke-linecap="round" stroke-linejoin="round"/>
<path opacity="0.54" d="M203.462 84.0174C203.458 70.2357 199.787 56.7101 192.834 44.8657C185.88 33.0213 175.903 23.2965 163.954 16.7161C152.004 10.1357 138.524 6.94317 124.933 7.47499C111.343 8.0068 98.1461 12.2432 86.7326 19.7379C75.3192 27.2326 66.1119 37.7081 60.0809 50.0606C54.05 62.4132 51.4186 76.1854 52.464 89.9263C53.5094 103.667 58.1929 116.868 66.0211 128.138C73.8493 139.408 84.5323 148.329 96.9445 153.963H96.8534L97.1632 154.061H97.2058C100.714 155.61 103.536 158.413 105.134 161.935C109.345 171.404 108.61 182.437 108.834 183.114H150.458C150.458 165.512 154.851 155.84 157.008 154.751C170.771 148.916 182.525 139.088 190.791 126.503C199.056 113.917 203.465 99.1355 203.462 84.0174Z" fill="#EED0D0" stroke="#002A4E" stroke-width="1.49" stroke-linecap="round" stroke-linejoin="round"/>
<path d="M110.171 177.025H149.425C149.78 177.025 150.12 177.168 150.37 177.422C150.621 177.676 150.762 178.02 150.762 178.38V202.175C150.762 203.795 150.127 205.348 148.996 206.493C147.866 207.639 146.333 208.282 144.735 208.282H114.861C113.263 208.282 111.73 207.639 110.599 206.493C109.469 205.348 108.834 203.795 108.834 202.175V178.38C108.834 178.02 108.975 177.676 109.225 177.422C109.476 177.168 109.816 177.025 110.171 177.025V177.025Z" fill="#EED0D0" stroke="#002A4E" stroke-width="1.49" stroke-linecap="round" stroke-linejoin="round"/>
<path d="M120.93 177.327L108.645 94.2928C100.316 93.1661 91.9798 90.7096 88.0489 85.612C84.8653 81.4809 83.796 75.8722 85.3756 71.3225C86.7548 67.2961 90.0599 64.4456 94.6835 63.3189C95.8652 62.9781 97.1044 62.893 98.3206 63.069C99.5369 63.2451 100.703 63.6784 101.743 64.3409C106.1 67.1729 107.345 73.465 107.394 73.7297V73.7667L110.194 92.6613C117.207 93.4102 124.269 93.5626 131.307 93.1169H131.344C131.483 93.1169 137.662 92.8645 144.935 91.8486C145.123 89.9278 145.269 88.4933 145.366 87.6744C145.561 86.0368 145.688 84.2945 145.822 82.4475C146.156 77.8177 146.508 73.0402 147.96 69.2908C149.71 64.7903 152.742 62.6047 157.232 62.6047C159.783 62.6117 162.281 63.3457 164.441 64.7229C166.6 66.1 168.334 68.0648 169.444 70.3928C171.91 75.2689 171.71 80.9391 168.939 84.8362C165.592 89.5522 155.464 92.0887 146.569 93.4555C144.607 113.877 139.187 176.57 139.126 177.272L137.358 177.111C137.419 176.403 142.754 114.634 144.752 93.7202C137.851 94.6683 132.073 94.9084 131.429 94.9515C124.444 95.4258 117.432 95.2981 110.468 94.5698L122.686 177.068L120.93 177.327ZM97.1745 64.7903C96.4761 64.7968 95.7808 64.8856 95.1027 65.0551C89.9566 66.3295 87.8849 69.4878 87.0525 71.9197C85.6916 75.903 86.6272 80.8406 89.4463 84.4976C92.958 89.0474 100.577 91.3191 108.366 92.4089L105.644 74.0499C105.577 73.7174 104.398 68.1888 100.783 65.8431C99.7076 65.1427 98.453 64.7768 97.1745 64.7903ZM157.238 64.3901C148.926 64.3901 148.252 73.6251 147.602 82.5583C147.468 84.4053 147.335 86.1907 147.14 87.8653C147.049 88.6226 146.921 89.8847 146.757 91.5593C155.202 90.2602 164.547 87.9145 167.499 83.7588C169.887 80.4035 170.033 75.472 167.87 71.1932C166.905 69.1633 165.397 67.4491 163.517 66.2462C161.637 65.0433 159.461 64.4002 157.238 64.3901V64.3901Z" fill="#FF6D31"/>
<path d="M202.04 322.296C201.611 322.274 201.205 322.094 200.898 321.79C200.591 321.487 200.403 321.08 200.369 320.646L183.163 142.721C183.111 142.242 183.246 141.761 183.539 141.382C183.832 141.002 184.26 140.754 184.731 140.689C184.963 140.666 185.198 140.691 185.421 140.761C185.645 140.831 185.852 140.946 186.03 141.099C186.209 141.251 186.356 141.438 186.463 141.649C186.569 141.86 186.633 142.09 186.651 142.327L203.857 320.252C203.909 320.731 203.774 321.212 203.481 321.591C203.188 321.971 202.76 322.22 202.289 322.284C202.207 322.294 202.123 322.298 202.04 322.296V322.296Z" fill="#002A4E"/>
<path d="M260.225 320.412C259.399 320.412 258.244 319.797 258.068 318.879L222.902 138.583C222.797 138.102 222.879 137.598 223.131 137.177C223.384 136.756 223.787 136.45 224.257 136.324C224.49 136.278 224.729 136.28 224.961 136.33C225.193 136.38 225.412 136.477 225.606 136.615C225.8 136.753 225.965 136.929 226.09 137.133C226.215 137.337 226.299 137.564 226.335 137.801L261.987 319.926C262.187 320.954 260.024 319.452 260.225 320.412V320.412Z" fill="#002A4E"/>
<path d="M238.688 216.791H191.833C191.594 216.823 191.351 216.804 191.121 216.734C190.89 216.663 190.677 216.544 190.495 216.383C190.314 216.223 190.169 216.025 190.069 215.802C189.969 215.58 189.918 215.339 189.918 215.095C189.918 214.85 189.969 214.609 190.069 214.387C190.169 214.165 190.314 213.967 190.495 213.806C190.677 213.645 190.89 213.526 191.121 213.456C191.351 213.385 191.594 213.366 191.833 213.398H238.688C238.927 213.366 239.17 213.385 239.4 213.456C239.631 213.526 239.844 213.645 240.026 213.806C240.207 213.967 240.352 214.165 240.452 214.387C240.551 214.609 240.603 214.85 240.603 215.095C240.603 215.339 240.551 215.58 240.452 215.802C240.352 216.025 240.207 216.223 240.026 216.383C239.844 216.544 239.631 216.663 239.4 216.734C239.17 216.804 238.927 216.823 238.688 216.791V216.791Z" fill="#002A4E"/>
<path d="M229.107 190.717H188.674C188.247 190.691 187.847 190.501 187.554 190.186C187.261 189.871 187.098 189.454 187.098 189.021C187.098 188.588 187.261 188.172 187.554 187.857C187.847 187.541 188.247 187.351 188.674 187.325H229.107C229.533 187.351 229.934 187.541 230.227 187.857C230.52 188.172 230.683 188.588 230.683 189.021C230.683 189.454 230.52 189.871 230.227 190.186C229.934 190.501 229.533 190.691 229.107 190.717Z" fill="#002A4E"/>
<path d="M242.096 241.78H194.476C194.031 241.78 193.604 241.601 193.29 241.283C192.975 240.964 192.799 240.532 192.799 240.081C192.799 239.631 192.975 239.198 193.29 238.88C193.604 238.561 194.031 238.382 194.476 238.382H242.096C242.541 238.382 242.967 238.561 243.282 238.88C243.596 239.198 243.773 239.631 243.773 240.081C243.773 240.532 243.596 240.964 243.282 241.283C242.967 241.601 242.541 241.78 242.096 241.78V241.78Z" fill="#002A4E"/>
<path d="M197.118 264.486C196.889 264.5 196.661 264.466 196.446 264.387C196.231 264.308 196.034 264.186 195.867 264.027C195.701 263.868 195.568 263.676 195.477 263.464C195.387 263.251 195.34 263.022 195.34 262.79C195.34 262.558 195.387 262.329 195.477 262.116C195.568 261.903 195.701 261.712 195.867 261.553C196.034 261.394 196.231 261.271 196.446 261.192C196.661 261.113 196.889 261.08 197.118 261.094H246.148C246.592 261.094 247.019 261.273 247.333 261.591C247.648 261.91 247.825 262.342 247.825 262.793C247.825 263.244 247.648 263.676 247.333 263.994C247.019 264.313 246.592 264.492 246.148 264.492L197.118 264.486Z" fill="#002A4E"/>
<path d="M251.483 290.842H199.622C199.387 290.867 199.15 290.842 198.926 290.768C198.702 290.694 198.495 290.573 198.32 290.413C198.145 290.253 198.005 290.058 197.909 289.84C197.813 289.621 197.764 289.385 197.764 289.146C197.764 288.907 197.813 288.671 197.909 288.453C198.005 288.235 198.145 288.039 198.32 287.879C198.495 287.719 198.702 287.598 198.926 287.525C199.15 287.451 199.387 287.425 199.622 287.45H251.483C251.717 287.425 251.954 287.451 252.179 287.525C252.403 287.598 252.609 287.719 252.784 287.879C252.959 288.039 253.099 288.235 253.195 288.453C253.291 288.671 253.341 288.907 253.341 289.146C253.341 289.385 253.291 289.621 253.195 289.84C253.099 290.058 252.959 290.253 252.784 290.413C252.609 290.573 252.403 290.694 252.179 290.768C251.954 290.842 251.717 290.867 251.483 290.842V290.842Z" fill="#002A4E"/>
<path d="M207.454 107.357C206.644 107.268 205.902 106.86 205.388 106.22C204.874 105.581 204.629 104.761 204.708 103.94L205.236 98.7255C205.324 97.9045 205.728 97.1519 206.361 96.6317C206.993 96.1116 207.804 95.8661 208.614 95.9489V95.9489C209.424 96.0359 210.168 96.4439 210.682 97.084C211.197 97.7241 211.44 98.5443 211.36 99.3658L210.826 104.574C210.74 105.395 210.337 106.148 209.706 106.67C209.074 107.191 208.265 107.438 207.454 107.357Z" fill="#EED0D0" stroke="#002A4E" stroke-width="1.49" stroke-linecap="round" stroke-linejoin="round"/>
<path d="M237.34 213.441L227.011 217.634C226.653 217.77 225.572 217.634 225.383 217.382C225.278 217.249 225.2 217.096 225.156 216.932C225.112 216.768 225.102 216.596 225.126 216.428C225.151 216.26 225.21 216.098 225.299 215.954C225.388 215.81 225.506 215.686 225.644 215.59C226.702 214.648 228.172 213.127 228.628 212.647C228.728 212.545 228.854 212.473 228.992 212.438L235.493 210.591C235.643 210.544 235.803 210.541 235.955 210.583C236.106 210.624 236.243 210.708 236.35 210.825L237.698 212.512C237.751 212.594 237.783 212.687 237.792 212.784C237.802 212.881 237.789 212.979 237.754 213.07C237.719 213.16 237.663 213.241 237.591 213.306C237.519 213.371 237.433 213.417 237.34 213.441Z" fill="#EED0D0" stroke="#002A4E" stroke-width="1.49" stroke-linecap="round" stroke-linejoin="round"/>
<path d="M202.648 216.366L191.548 216.415C191.326 216.427 191.108 216.351 190.941 216.202C190.775 216.054 190.672 215.845 190.654 215.621C190.65 215.288 190.749 214.963 190.937 214.691C191.126 214.419 191.395 214.214 191.706 214.106C192.951 213.638 194.743 212.875 195.308 212.647C195.429 212.596 195.561 212.574 195.691 212.586L201.84 213.023C202.01 213.03 202.174 213.087 202.313 213.186C202.452 213.286 202.559 213.423 202.623 213.583L203.31 215.553C203.345 215.653 203.353 215.761 203.335 215.865C203.316 215.969 203.272 216.067 203.205 216.149C203.138 216.231 203.052 216.293 202.954 216.332C202.857 216.37 202.751 216.381 202.648 216.366Z" fill="#EED0D0" stroke="#002A4E" stroke-width="1.49" stroke-linecap="round" stroke-linejoin="round"/>
<path d="M205.691 96.0597C206.313 94.9145 207.238 93.9678 208.362 93.3261C209.485 92.6843 210.764 92.3731 212.052 92.4273C216.767 92.4273 218.462 97.2972 218.523 100.48C218.584 103.663 221.111 104.968 221.773 105.67C222.296 106.224 221.275 107.714 221.694 108.601C222 109.125 222.474 109.527 223.037 109.74C223.901 110.194 224.664 110.822 225.279 111.587C226.804 113.471 228.955 116.974 226.561 119.664C223.116 123.537 220.03 123.66 220.759 125.599C221.488 127.538 222.812 128.062 220.576 129.909C218.341 131.756 214.501 132.648 214.501 132.648L215.528 124.854L216.214 121.296L206.493 120.797C206.493 120.797 203.395 116.592 205.691 115.471C206.319 115.206 206.836 114.726 207.153 114.116C207.47 113.506 207.568 112.803 207.429 112.128L211.214 101.705C211.214 101.705 204.415 99.138 205.691 96.0597Z" fill="#FF6D31" stroke="#002A4E" stroke-width="1.49" stroke-linecap="round" stroke-linejoin="round"/>
<path d="M208.438 196.856C208.438 196.856 205.54 205.869 203.699 209.009C201.858 212.149 202.642 213.54 202.642 213.54C202.642 213.54 196.366 215.128 195.254 214.685C192.763 213.694 195.4 212.61 195.4 212.61C196.232 212.428 197.017 212.068 197.701 211.554C198.385 211.04 198.953 210.384 199.367 209.631C200.655 207.131 200.485 195.507 200.485 195.507L208.438 196.856Z" fill="#EED0D0" stroke="#002A4E" stroke-width="1.49" stroke-linecap="round" stroke-linejoin="round"/>
<path d="M232.88 192.053C232.88 192.053 234.326 201.996 234.15 205.863C233.974 209.729 235.857 210.671 235.857 210.671C235.857 210.671 230.432 215.128 229.174 215.018C227.467 214.864 228.621 212.653 228.621 212.653C228.621 212.653 230.984 210.191 230.687 208.584C230.158 205.653 224.453 192.053 224.453 192.053H232.88Z" fill="#EED0D0" stroke="#002A4E" stroke-width="1.49" stroke-linecap="round" stroke-linejoin="round"/>
<path d="M203.195 141.298L198.158 171.909C197.722 174.613 197.965 177.384 198.863 179.968C200.357 184.45 200.728 194.695 200.266 196.295C199.926 197.459 201.603 197.736 201.603 197.736L208.122 198.696C208.989 197.634 209.524 196.334 209.658 194.962C209.792 193.59 209.52 192.209 208.875 190.995C208.687 190.244 208.591 189.473 208.59 188.698C208.65 187.83 209.89 184.573 207.636 176.619C206.39 172.223 213.523 164.275 213.523 164.275C213.523 164.275 220.905 156.887 219.599 150.915C218.292 144.943 203.195 141.298 203.195 141.298Z" fill="#D0D8DB" stroke="#012A4E" stroke-width="1.49" stroke-linecap="round" stroke-linejoin="round"/>
<path d="M204.123 140.523L213.516 175.954C213.516 175.954 213.923 179.371 217.295 182.603C220.667 185.835 224.713 192.454 225.309 196.388C225.418 197.139 225.552 197.521 226.068 197.73C226.413 197.867 226.785 197.924 227.155 197.897C227.524 197.871 227.884 197.761 228.207 197.576L233.772 194.553C233.772 194.553 234.538 187.695 232.144 188.31L230.929 184.887C230.625 184.038 227.101 177.191 223.887 174.045C220.673 170.899 222.459 162.693 222.459 162.693C222.459 162.693 226.755 145.54 223.893 140.781C220.703 135.462 204.123 140.523 204.123 140.523Z" fill="#D0D8DB" stroke="#012A4E" stroke-width="1.49" stroke-linecap="round" stroke-linejoin="round"/>
<path d="M201.79 142.813H224.58C223.882 140.199 222.515 137.819 220.619 135.911C219.04 134.325 217.837 132.397 217.101 130.272C216.364 128.146 216.113 125.879 216.366 123.641C216.852 120.04 219.027 117.048 216.688 113.138C214.349 109.229 211.76 110.762 209.743 113.138L201.766 122.57C201.766 122.57 201.493 127.101 204.33 130.081C207.167 133.061 201.754 142.351 201.754 142.351L201.79 142.813Z" fill="#EED0D0" stroke="#002A4E" stroke-width="1.49" stroke-linecap="round" stroke-linejoin="round"/>
<path d="M210.217 114.037C210.357 113.846 213.814 119.442 213.814 119.442C213.814 119.442 210.059 122.786 207.659 124.577C202.191 128.671 199.008 126.092 199.008 126.092C199.008 126.092 193.601 123.075 189.469 115.89C186.911 111.451 185.089 110.768 185.089 110.768C185.089 110.768 182.476 112.313 180.884 110.866C179.293 109.42 179.378 107.548 179.87 107.012C180.362 106.477 184.445 108.164 184.396 106.089C184.347 104.014 184.007 102.321 184.87 102.894C185.733 103.466 185.751 107.456 185.751 107.456C185.751 107.456 198.601 118.107 199.038 118.396C203.923 121.653 210.217 114.037 210.217 114.037Z" fill="#EED0D0" stroke="#002A4E" stroke-width="1.49" stroke-linecap="round" stroke-linejoin="round"/>
<path d="M83.1719 277.901L84.0954 283.239L87.6678 282.679L88.2997 281.084L87.1392 276.781L83.1719 277.901Z" fill="#EED0D0" stroke="#002A4E" stroke-width="1.49" stroke-linecap="round" stroke-linejoin="round"/>
<path d="M25.0531 274.891L23.2305 279.003L24.7433 280.358C24.7433 280.358 27.7811 280.358 27.6596 280.241C27.5381 280.124 28.9172 276.658 28.9172 276.658L25.0531 274.891Z" fill="#EED0D0" stroke="#002A4E" stroke-width="1.49" stroke-linecap="round" stroke-linejoin="round"/>
<path d="M87.6071 277.341C87.6071 277.341 85.5232 279.73 83.1719 278.886C80.8207 278.043 72.3634 255.719 71.2516 251.643C70.1398 247.568 55.1816 228.901 55.1816 228.901L68.153 207.353C68.153 207.353 78.1839 230.323 82.7345 247.032C85.4846 257.018 87.1151 267.286 87.595 277.643L87.6071 277.341Z" fill="#D0D8DB" stroke="#012A4E" stroke-width="1.49" stroke-linecap="round" stroke-linejoin="round"/>
<path d="M67.5863 199.743C67.5863 199.743 47.4943 200.864 44.1709 200.303C40.8476 199.743 40.1489 216.027 38.7636 228.242C37.8178 235.871 35.4685 243.254 31.8375 250.006C31.8375 250.006 26.017 265.594 25.1543 274.718C25.6175 275.385 26.2446 275.918 26.9736 276.263C27.7025 276.609 28.508 276.755 29.31 276.688C32.2202 276.547 45.1066 252.536 45.1066 252.536C45.1066 252.536 50.5138 242.845 53.2843 236.11C56.0548 229.375 62.7076 217.997 65.478 213.946C68.2485 209.895 68.8014 206.928 68.8014 206.928C68.8014 206.928 67.3068 200.303 67.5863 199.743Z" fill="#D0D8DB" stroke="#012A4E" stroke-width="1.49" stroke-linecap="round" stroke-linejoin="round"/>
<path d="M86.3423 142.382C86.3482 142.306 86.3482 142.23 86.3423 142.154V141.982C86.3423 141.28 85.7347 141.108 85.273 141.114C81.5912 141.194 81.9678 145.06 80.9289 146.753L80.8439 146.907L71.3902 165.993C71.1047 166.811 70.1751 167.298 69.7194 167.655L67.113 167.409C66.673 167.467 66.269 167.686 65.9769 168.024C63.6621 170.789 54.2449 180.19 55.1623 181.938C55.2676 182.129 55.3396 182.338 55.375 182.554L55.4357 182.942C55.4953 183.313 55.6654 183.657 55.9231 183.927C56.1808 184.198 56.5139 184.383 56.8779 184.456C57.2418 184.53 57.6193 184.489 57.9598 184.34C58.3003 184.19 58.5877 183.938 58.7834 183.619C59.4638 182.498 60.1139 181.206 60.685 180.325C60.8365 180.09 61.0389 179.893 61.2768 179.749C61.5147 179.605 61.7819 179.518 62.0581 179.494L74.428 178.878C74.9809 178.835 76.2021 178.651 76.5059 178.177C80.7588 171.657 82.1866 164.416 82.466 163.296C82.466 163.228 82.8731 161.541 82.8792 161.449L84.1794 147.363C84.3252 145.639 84.6836 145.725 85.7894 144.038C86.0834 143.53 86.2716 142.967 86.3423 142.382V142.382Z" fill="#EED0D0" stroke="#002A4E" stroke-width="1.49" stroke-linecap="round" stroke-linejoin="round"/>
<path d="M37.3841 169.81C37.7061 168.652 39.6321 162.896 46.7406 159.343C46.8727 159.281 47.0215 159.264 47.1641 159.295C47.3067 159.326 47.4353 159.404 47.5304 159.516L53.3751 165.672C53.8976 166.22 54.6814 165.74 54.6814 164.866V161.985C54.6814 161.283 55.2099 160.784 55.7264 161L60.9271 163.111C60.9779 163.129 61.0252 163.157 61.0668 163.191C61.5164 163.505 66.2007 163.505 70.3564 166.596C70.7513 166.891 70.2167 169.126 70.3564 169.828L69.3843 178.25C68.7329 178.769 68.0078 179.184 67.2336 179.482C66.7189 179.71 66.2814 180.085 65.9748 180.562C65.6683 181.039 65.506 181.597 65.5081 182.166C65.5081 182.443 65.6903 183.514 65.6417 183.693L68.072 202.058C67.9748 202.421 60.04 203.8 59.7484 203.856L49.6022 205.813C49.4371 205.836 49.2695 205.802 49.1255 205.717C48.9815 205.632 48.8693 205.502 48.8063 205.346L38.0342 183.348C37.9596 183.192 37.9182 183.022 37.9127 182.849L37.372 170.21C37.3545 170.077 37.3586 169.941 37.3841 169.81V169.81Z" fill="#EED0D0" stroke="#002A4E" stroke-width="1.49" stroke-linecap="round" stroke-linejoin="round"/>
<path d="M56.8272 210.345C54.9681 209.113 41.5714 206.478 35.4958 198.752C33.0655 195.674 32.2939 189.295 32.4215 184.111C32.9379 162.797 47.5072 159.793 47.5072 159.793C48.3031 159.559 47.9447 156.961 48.0844 156.487C48.0844 156.425 47.811 156.019 47.8232 155.957L49.1598 153.131C49.1941 152.972 49.2471 152.817 49.3178 152.67L50.8974 149.339C51.0627 148.99 51.328 148.7 51.6587 148.507C51.9893 148.314 52.3698 148.226 52.7505 148.255L58.9719 148.736C59.4634 148.775 59.9206 149.006 60.2471 149.381C60.5735 149.755 60.7437 150.244 60.7217 150.743L60.4968 155.785C60.4854 156.06 60.416 156.329 60.2934 156.574C60.1708 156.819 59.9978 157.035 59.786 157.207L54.8405 161.203C54.3483 161.597 54.7919 161.978 54.8405 162.613V165.691C54.8405 167.482 54.081 167.482 53.8258 167.273L45.9276 175.8L45.8061 175.935C36.2431 188.175 52.9267 203.339 57.8114 206.719C57.8114 206.719 61.0315 209.372 61.6269 210.099C61.9307 210.468 64.0146 213.362 62.842 216.255C61.6694 219.149 59.2696 215.024 59.2696 213.478C59.2696 211.933 56.8272 210.345 56.8272 210.345Z" fill="#EED0D0" stroke="#002A4E" stroke-width="1.49" stroke-linecap="round" stroke-linejoin="round"/>
<path d="M56.9987 149.696L59.7509 149.813C60.6076 149.85 61.9989 149.277 62.4242 148.52C63.3051 146.975 63.6393 143.17 59.1373 142.628C52.5635 141.84 56.0995 146.882 50.3763 146.322C44.653 145.762 48.6508 149.702 47.946 151.98C47.2413 154.258 45.5158 155.138 46.9496 156.321C48.3835 157.503 51.2876 156.222 50.279 154.424C48.9424 152.066 51.0871 150.213 52.3022 151.346C53.5173 152.479 52.1625 155.175 52.1625 155.175C52.1625 155.175 50.8016 157.761 51.403 158.814C52.2249 159.986 53.1284 161.097 54.1067 162.139C54.3254 162.381 54.5925 162.575 54.8904 162.705C56.2939 163.321 60.4253 164.909 60.1033 162.323C59.9123 161.01 60.0416 159.67 60.48 158.42C60.6797 157.877 60.6713 157.278 60.4565 156.741C60.2416 156.204 59.836 155.769 59.3195 155.52C58.3872 155.122 57.3904 154.9 56.3789 154.868C53.2075 154.658 54.0459 152.325 54.9086 150.853C55.1198 150.486 55.4261 150.184 55.7945 149.98C56.1629 149.776 56.5793 149.678 56.9987 149.696V149.696Z" fill="#FF6D31" stroke="#002A4E" stroke-width="1.49" stroke-linecap="round" stroke-linejoin="round"/>
<path d="M30.9325 282.814C30.9325 282.814 33.6301 284.661 33.8427 285.628C34.2316 287.475 31.0966 287.69 28.5874 285.905C24.8326 283.239 22.7122 282.537 22.1897 282.112C21.6672 281.688 23.1922 277.649 23.6297 278.461C24.0003 279.163 24.8448 281.133 27.9312 279.305C28.6989 280.66 29.718 281.852 30.9325 282.814V282.814Z" fill="#EED0D0" stroke="#002A4E" stroke-width="1.49" stroke-linecap="round" stroke-linejoin="round"/>
<path d="M91.9009 282.537C91.9009 282.537 95.0845 282.679 95.6739 283.485C96.7736 284.981 94.4041 286.145 91.342 285.905C88.9117 285.714 84.6588 285.819 83.9905 285.634C83.3222 285.449 83.468 280.912 83.9419 281.706C84.6953 282.937 87.326 282.537 88.2434 280.819C88.2434 280.819 90.1208 282.672 91.9009 282.537Z" fill="#EED0D0" stroke="#002A4E" stroke-width="1.49" stroke-linecap="round" stroke-linejoin="round"/>
<path d="M36.2803 167.864C36.1648 168.086 46.3415 175.769 46.3415 175.769L54.4949 167.735L46.9976 159.762C46.9976 159.762 39.4031 161.861 36.2803 167.864Z" fill="#EED0D0" stroke="#002A4E" stroke-width="1.49" stroke-linecap="round" stroke-linejoin="round"/>
</svg>
