<svg id="Calque_1" data-name="Calque 1" xmlns="http://www.w3.org/2000/svg" viewBox="0 0 301.4 264.9"><defs><style>.cls-1{fill:#f2f2f2;}.cls-2{fill:#009640;}.cls-3{fill:#f6b5b7;}.cls-4{fill:#302f42;}.cls-5{fill:#063;}.cls-6{fill:#f6b6b8;}.cls-7{fill:#ec6585;}.cls-8{fill:#fff;}.cls-9{fill:#cdcccc;}.cls-10{fill:#403e56;}.cls-11{fill:#ec6583;}.cls-12{fill:#ffde00;}.cls-13{fill:#e7e6e6;}</style></defs><path class="cls-1" d="M255.3,204.4l.5-9.8a31.1,31.1,0,0,1,14.7-3.7c-7.1,5.8-6.2,16.9-11,24.7a18.6,18.6,0,0,1-13.9,8.7l-5.9,3.6a31.8,31.8,0,0,1,6.7-25.7A34.2,34.2,0,0,1,252,197C253.5,200.7,255.3,204.4,255.3,204.4Z"/><path class="cls-2" d="M165.8,230.4c-3-.2-3.8.4-8.3,0h-8.4l1.1-20,13.1,5.3,65.3,1.6h0c-.1.1-3,8.5-.7,11.8h-.1l-59.9.5C167.3,229.8,166.4,230.4,165.8,230.4Z"/><path class="cls-2" d="M169.2,230.6c-5.8-.4-11.8,1.9-16.9-.7l-4,.3h0c0-.1-1.9-15,1.9-20.8l.2-.2v1.4L149.3,229l2.8-.9c6.8,3.2,14.8,1.1,22.6,1.1l53-.2a2,2,0,0,1,2.1,1.7H169.2Z"/><polygon class="cls-2" points="224.9 221.3 165.3 220.1 165.2 220.1 151.1 214.8 151.4 214.1 165.4 219.4 224.9 220.5 224.9 221.3"/><polygon class="cls-2" points="224.6 224.5 165 223.3 164.9 223.3 150.8 218 151.1 217.3 165.1 222.6 224.6 223.7 224.6 224.5"/><polygon class="cls-2" points="224.3 227.7 164.7 226.5 164.6 226.5 150.5 221.2 150.8 220.5 164.8 225.7 224.3 226.9 224.3 227.7"/><path class="cls-2" d="M169.6,217.5a39.9,39.9,0,0,1-15.8-4.5l-4.2-2.2v-1.1a.8.8,0,0,1,.7-.5h.4l55.6.8a32.7,32.7,0,0,1,10.7,2l12.1,4.4h0a2.2,2.2,0,0,1-2.4,1.8l-54.7-.6Z"/><polygon class="cls-2" points="229.1 216.6 229.1 216.6 162.4 215.1 162.3 215 150.3 209.5 150.4 209.3 150.8 209.3 162.5 214.7 228.6 216.2 229.1 216.2 229.1 216.6"/><path class="cls-2" d="M177.2,209.7h-.8l-19.1-.3h-.9c4.3,4.6,14,5.8,28.1,4Z"/><polygon class="cls-3" points="231 98.5 232.1 101.2 230.2 110.8 210.8 108.1 210.9 96.4 211.3 93.8 231 98.5"/><polygon class="cls-3" points="241 223.3 236.7 223.3 234.7 206.8 241 206.8 241 223.3"/><path class="cls-4" d="M228.3,228.9a1.8,1.8,0,0,0,1.8,1.8h8.1l1.5-2.9.5,2.9h3.1l-.9-10.3H241l-4.7-.3h-.7v2.9l-6.6,4.5A2,2,0,0,0,228.3,228.9Z"/><polygon class="cls-3" points="201.4 204.4 197.1 204.4 194.6 180 202.6 179.5 201.4 204.4"/><path class="cls-4" d="M188.6,210a1.8,1.8,0,0,0,1.9,1.8h8.1l1.4-2.9.6,2.9h3l-.8-10.4h-1.3l-4.8-.2h-.8v2.9l-6.5,4.5A2.1,2.1,0,0,0,188.6,210Z"/><path class="cls-4" d="M242.8,209.1h0l-.8-26.9a7.2,7.2,0,0,0-.1-6.7v-.2l.3-1.4a9.5,9.5,0,0,0-.5-5.5l-.8-25c2.7-17.9-10.4-29.5-10.4-29.5l1.3-9.3-21.2.5.3,8.8-4.2,14.5c-2.2,21.6-17.1,35.2-14.9,55.8v.2a5.4,5.4,0,0,0,.4,4.3.8.8,0,0,1,.2.5c.5,3.6.6-1,1.2,2.6h-.1c-.5.1-.7.7-.5,1.3s.8,1,1.2.8h11.3c.5-.1.6-.7.4-1.3a1,1,0,0,0-1.1-.8l-.7.4,1.2-3.9.4-.4a1.8,1.8,0,0,0,.1-2.5l-.4-.3h0l1.2-6.3v-4.7l.3-5.4,14.9-21.5,6,29.7,6.1,32.3a.9.9,0,0,0-.3,1,1.2,1.2,0,0,0,1.1.9h8.4a1.1,1.1,0,0,0,1.1-1.1v-.3A1.2,1.2,0,0,0,242.8,209.1Z"/><path class="cls-4" d="M235.4,52.7a10.5,10.5,0,1,1-21,0,10.2,10.2,0,0,1,3-7.2h0l.3-.2h0q.2,0,.3-.3c1.4-1.9,3-3.6,6.9-2.6C230.5,43.7,235.4,46.9,235.4,52.7Z"/><path class="cls-3" d="M177.8,48.2a3.7,3.7,0,0,0,3.7,4h.6l27.1,22.2,4.1-7.2L185.4,47.6a3.8,3.8,0,0,0-4.5-3,3.9,3.9,0,0,0-3.1,3.6Z"/><path class="cls-5" d="M220.6,81s0-.8-4.3-.8-20-7.6-18.7-14.8a3.1,3.1,0,0,1-3.6-.9l7.1-6.9c2.3.2,2.3,1.7,2.1,2.5l5.7,2.3,15,8.6-2.6,8.7Z"/><circle class="cls-6" cx="222.3" cy="55.2" r="8.8"/><path class="cls-2" d="M210.3,98.9a3.6,3.6,0,0,0,.1,4.5,6.3,6.3,0,0,0,.4,1.4l.2.3h0a2.7,2.7,0,0,0,1.6,1l16.1,4.5,2.1.6h.4l.2-2.9a2.5,2.5,0,0,0,.5-3.3l-.2-.5,1.7-4.7v-.4L238,87.6V80.3a11.7,11.7,0,0,0-4.6-9.3,10.4,10.4,0,0,0-4.4-2h0l-1.8-2.4-7,.7-.6,1.2-.7,1.5-5.2,3L212,77.1l-1.2,2.7a7.5,7.5,0,0,0-3.2,5c-.7,4.3,2.3,8.6,2.7,9.1v4.9Z"/><path class="cls-4" d="M231.5,57.5h-.2l-4.1-.7V53.6l-1.7,2.8a14.3,14.3,0,0,1-10.6-1l-3.2-1.8c-.4-5.2,1.8-8.6,5.7-8.3.2.1.3-.1.4-.1h0l.6-.2a9.8,9.8,0,0,1,10.2,1.9A11.5,11.5,0,0,1,231.5,57.5Z"/><path class="cls-7" d="M231.3,57.4a17.8,17.8,0,0,0-13.8-11.9.1.1,0,0,0-.1-.1.1.1,0,0,1-.1-.1h.4l.3-.3h.3S229.5,43.1,231.3,57.4Z"/><path class="cls-5" d="M235.6,118.7a1.4,1.4,0,0,1-1.5.3,2.6,2.6,0,0,1-1.3-1,11.1,11.1,0,0,1-3-5.4l.5-.8a4.7,4.7,0,0,1,2.8-5.2,2.8,2.8,0,0,1,1.8-.2,1.6,1.6,0,0,1,1.2,1.2,2.5,2.5,0,0,1-1.3,2.3,9.4,9.4,0,0,1-4.6,1.6,17.2,17.2,0,0,1,5.1,4.6,2.6,2.6,0,0,1,.6,1.3A1.2,1.2,0,0,1,235.6,118.7Z"/><path id="be339808-9edc-488a-82d9-9b8c80f783b0-949" class="cls-2" d="M124.4,231.1H272a.5.5,0,0,0,.5-.5.5.5,0,0,0-.5-.5H124.4a.5.5,0,0,0-.5.5.6.6,0,0,0,.5.5Z"/><path class="cls-8" d="M163.6,109.5v.2l-1.6-1.8-.7-.8-2.8-3.2-3-3.3-.7-.7a1.7,1.7,0,0,0-.6-.6l-.8-.5h-1l-1.1.4-1.1.3-2.2.7h-.1a.1.1,0,0,1,.1-.1h0l.5-.2,2.3-.7,1.1-.4,1.1-.2a2.2,2.2,0,0,1,1.5.8l.7.6.7.8,3,3.3,2.9,3.3.2.2C162.6,108.2,163.1,108.9,163.6,109.5Z"/><path class="cls-8" d="M154.1,100.3a1.6,1.6,0,0,0-.8-.6H153a32.9,32.9,0,0,0,9.2,9.4Z"/><path class="cls-9" d="M204.1,139,192,73.9a4.9,4.9,0,0,0-4.6-3.9h-.3l-8.3.3h-8.6l-53.7,1.9h-.2l-12-.3H96.4l-28.6-.6-7.6-.2H34.5a4.8,4.8,0,0,0-4.7,4l-11,67.6a4.8,4.8,0,0,0,4,5.5H86.7a4.5,4.5,0,0,1,2.6.8l1.2.9a4.8,4.8,0,0,0,2.9,1,71.1,71.1,0,0,1,37.2,0,4.8,4.8,0,0,0,3.4-1.4,4.1,4.1,0,0,1,2.8-1.3l62.9-3.3a4.9,4.9,0,0,0,4.5-5.1,1.3,1.3,0,0,0-.1-.6Z"/><path class="cls-1" d="M186.9,128.9a8.3,8.3,0,0,1-8.6,8c-3.7-.1-8-.2-12.7-.1-15.5.3-34.9,2.4-46.5,10.1a8.7,8.7,0,0,1-5,1.3h-.4a8.4,8.4,0,0,1-4.8-2.1c-6.4-5.9-21.2-13-54.9-13.5h-.4a8.2,8.2,0,0,1-7.8-8.8h0l3.3-52.6.5-7.9.9-13.8a5.4,5.4,0,0,1,5.4-5.1H76.1a87.7,87.7,0,0,1,21,3.2,37.6,37.6,0,0,1,5.5,2.3,20,20,0,0,1,6.4,4.8,7.6,7.6,0,0,0,4.4,2.3h.8a7.8,7.8,0,0,0,4.4-1.3c13.1-8.8,39.8-9.4,54.6-9a8.3,8.3,0,0,1,8.1,7.7l.6,7.8.6,7.8,3.4,45.2,1,12.6Z"/><path class="cls-10" d="M59,62.8a51.2,51.2,0,0,1,37.1,2.6,44,44,0,0,1,9.2,5.7c.8.6,2-.5,1.1-1.2a52.8,52.8,0,0,0-37-10.8,49.2,49.2,0,0,0-10.8,2.1c-1,.4-.6,1.9.4,1.6Z"/><path class="cls-10" d="M125.6,71.7a51.1,51.1,0,0,1,37-3.8,43.3,43.3,0,0,1,10,3.9c1,.5,1.8-.9.9-1.3a52.3,52.3,0,0,0-38.4-4.2,47.8,47.8,0,0,0-10.3,4A.8.8,0,0,0,125.6,71.7Z"/><path class="cls-10" d="M125.6,82.4a51.1,51.1,0,0,1,37-3.8,43.5,43.5,0,0,1,10,4c1,.5,1.8-.9.9-1.4A52.8,52.8,0,0,0,135.1,77a48.1,48.1,0,0,0-10.3,4.1c-.9.4-.1,1.8.8,1.3Z"/><path class="cls-10" d="M173.9,92.6a1,1,0,0,0-.4-.7A53.8,53.8,0,0,0,143,86.2h-.4a51.2,51.2,0,0,0-17.8,5.5.8.8,0,0,0-.4.7v20a.8.8,0,0,0,.8.8h.2l.8-.2a83.3,83.3,0,0,1,17.2-2.7h.3a95.8,95.8,0,0,1,14.2.5h1.3l2.9.4,4,.7h.3l6.4,1.5a.8.8,0,0,0,1-.6c.1,0,.1-.1.1-.2V92.6Z"/><path class="cls-11" d="M144.3,87.3a2.5,2.5,0,0,0-1.9-.1,2.2,2.2,0,0,0-1.3,1.2,7.5,7.5,0,0,0-.4,1.6c0,.2,0,.5.2.6a.4.4,0,0,0,.5-.1l.3-.4a4.2,4.2,0,0,1,3.6-1.9l.6.2A9.1,9.1,0,0,0,144.3,87.3Z"/><path class="cls-8" d="M150.7,92a3.3,3.3,0,0,0-1.8-1.7,4.4,4.4,0,0,0-2.9.8,74.3,74.3,0,0,0-7.5,4.9h0l5.6-.3a10.5,10.5,0,0,0,3.9-.8l1.4-.5a2.1,2.1,0,0,1,1.6.8c2.6,2.4,3.3,6.1,6.2,8.3A72.3,72.3,0,0,0,150.7,92Z"/><path class="cls-8" d="M143.8,110.4h-.4l-2.8-.8-1.8-.5-2.1-.3a27.1,27.1,0,0,0-4-.4h-.1c0-.1,0-.1.1-.1h.5a25.8,25.8,0,0,1,4,.4l2.1.4,1.9.4Z"/><path class="cls-8" d="M159.2,111.1H159l-1.2-.9-1.5-1a20.2,20.2,0,0,0-3.6-1.8,38.2,38.2,0,0,0-6-1.9,55.2,55.2,0,0,0-7.1-1.1l-7.2-.5c-.1,0-.1-.2,0-.2h.9c2.4.1,4.9.3,7.3.6a42.1,42.1,0,0,1,7.1,1.2,39.7,39.7,0,0,1,5.8,2,19.6,19.6,0,0,1,3.2,1.7l1.8,1.3A2,2,0,0,1,159.2,111.1Z"/><path class="cls-8" d="M158.2,110.9h-.3l-.3-.3A22.6,22.6,0,0,0,155,109l-2.5-1.2a41.8,41.8,0,0,0-6-1.9,61.2,61.2,0,0,0-7.1-1.1l-7.3-.5c-.1-.1-.1-.2,0-.2h1q3.6.1,7.2.6a45.1,45.1,0,0,1,7.2,1.2,39.7,39.7,0,0,1,5.8,2l2.1,1.1A16.7,16.7,0,0,1,158.2,110.9Z"/><path class="cls-8" d="M166.4,112.2h-.3l-.3-.3-1.3-1.7a81.1,81.1,0,0,1-5.1-6.5c-1.4-1.9-2.7-3.8-3.9-5.8l-1.7-2.8-1.2-2.3-.4-.6a10.9,10.9,0,0,0-.8-1.5,4,4,0,0,0-1.3-1.6,3.2,3.2,0,0,0-.9-.3,2,2,0,0,0-1.3.4,42.6,42.6,0,0,0-8.5,5.1,49.2,49.2,0,0,0-6.9,6.8c0,.1-.2,0-.1,0l.7-.9a42.3,42.3,0,0,1,6.5-6.2h0l.7-.5a36.2,36.2,0,0,1,4.1-2.7l2.3-1.2.5-.3.6-.3a2.8,2.8,0,0,1,1.3-.3c1.4-.1,2.2,1.5,2.7,2.5l.6.9c.6,1.2,1.3,2.4,2,3.6l1.3,2.2,2,3h0c.7,1.2,1.6,2.4,2.4,3.5s3,4,4.6,5.9Z"/><path class="cls-11" d="M147.2,88.5h-.1a4.2,4.2,0,0,0-3.3-2,3.8,3.8,0,0,0-4.3,3.3,2.9,2.9,0,0,0,.6,2.2H140a3.4,3.4,0,0,1-.7-2.4,4.1,4.1,0,0,1,4.5-3.4A4.3,4.3,0,0,1,147.2,88.5Z"/><path class="cls-8" d="M136.3,92.5a3.8,3.8,0,0,0-3.6.2,56,56,0,0,1,5.9,1.2A17.6,17.6,0,0,0,136.3,92.5Z"/><path class="cls-8" d="M132.7,92.7l-.2.2c.1-.1.1-.2.2-.2Z"/><path class="cls-8" d="M139.3,93.6l-.3-.3a8.1,8.1,0,0,0-2.4-1.7,3.2,3.2,0,0,0-1.4-.3l-1.5.3-.7.3-.7.3-1.4.7-2.5,1.6-1.3.9-1.1.9c-.1,0-.2-.1-.1-.1l.3-.3.8-.6,1.6-1.1,2.7-1.6,1.3-.7.5-.2,1-.4a3.8,3.8,0,0,1,1.5-.1l1.4.4a11.2,11.2,0,0,1,2.4,1.9C139.4,93.6,139.3,93.7,139.3,93.6Z"/><path class="cls-10" d="M59,73.5a51.7,51.7,0,0,1,37.1,2.6,54.3,54.3,0,0,1,9.2,5.7c.8.7,2-.5,1.1-1.1a52.4,52.4,0,0,0-37-10.9A49.3,49.3,0,0,0,58.6,72c-1,.3-.6,1.9.4,1.5Z"/><path class="cls-10" d="M59,84.3a50.7,50.7,0,0,1,37.1,2.6,44,44,0,0,1,9.2,5.7c.8.6,2-.5,1.1-1.2a52.3,52.3,0,0,0-37-10.8,49.2,49.2,0,0,0-10.8,2.1c-1,.3-.6,1.9.4,1.6Z"/><path class="cls-10" d="M59,95a51.7,51.7,0,0,1,37.1,2.6,54.3,54.3,0,0,1,9.2,5.7c.8.6,2-.5,1.1-1.1a52.4,52.4,0,0,0-37-10.9,49.3,49.3,0,0,0-10.8,2.2A.8.8,0,1,0,59,95Z"/><path class="cls-10" d="M59,105.8a50.7,50.7,0,0,1,37.1,2.6,48.1,48.1,0,0,1,9.2,5.6c.8.7,2-.5,1.1-1.1a52.9,52.9,0,0,0-37-10.9,55.9,55.9,0,0,0-10.8,2.2c-1,.3-.6,1.9.4,1.6Z"/><path class="cls-10" d="M59,116.5a51.2,51.2,0,0,1,37.1,2.6,54.3,54.3,0,0,1,9.2,5.7c.8.6,2-.5,1.1-1.2a52.8,52.8,0,0,0-37-10.8A44.1,44.1,0,0,0,58.6,115a.8.8,0,1,0,.4,1.5Z"/><path class="cls-12" d="M102.6,49.9V75.6c0,.5-.9,1-2.1,1.1h-.6a6.4,6.4,0,0,1-2-.3h-.3a.7.7,0,0,1-.5-.6v-28A37.6,37.6,0,0,1,102.6,49.9Z"/><rect class="cls-13" x="113.4" y="55.8" width="0.8" height="91.86"/><path class="cls-3" d="M200,118.7a3.8,3.8,0,0,0,3.5-4.2c-.1-.2-.1-.4-.2-.6l16.4-7.7,9.9-15.9-7.8-3.1L215.2,100l-16.9,11.2a3.8,3.8,0,0,0-2.3,4.9,3.7,3.7,0,0,0,4,2.6Z"/><path class="cls-5" d="M235.6,75s2,.6-.1,4.4-10,20.2-13.4,23.6a3,3,0,0,1-.3,3.7l-7.8-6.2c-.2-2.2,1.3-2.4,2.2-2.4l1.8-6.3,6.2-15.7,10.1-1.6Z"/><path class="cls-4" d="M235.8,45.7c.4-1.5,3.1-2.6-1.5-4.7-1.1-.5-1.1-2.2-2-3a3.3,3.3,0,0,0-3.4-.6,3.6,3.6,0,0,0-1.7,2.7,11.7,11.7,0,0,0,.4,3.2h-.1l5.5,4.2c.6.5,1.5,1,2.2.6S235.6,46.6,235.8,45.7Z"/></svg>