<svg width="466" height="555" viewBox="0 0 466 555" fill="none" xmlns="http://www.w3.org/2000/svg">
<g filter="url(#filter0_d_1_3740)">
<rect x="46" y="220.69" width="274.996" height="197.82" rx="20" transform="rotate(-30 46 220.69)" fill="white"/>
</g>
<mask id="mask0_1_3740" style="mask-type:alpha" maskUnits="userSpaceOnUse" x="53" y="90" width="324" height="295">
<rect x="46.332" y="220.498" width="274.996" height="197.82" rx="20" transform="rotate(-30 46.332 220.498)" fill="white"/>
</mask>
<g mask="url(#mask0_1_3740)">
<path d="M99.2402 318.907L102.886 289.804L120.788 279.468L118.108 231.829L131.335 213.395L146.836 197.247L181.558 214.39L193.747 194.157L200.936 163.613L233.904 179.37L237.457 142.527L278.413 170.468L296.835 161.032L310.778 142.185L343.226 157.042L367.559 156.19" stroke="#068F7D" stroke-width="2"/>
<path d="M92.5802 314.95L101.329 287.105L125.465 287.566L133.693 258.822L140.687 229.591L167.617 233.238L164.417 184.698L190.112 187.859L227.951 210.401L244.814 198.265L258.238 178.518L276.856 167.769L302.551 170.929L330 175.476L348.942 166.94L367.56 156.19" stroke="#FB4C5C" stroke-width="2"/>
<g filter="url(#filter1_d_1_3740)">
<path d="M221.34 162.388C220.235 160.475 220.891 158.028 222.804 156.924L255.713 137.924C257.626 136.819 260.072 137.475 261.177 139.388L270.377 155.323C271.482 157.236 270.826 159.682 268.913 160.787L258.149 167.001L255.758 176.003L246.767 173.573L236.004 179.787C234.091 180.891 231.644 180.236 230.54 178.323L221.34 162.388Z" fill="#F7F4FD"/>
<path d="M257.899 166.568L257.72 166.672L257.666 166.873L255.404 175.389L246.898 173.09L246.697 173.036L246.517 173.14L235.754 179.354C234.08 180.32 231.939 179.747 230.973 178.073L221.773 162.138C220.806 160.464 221.38 158.323 223.054 157.357L255.963 138.357C257.637 137.39 259.778 137.964 260.744 139.638L269.944 155.573C270.91 157.247 270.337 159.387 268.663 160.354L257.899 166.568Z" stroke="#E8E0FF"/>
</g>
<path d="M243.612 163.132C243.92 163.665 243.977 164.237 243.785 164.847C243.588 165.45 243.107 166.001 242.341 166.498L243.031 167.693L242.511 167.993L241.827 166.809C241.305 167.073 240.771 167.252 240.225 167.346C239.682 167.428 239.206 167.412 238.797 167.297L238.757 166.531C239.135 166.626 239.565 166.642 240.045 166.577C240.531 166.508 240.998 166.364 241.443 166.144L239.865 163.41C239.319 163.569 238.849 163.674 238.454 163.726C238.055 163.772 237.675 163.728 237.312 163.596C236.952 163.453 236.648 163.166 236.4 162.737C236.092 162.203 236.028 161.644 236.208 161.06C236.384 160.469 236.835 159.922 237.561 159.42L236.871 158.225L237.391 157.925L238.075 159.109C238.478 158.895 238.897 158.741 239.332 158.647C239.77 158.542 240.178 158.505 240.556 158.536L240.651 159.299C240.263 159.283 239.879 159.315 239.501 159.395C239.122 159.475 238.773 159.598 238.453 159.764L240.043 162.518C240.628 162.347 241.121 162.233 241.522 162.177C241.92 162.113 242.306 162.149 242.679 162.285C243.053 162.42 243.364 162.702 243.612 163.132ZM237.147 162.278C237.355 162.638 237.644 162.836 238.016 162.871C238.394 162.902 238.87 162.839 239.445 162.683L237.945 160.085C237.457 160.422 237.151 160.788 237.027 161.183C236.907 161.566 236.947 161.931 237.147 162.278ZM241.963 165.844C242.486 165.486 242.82 165.113 242.966 164.724C243.111 164.336 243.081 163.965 242.877 163.611C242.661 163.237 242.357 163.039 241.965 163.016C241.573 162.992 241.072 163.069 240.463 163.245L241.963 165.844ZM250.683 160.726L251.067 161.391L245.964 164.337L245.658 163.807L246.973 159.099C247.138 158.505 247.208 158.035 247.184 157.689C247.162 157.331 247.071 157.014 246.911 156.737C246.663 156.308 246.323 156.061 245.889 155.998C245.458 155.923 244.968 156.044 244.421 156.36C243.569 156.852 243.063 157.504 242.904 158.316L242.11 158.165C242.202 157.669 242.415 157.204 242.747 156.772C243.086 156.336 243.533 155.958 244.087 155.638C244.829 155.21 245.516 155.049 246.15 155.154C246.786 155.248 247.281 155.6 247.633 156.21C247.849 156.584 247.973 156.992 248.007 157.435C248.041 157.877 247.956 158.458 247.751 159.176L246.682 163.036L250.683 160.726ZM251.787 155.253C252.84 154.645 253.715 154.393 254.413 154.498C255.114 154.592 255.661 154.979 256.053 155.658C256.297 156.081 256.414 156.516 256.405 156.965C256.403 157.409 256.261 157.843 255.978 158.265C255.691 158.68 255.26 159.053 254.685 159.385C254.166 159.685 253.622 159.888 253.055 159.994C252.491 160.088 251.985 160.076 251.537 159.956L251.558 159.153C251.945 159.263 252.382 159.283 252.869 159.215C253.351 159.139 253.822 158.969 254.279 158.705C254.882 158.357 255.268 157.954 255.437 157.496C255.614 157.034 255.572 156.577 255.312 156.127C255.024 155.628 254.619 155.359 254.097 155.318C253.582 155.274 252.884 155.506 252.004 156.014L250.456 156.908L248.724 153.044L252.704 150.746L253.088 151.411L249.763 153.331L250.851 155.793L251.787 155.253Z" fill="#232D42"/>
<path opacity="0.7" d="M154.892 319.265L159.074 326.509L158.128 327.055L153.946 319.811L154.892 319.265ZM159.348 319.797L161.286 323.153C161.446 323.43 161.619 323.594 161.804 323.644C161.986 323.687 162.223 323.624 162.514 323.456L163.21 323.054L163.672 323.854L162.82 324.346C162.293 324.65 161.828 324.757 161.425 324.666C161.022 324.576 160.66 324.254 160.34 323.699L158.402 320.343L157.664 320.769L157.214 319.989L157.952 319.563L157.124 318.129L158.07 317.583L158.898 319.017L160.384 318.159L160.834 318.939L159.348 319.797ZM168.59 316.927C168.694 317.107 168.794 317.304 168.889 317.517L164.337 320.145C164.696 320.686 165.14 321.016 165.671 321.134C166.204 321.242 166.72 321.152 167.219 320.864C167.628 320.628 167.913 320.338 168.076 319.995C168.241 319.641 168.287 319.273 168.214 318.89L169.232 318.302C169.396 318.938 169.349 319.561 169.091 320.171C168.83 320.774 168.36 321.272 167.681 321.664C167.141 321.976 166.586 322.135 166.016 322.14C165.454 322.142 164.923 321.991 164.425 321.688C163.922 321.377 163.501 320.928 163.161 320.339C162.821 319.75 162.641 319.166 162.62 318.586C162.6 318.007 162.733 317.477 163.019 316.998C163.309 316.507 163.731 316.102 164.285 315.782C164.825 315.47 165.372 315.312 165.923 315.307C166.475 315.303 166.982 315.445 167.443 315.732C167.908 316.009 168.29 316.407 168.59 316.927ZM167.499 317.293C167.291 316.933 167.034 316.671 166.726 316.507C166.415 316.335 166.083 316.264 165.73 316.292C165.379 316.31 165.038 316.414 164.706 316.606C164.227 316.882 163.907 317.271 163.743 317.772C163.587 318.268 163.64 318.801 163.904 319.369L167.499 317.293ZM175.455 309.319C175.899 309.063 176.348 308.929 176.802 308.916C177.253 308.896 177.684 309.011 178.097 309.263C178.51 309.514 178.869 309.903 179.173 310.429L181.111 313.786L180.175 314.326L178.315 311.104C177.987 310.536 177.595 310.185 177.139 310.051C176.686 309.906 176.22 309.972 175.742 310.248C175.251 310.532 174.951 310.917 174.844 311.404C174.733 311.884 174.85 312.422 175.194 313.017L177.006 316.156L176.07 316.696L174.21 313.474C173.882 312.906 173.49 312.555 173.034 312.421C172.581 312.276 172.116 312.342 171.637 312.618C171.146 312.902 170.846 313.287 170.739 313.774C170.628 314.254 170.745 314.792 171.089 315.387L172.901 318.526L171.955 319.072L168.667 313.377L169.613 312.831L170.087 313.652C170.102 313.246 170.219 312.873 170.439 312.534C170.666 312.191 170.969 311.909 171.351 311.689C171.829 311.413 172.313 311.276 172.804 311.279C173.296 311.282 173.751 311.439 174.171 311.751C174.099 311.257 174.182 310.793 174.421 310.36C174.66 309.926 175.005 309.579 175.455 309.319ZM182.703 305.37C182.383 304.705 182.341 304.064 182.576 303.448C182.812 302.832 183.283 302.32 183.99 301.912C184.461 301.64 184.916 301.492 185.356 301.469C185.798 301.436 186.19 301.514 186.531 301.705C186.879 301.892 187.159 302.169 187.371 302.537C187.619 302.966 187.708 303.409 187.639 303.865C187.577 304.316 187.374 304.701 187.031 305.019L187.061 305.071C187.575 304.922 188.058 304.934 188.509 305.108C188.961 305.282 189.338 305.632 189.642 306.158C189.87 306.553 189.986 306.962 189.99 307.385C189.99 307.8 189.862 308.202 189.605 308.59C189.349 308.979 188.968 309.319 188.462 309.611C187.728 310.035 187.015 310.192 186.324 310.083C185.629 309.967 185.05 309.572 184.586 308.897L185.501 308.369C185.789 308.757 186.155 308.998 186.598 309.094C187.041 309.189 187.505 309.096 187.99 308.816C188.475 308.536 188.77 308.2 188.876 307.806C188.984 307.402 188.922 306.999 188.69 306.597C188.39 306.077 188.001 305.803 187.522 305.775C187.044 305.746 186.455 305.934 185.755 306.338L185.516 306.476L185.06 305.686L185.31 305.542C185.943 305.167 186.365 304.785 186.574 304.396C186.78 304 186.759 303.588 186.511 303.158C186.299 302.791 186.007 302.566 185.637 302.485C185.273 302.399 184.87 302.484 184.426 302.74C183.997 302.988 183.714 303.299 183.579 303.673C183.444 304.046 183.46 304.434 183.628 304.836L182.703 305.37ZM190.222 303.413C189.534 302.221 189.192 301.181 189.195 300.292C189.195 299.396 189.68 298.668 190.65 298.108C191.613 297.552 192.483 297.498 193.259 297.946C194.031 298.387 194.761 299.203 195.449 300.395C196.149 301.607 196.499 302.661 196.499 303.557C196.499 304.453 196.017 305.18 195.054 305.736C194.084 306.296 193.211 306.351 192.435 305.903C191.66 305.455 190.922 304.625 190.222 303.413ZM194.514 300.935C194.166 300.332 193.83 299.847 193.507 299.479C193.187 299.1 192.828 298.855 192.43 298.743C192.04 298.626 191.613 298.702 191.148 298.97C190.677 299.242 190.391 299.578 190.29 299.979C190.195 300.375 190.228 300.808 190.389 301.279C190.553 301.739 190.809 302.27 191.157 302.873C191.517 303.496 191.857 303.997 192.177 304.376C192.504 304.751 192.863 304.996 193.254 305.112C193.651 305.225 194.085 305.145 194.556 304.873C195.021 304.605 195.3 304.273 195.394 303.876C195.496 303.476 195.463 303.043 195.295 302.576C195.134 302.105 194.874 301.558 194.514 300.935ZM204.919 300.137C204.441 300.413 203.964 300.578 203.487 300.632C203.012 300.674 202.582 300.609 202.195 300.435C201.804 300.254 201.492 299.968 201.257 299.577L202.265 298.995C202.495 299.315 202.8 299.522 203.178 299.618C203.56 299.703 203.986 299.609 204.457 299.337C204.908 299.077 205.197 298.762 205.325 298.392C205.456 298.012 205.42 297.645 205.216 297.291C205.056 297.014 204.85 296.833 204.597 296.748C204.345 296.663 204.079 296.641 203.798 296.683C203.517 296.725 203.153 296.806 202.705 296.926C202.155 297.077 201.698 297.175 201.335 297.218C200.979 297.257 200.621 297.205 200.262 297.062C199.905 296.908 199.596 296.605 199.336 296.155C199.108 295.76 199.007 295.352 199.032 294.931C199.056 294.511 199.201 294.113 199.465 293.739C199.737 293.36 200.108 293.035 200.579 292.763C201.258 292.371 201.91 292.221 202.536 292.313C203.168 292.4 203.674 292.708 204.053 293.238L203.014 293.838C202.82 293.58 202.534 293.422 202.158 293.362C201.777 293.295 201.376 293.384 200.953 293.628C200.558 293.856 200.296 294.146 200.167 294.498C200.033 294.843 200.073 295.199 200.285 295.566C200.437 295.829 200.633 296.002 200.875 296.084C201.123 296.162 201.381 296.185 201.648 296.151C201.917 296.106 202.282 296.025 202.741 295.908C203.295 295.763 203.755 295.673 204.122 295.637C204.485 295.593 204.849 295.647 205.212 295.797C205.572 295.94 205.884 296.241 206.148 296.698C206.352 297.051 206.451 297.438 206.444 297.857C206.437 298.277 206.305 298.69 206.05 299.096C205.795 299.502 205.418 299.849 204.919 300.137ZM207.017 295.005C206.681 294.423 206.505 293.845 206.488 293.273C206.468 292.693 206.592 292.165 206.861 291.686C207.136 291.204 207.527 290.816 208.033 290.524C208.532 290.236 209.027 290.094 209.518 290.096C210.009 290.099 210.439 290.211 210.807 290.433L210.207 289.394L211.163 288.842L214.451 294.537L213.495 295.089L212.883 294.029C212.888 294.469 212.767 294.908 212.521 295.346C212.278 295.773 211.91 296.128 211.419 296.412C210.913 296.704 210.384 296.844 209.831 296.83C209.278 296.817 208.754 296.653 208.258 296.339C207.763 296.024 207.349 295.58 207.017 295.005ZM211.845 292.231C211.597 291.801 211.294 291.477 210.937 291.259C210.58 291.04 210.204 290.933 209.81 290.939C209.419 290.934 209.047 291.033 208.694 291.237C208.341 291.441 208.066 291.71 207.872 292.045C207.677 292.379 207.584 292.755 207.595 293.174C207.606 293.593 207.735 294.017 207.983 294.447C208.235 294.883 208.542 295.214 208.903 295.44C209.26 295.658 209.635 295.77 210.026 295.776C210.412 295.774 210.783 295.671 211.136 295.467C211.489 295.263 211.763 294.994 211.958 294.66C212.156 294.314 212.25 293.932 212.239 293.514C212.224 293.088 212.093 292.66 211.845 292.231ZM212.901 285.178L217.341 292.868L216.396 293.414L211.956 285.724L212.901 285.178ZM222.726 285.672C222.83 285.852 222.929 286.049 223.024 286.261L218.473 288.889C218.831 289.431 219.276 289.761 219.806 289.879C220.34 289.987 220.856 289.897 221.354 289.609C221.763 289.373 222.049 289.083 222.211 288.74C222.376 288.386 222.422 288.018 222.349 287.635L223.367 287.047C223.531 287.683 223.484 288.305 223.227 288.916C222.966 289.519 222.495 290.017 221.816 290.409C221.276 290.721 220.721 290.88 220.152 290.885C219.589 290.887 219.058 290.736 218.56 290.433C218.057 290.122 217.636 289.673 217.296 289.084C216.956 288.495 216.776 287.911 216.755 287.331C216.735 286.752 216.868 286.222 217.155 285.743C217.444 285.252 217.866 284.847 218.42 284.527C218.961 284.215 219.507 284.057 220.059 284.052C220.61 284.048 221.117 284.19 221.579 284.477C222.043 284.754 222.426 285.152 222.726 285.672ZM221.635 286.038C221.427 285.678 221.169 285.416 220.862 285.251C220.55 285.08 220.218 285.009 219.865 285.037C219.515 285.055 219.173 285.159 218.841 285.351C218.363 285.627 218.042 286.016 217.879 286.517C217.722 287.013 217.776 287.546 218.039 288.114L221.635 286.038ZM228.16 286.746C227.724 286.998 227.291 287.152 226.86 287.206C226.426 287.254 226.032 287.204 225.679 287.057C225.322 286.902 225.033 286.658 224.813 286.324L225.789 285.76C225.981 286.028 226.247 286.184 226.586 286.228C226.933 286.268 227.3 286.176 227.688 285.952C228.048 285.744 228.286 285.501 228.402 285.221C228.518 284.942 228.506 284.681 228.366 284.438C228.222 284.189 228.005 284.069 227.715 284.08C227.422 284.083 227.009 284.16 226.477 284.31C225.99 284.443 225.58 284.532 225.245 284.577C224.914 284.612 224.587 284.574 224.265 284.464C223.946 284.343 223.681 284.1 223.469 283.732C223.301 283.441 223.234 283.125 223.267 282.782C223.3 282.44 223.436 282.107 223.675 281.785C223.909 281.455 224.231 281.172 224.64 280.936C225.27 280.572 225.871 280.438 226.443 280.532C227.015 280.627 227.475 280.944 227.823 281.482L226.877 282.028C226.684 281.742 226.425 281.573 226.1 281.521C225.781 281.465 225.438 281.543 225.071 281.755C224.731 281.951 224.503 282.179 224.386 282.441C224.269 282.702 224.279 282.951 224.415 283.186C224.523 283.373 224.671 283.495 224.861 283.552C225.054 283.598 225.262 283.607 225.487 283.579C225.714 283.54 226.016 283.472 226.394 283.374C226.866 283.249 227.263 283.168 227.583 283.131C227.9 283.087 228.21 283.12 228.514 283.231C228.825 283.337 229.084 283.562 229.291 283.904C229.471 284.216 229.546 284.547 229.517 284.896C229.488 285.246 229.356 285.585 229.121 285.915C228.889 286.233 228.569 286.51 228.16 286.746Z" fill="#232D42"/>
<circle cx="143.447" cy="330.706" r="4" transform="rotate(-30 143.447 330.706)" fill="#068F7D"/>
<path d="M172.796 338.431C173.038 338.852 173.158 339.311 173.154 339.808C173.154 340.294 173.014 340.779 172.734 341.264C172.457 341.736 172.047 342.156 171.505 342.523L172.072 343.505L171.296 343.953L170.722 342.959C169.871 343.353 169.081 343.486 168.35 343.358C167.614 343.223 167.033 342.804 166.606 342.102L168.424 341.052C168.809 341.606 169.311 341.785 169.931 341.589L168.594 339.273C167.928 339.464 167.375 339.589 166.935 339.649C166.495 339.708 166.053 339.651 165.608 339.477C165.162 339.303 164.779 338.938 164.457 338.38C164.051 337.677 163.97 336.958 164.214 336.224C164.467 335.486 164.975 334.853 165.738 334.326L165.171 333.344L165.947 332.896L166.514 333.878C167.327 333.495 168.08 333.372 168.775 333.511C169.477 333.644 170.061 334.05 170.529 334.729L168.698 335.786C168.538 335.565 168.337 335.412 168.093 335.327C167.853 335.228 167.595 335.21 167.319 335.273L168.642 337.564C169.336 337.368 169.9 337.242 170.331 337.187C170.766 337.119 171.206 337.172 171.652 337.346C172.092 337.512 172.474 337.874 172.796 338.431ZM166.178 337.273C166.332 337.54 166.539 337.711 166.798 337.788C167.053 337.856 167.365 337.854 167.733 337.782L166.522 335.684C166.254 335.893 166.087 336.135 166.019 336.411C165.952 336.686 166.005 336.974 166.178 337.273ZM170.721 341.165C170.995 340.931 171.161 340.668 171.219 340.376C171.285 340.08 171.238 339.794 171.08 339.519C170.926 339.252 170.717 339.087 170.454 339.023C170.191 338.96 169.871 338.966 169.496 339.043L170.721 341.165ZM176.814 336.047C177.084 336.365 177.388 336.556 177.726 336.619C178.068 336.67 178.433 336.583 178.821 336.359C179.322 336.07 179.567 335.654 179.555 335.111C179.539 334.56 179.246 333.791 178.677 332.805C178.64 333.171 178.494 333.525 178.238 333.866C177.991 334.203 177.673 334.484 177.285 334.708C176.768 335.006 176.239 335.172 175.697 335.204C175.159 335.224 174.647 335.094 174.162 334.813C173.672 334.525 173.252 334.078 172.902 333.472C172.384 332.574 172.24 331.709 172.47 330.876C172.696 330.034 173.269 329.347 174.191 328.815C175.339 328.153 176.359 328.054 177.253 328.519C178.154 328.979 179.032 329.949 179.886 331.428C180.493 332.479 180.897 333.393 181.098 334.171C181.308 334.945 181.29 335.634 181.047 336.238C180.811 336.838 180.313 337.357 179.553 337.795C178.955 338.141 178.38 338.322 177.829 338.338C177.274 338.346 176.776 338.23 176.335 337.989C175.897 337.735 175.531 337.391 175.238 336.957L176.814 336.047ZM176.839 333.122C177.259 332.88 177.516 332.559 177.609 332.16C177.702 331.762 177.623 331.344 177.371 330.908C177.096 330.431 176.754 330.138 176.346 330.028C175.941 329.906 175.521 329.971 175.084 330.223C174.648 330.475 174.38 330.813 174.28 331.237C174.183 331.649 174.263 332.077 174.52 332.521C174.767 332.95 175.091 333.231 175.493 333.366C175.897 333.488 176.346 333.407 176.839 333.122ZM185.009 325.786C184.732 325.494 184.444 325.321 184.144 325.268C183.852 325.21 183.52 325.288 183.148 325.503C182.591 325.825 182.309 326.289 182.304 326.896C182.302 327.49 182.588 328.294 183.163 329.309C183.171 328.874 183.309 328.46 183.578 328.068C183.843 327.667 184.193 327.341 184.63 327.089C185.155 326.785 185.685 326.63 186.22 326.623C186.755 326.616 187.261 326.766 187.74 327.071C188.213 327.369 188.625 327.821 188.975 328.427C189.306 329.001 189.486 329.582 189.512 330.17C189.543 330.745 189.408 331.287 189.108 331.794C188.808 332.301 188.351 332.732 187.737 333.087C186.896 333.572 186.126 333.769 185.426 333.677C184.735 333.58 184.101 333.257 183.524 332.706C182.951 332.142 182.382 331.372 181.817 330.394C180.963 328.914 180.574 327.652 180.649 326.606C180.72 325.553 181.305 324.708 182.404 324.074C183.253 323.584 184.044 323.434 184.779 323.624C185.514 323.814 186.116 324.231 186.585 324.876L185.009 325.786ZM185.047 328.707C184.618 328.954 184.331 329.287 184.185 329.706C184.038 330.124 184.103 330.572 184.378 331.049C184.653 331.526 185.004 331.825 185.429 331.946C185.863 332.062 186.326 331.977 186.819 331.693C187.255 331.441 187.522 331.109 187.619 330.698C187.723 330.282 187.645 329.847 187.384 329.395C187.113 328.926 186.773 328.626 186.364 328.496C185.963 328.361 185.524 328.432 185.047 328.707ZM191.819 328.143C192.222 327.049 192.53 326.154 192.743 325.46C192.952 324.757 193.075 324.083 193.111 323.437C193.147 322.791 193.035 322.241 192.774 321.789C192.536 321.376 192.252 321.109 191.923 320.987C191.593 320.864 191.227 320.92 190.823 321.153C190.418 321.386 190.187 321.703 190.127 322.104C190.063 322.497 190.162 322.93 190.424 323.404L188.776 324.356C188.248 323.367 188.11 322.466 188.362 321.652C188.623 320.833 189.173 320.182 190.014 319.696C190.935 319.164 191.785 319.002 192.563 319.211C193.336 319.411 193.953 319.911 194.415 320.712C194.779 321.342 194.957 322.042 194.949 322.812C194.941 323.582 194.842 324.307 194.653 324.987C194.459 325.66 194.183 326.498 193.825 327.502L197.402 325.437L198.214 326.844L192.225 330.302L191.497 329.041L191.819 328.143ZM200.729 325.666C200.422 325.844 200.114 325.898 199.805 325.828C199.499 325.746 199.264 325.564 199.101 325.281C198.937 324.998 198.899 324.708 198.986 324.41C199.076 324.099 199.274 323.855 199.581 323.678C199.881 323.505 200.183 323.46 200.489 323.542C200.79 323.616 201.023 323.794 201.186 324.077C201.349 324.36 201.39 324.654 201.308 324.96C201.221 325.258 201.029 325.494 200.729 325.666ZM199.531 317.564C199.104 316.733 199.028 315.947 199.301 315.207C199.578 314.454 200.149 313.829 201.014 313.329C201.604 312.989 202.17 312.802 202.711 312.769C203.248 312.729 203.725 312.826 204.14 313.06C204.559 313.282 204.897 313.615 205.153 314.059C205.447 314.568 205.564 315.078 205.502 315.587C205.444 316.084 205.268 316.498 204.975 316.83L205.003 316.878C205.556 316.753 206.069 316.802 206.542 317.024C207.023 317.242 207.432 317.642 207.768 318.224C208.048 318.709 208.185 319.207 208.178 319.717C208.179 320.223 208.024 320.711 207.713 321.181C207.406 321.639 206.95 322.043 206.344 322.393C205.43 322.92 204.554 323.119 203.714 322.989C202.874 322.86 202.179 322.356 201.628 321.478L203.277 320.526C203.522 320.912 203.84 321.155 204.23 321.252C204.624 321.337 205.044 321.252 205.488 320.995C205.9 320.757 206.15 320.462 206.238 320.11C206.329 319.744 206.269 319.38 206.059 319.016C205.779 318.531 205.425 318.272 204.997 318.24C204.568 318.207 204.031 318.377 203.384 318.75L203.032 318.953L202.227 317.559L202.579 317.356C203.727 316.693 204.079 315.978 203.636 315.21C203.435 314.863 203.174 314.653 202.851 314.58C202.537 314.503 202.186 314.576 201.798 314.8C201.418 315.019 201.184 315.295 201.095 315.626C201.01 315.945 201.042 316.271 201.192 316.605L199.531 317.564ZM211.434 316.059C211.704 316.377 212.008 316.568 212.346 316.631C212.688 316.682 213.053 316.595 213.441 316.371C213.942 316.082 214.186 315.666 214.175 315.123C214.158 314.572 213.866 313.803 213.296 312.817C213.26 313.183 213.114 313.537 212.858 313.879C212.611 314.215 212.293 314.496 211.905 314.72C211.388 315.018 210.858 315.184 210.317 315.217C209.778 315.236 209.267 315.106 208.782 314.826C208.292 314.537 207.872 314.09 207.522 313.484C207.004 312.587 206.86 311.721 207.09 310.888C207.316 310.046 207.889 309.36 208.81 308.828C209.958 308.165 210.979 308.066 211.872 308.531C212.774 308.991 213.652 309.961 214.506 311.44C215.112 312.491 215.516 313.405 215.718 314.184C215.927 314.957 215.91 315.646 215.666 316.25C215.43 316.85 214.933 317.369 214.173 317.808C213.575 318.153 213 318.334 212.449 318.35C211.894 318.358 211.395 318.242 210.954 318.001C210.517 317.747 210.151 317.403 209.857 316.969L211.434 316.059ZM211.459 313.135C211.879 312.892 212.136 312.571 212.229 312.173C212.322 311.774 212.243 311.356 211.991 310.92C211.715 310.443 211.374 310.15 210.966 310.041C210.561 309.919 210.141 309.984 209.704 310.236C209.268 310.488 208.999 310.826 208.899 311.25C208.803 311.661 208.883 312.089 209.14 312.534C209.387 312.962 209.711 313.244 210.112 313.379C210.517 313.501 210.966 313.419 211.459 313.135Z" fill="#232D42"/>
<path opacity="0.7" d="M262.279 257.265L266.461 264.509L265.515 265.055L261.333 257.811L262.279 257.265ZM266.734 257.797L268.672 261.153C268.832 261.43 269.005 261.594 269.191 261.644C269.373 261.687 269.609 261.624 269.9 261.456L270.597 261.054L271.059 261.854L270.206 262.346C269.68 262.65 269.215 262.757 268.812 262.666C268.408 262.576 268.047 262.254 267.727 261.699L265.789 258.343L265.051 258.769L264.601 257.989L265.339 257.563L264.511 256.129L265.456 255.583L266.284 257.017L267.771 256.159L268.221 256.939L266.734 257.797ZM275.977 254.927C276.081 255.107 276.181 255.304 276.276 255.517L271.724 258.145C272.083 258.686 272.527 259.016 273.058 259.134C273.591 259.242 274.107 259.152 274.606 258.864C275.015 258.628 275.3 258.338 275.462 257.995C275.627 257.641 275.673 257.273 275.6 256.89L276.619 256.302C276.782 256.938 276.735 257.561 276.478 258.171C276.217 258.774 275.747 259.272 275.068 259.664C274.527 259.976 273.972 260.135 273.403 260.14C272.84 260.142 272.31 259.991 271.811 259.688C271.309 259.377 270.887 258.928 270.547 258.339C270.207 257.75 270.027 257.166 270.007 256.586C269.986 256.007 270.119 255.477 270.406 254.998C270.696 254.507 271.118 254.102 271.672 253.782C272.212 253.47 272.758 253.312 273.31 253.307C273.862 253.303 274.368 253.445 274.83 253.732C275.295 254.009 275.677 254.407 275.977 254.927ZM274.886 255.293C274.678 254.933 274.42 254.671 274.113 254.507C273.802 254.335 273.469 254.264 273.116 254.292C272.766 254.31 272.425 254.414 272.092 254.606C271.614 254.882 271.293 255.271 271.13 255.772C270.973 256.268 271.027 256.801 271.29 257.369L274.886 255.293ZM282.842 247.319C283.286 247.063 283.735 246.929 284.189 246.916C284.639 246.896 285.071 247.011 285.484 247.263C285.897 247.514 286.255 247.903 286.559 248.429L288.497 251.786L287.562 252.326L285.702 249.104C285.374 248.536 284.982 248.185 284.526 248.051C284.073 247.906 283.607 247.972 283.129 248.248C282.637 248.532 282.338 248.917 282.231 249.404C282.12 249.884 282.236 250.422 282.58 251.017L284.392 254.156L283.457 254.696L281.597 251.474C281.269 250.906 280.877 250.555 280.421 250.421C279.968 250.276 279.502 250.342 279.024 250.618C278.532 250.902 278.233 251.287 278.126 251.774C278.015 252.254 278.131 252.792 278.475 253.387L280.287 256.526L279.342 257.072L276.054 251.377L276.999 250.831L277.473 251.652C277.488 251.246 277.606 250.873 277.826 250.534C278.052 250.191 278.356 249.909 278.737 249.689C279.215 249.413 279.7 249.276 280.191 249.279C280.682 249.282 281.138 249.439 281.558 249.751C281.485 249.257 281.569 248.793 281.808 248.36C282.047 247.926 282.392 247.579 282.842 247.319ZM289.267 242.474L288.769 241.611L290.722 240.483L295.06 247.997L294.104 248.549L290.264 241.898L289.267 242.474ZM295.837 245.318L295.423 244.601L296.154 237.444L297.287 236.79L300.143 241.737L301.182 241.137L301.656 241.958L300.617 242.558L301.583 244.231L300.648 244.771L299.682 243.098L295.837 245.318ZM296.963 238.293L296.454 243.867L299.249 242.253L296.963 238.293ZM309.525 239.743C309.047 240.019 308.57 240.183 308.092 240.237C307.618 240.28 307.188 240.214 306.801 240.04C306.41 239.86 306.098 239.574 305.863 239.183L306.871 238.601C307.101 238.92 307.406 239.128 307.784 239.223C308.166 239.308 308.592 239.214 309.063 238.942C309.513 238.682 309.803 238.367 309.931 237.998C310.062 237.617 310.026 237.25 309.822 236.897C309.662 236.62 309.456 236.439 309.203 236.353C308.951 236.268 308.684 236.246 308.404 236.288C308.123 236.33 307.759 236.411 307.311 236.531C306.761 236.683 306.304 236.78 305.941 236.823C305.585 236.863 305.227 236.811 304.868 236.667C304.511 236.513 304.202 236.211 303.942 235.761C303.714 235.366 303.613 234.958 303.638 234.537C303.662 234.116 303.807 233.719 304.071 233.344C304.343 232.966 304.714 232.641 305.185 232.369C305.864 231.977 306.516 231.827 307.142 231.918C307.774 232.006 308.28 232.314 308.659 232.843L307.62 233.443C307.426 233.186 307.14 233.027 306.764 232.968C306.383 232.901 305.982 232.989 305.559 233.233C305.164 233.461 304.902 233.751 304.773 234.103C304.639 234.448 304.679 234.804 304.891 235.171C305.043 235.435 305.239 235.607 305.481 235.69C305.729 235.768 305.987 235.79 306.254 235.756C306.523 235.711 306.888 235.63 307.347 235.513C307.901 235.369 308.361 235.278 308.728 235.242C309.091 235.199 309.455 235.252 309.818 235.402C310.178 235.546 310.49 235.846 310.754 236.303C310.958 236.657 311.057 237.043 311.05 237.463C311.042 237.883 310.911 238.296 310.656 238.702C310.401 239.108 310.024 239.455 309.525 239.743ZM311.623 234.61C311.287 234.028 311.111 233.451 311.094 232.878C311.074 232.299 311.198 231.77 311.467 231.292C311.742 230.809 312.133 230.422 312.639 230.13C313.138 229.842 313.633 229.699 314.124 229.702C314.615 229.705 315.045 229.817 315.413 230.039L314.813 228.999L315.769 228.447L319.057 234.142L318.101 234.694L317.489 233.634C317.494 234.075 317.373 234.514 317.127 234.952C316.884 235.378 316.516 235.734 316.025 236.018C315.519 236.31 314.989 236.449 314.437 236.436C313.884 236.422 313.36 236.258 312.864 235.944C312.369 235.63 311.955 235.185 311.623 234.61ZM316.451 231.836C316.203 231.407 315.9 231.083 315.543 230.864C315.186 230.645 314.81 230.539 314.416 230.545C314.025 230.539 313.653 230.639 313.3 230.843C312.947 231.047 312.672 231.316 312.477 231.65C312.282 231.984 312.19 232.361 312.201 232.78C312.212 233.198 312.341 233.622 312.589 234.052C312.841 234.489 313.148 234.82 313.509 235.045C313.866 235.264 314.24 235.376 314.631 235.381C315.018 235.379 315.389 235.276 315.742 235.072C316.095 234.868 316.369 234.599 316.564 234.265C316.762 233.92 316.856 233.538 316.845 233.119C316.83 232.694 316.699 232.266 316.451 231.836ZM317.507 224.783L321.947 232.474L321.002 233.02L316.562 225.329L317.507 224.783ZM327.332 225.277C327.436 225.457 327.535 225.654 327.63 225.867L323.079 228.495C323.437 229.036 323.882 229.366 324.412 229.485C324.946 229.592 325.462 229.502 325.96 229.214C326.369 228.978 326.655 228.689 326.817 228.346C326.982 227.992 327.028 227.623 326.955 227.241L327.973 226.653C328.137 227.288 328.09 227.911 327.833 228.521C327.572 229.125 327.101 229.623 326.422 230.015C325.882 230.327 325.327 230.485 324.758 230.491C324.195 230.492 323.664 230.341 323.166 230.038C322.663 229.728 322.242 229.278 321.902 228.689C321.562 228.1 321.382 227.516 321.361 226.937C321.341 226.357 321.474 225.828 321.761 225.348C322.05 224.858 322.472 224.453 323.026 224.133C323.567 223.821 324.113 223.662 324.665 223.658C325.216 223.653 325.723 223.795 326.185 224.083C326.649 224.36 327.032 224.758 327.332 225.277ZM326.241 225.644C326.033 225.284 325.775 225.021 325.468 224.857C325.156 224.686 324.824 224.614 324.471 224.643C324.121 224.66 323.779 224.765 323.447 224.957C322.969 225.233 322.648 225.621 322.485 226.122C322.328 226.619 322.381 227.151 322.645 227.72L326.241 225.644ZM332.766 226.352C332.33 226.604 331.897 226.757 331.466 226.812C331.032 226.859 330.638 226.809 330.285 226.662C329.928 226.508 329.639 226.264 329.419 225.929L330.395 225.365C330.587 225.633 330.853 225.789 331.192 225.833C331.539 225.874 331.906 225.782 332.294 225.558C332.654 225.35 332.892 225.106 333.008 224.827C333.124 224.547 333.112 224.286 332.972 224.044C332.828 223.794 332.611 223.675 332.321 223.685C332.028 223.688 331.615 223.765 331.083 223.915C330.596 224.049 330.186 224.138 329.851 224.183C329.52 224.217 329.193 224.179 328.871 224.07C328.552 223.949 328.287 223.705 328.075 223.338C327.907 223.047 327.839 222.73 327.873 222.388C327.906 222.045 328.042 221.713 328.281 221.39C328.515 221.061 328.837 220.778 329.246 220.542C329.876 220.178 330.477 220.043 331.049 220.138C331.621 220.233 332.081 220.549 332.429 221.087L331.483 221.633C331.29 221.347 331.031 221.178 330.705 221.126C330.387 221.07 330.044 221.148 329.677 221.36C329.337 221.556 329.109 221.785 328.992 222.046C328.875 222.308 328.885 222.556 329.021 222.792C329.129 222.979 329.277 223.101 329.467 223.158C329.66 223.203 329.868 223.212 330.092 223.184C330.32 223.146 330.622 223.077 331 222.98C331.472 222.854 331.869 222.773 332.189 222.736C332.506 222.692 332.816 222.725 333.12 222.836C333.431 222.943 333.69 223.167 333.897 223.51C334.077 223.822 334.152 224.152 334.123 224.502C334.094 224.851 333.962 225.191 333.727 225.52C333.495 225.839 333.175 226.116 332.766 226.352Z" fill="#232D42"/>
<circle cx="250.833" cy="268.706" r="4" transform="rotate(-30 250.833 268.706)" fill="#DFD5FE"/>
<path d="M279.182 274.699C279.425 275.12 279.545 275.579 279.541 276.076C279.541 276.561 279.401 277.047 279.12 277.532C278.843 278.004 278.434 278.424 277.891 278.791L278.458 279.773L277.682 280.221L277.108 279.227C276.258 279.621 275.467 279.754 274.736 279.626C274.001 279.491 273.419 279.072 272.992 278.37L274.811 277.32C275.196 277.874 275.698 278.053 276.317 277.857L274.98 275.541C274.314 275.732 273.762 275.857 273.322 275.917C272.882 275.976 272.44 275.919 271.994 275.745C271.549 275.571 271.165 275.205 270.843 274.648C270.437 273.945 270.357 273.226 270.601 272.492C270.854 271.754 271.361 271.121 272.124 270.594L271.557 269.612L272.333 269.164L272.9 270.146C273.714 269.763 274.467 269.64 275.161 269.778C275.863 269.912 276.448 270.318 276.915 270.997L275.085 272.054C274.925 271.833 274.723 271.68 274.48 271.594C274.24 271.496 273.982 271.478 273.705 271.541L275.028 273.832C275.723 273.636 276.286 273.51 276.718 273.455C277.153 273.387 277.593 273.44 278.038 273.614C278.479 273.78 278.86 274.141 279.182 274.699ZM272.565 273.541C272.719 273.808 272.925 273.979 273.185 274.056C273.44 274.124 273.751 274.122 274.119 274.05L272.908 271.952C272.641 272.161 272.473 272.403 272.406 272.679C272.339 272.954 272.392 273.242 272.565 273.541ZM277.107 277.433C277.382 277.199 277.548 276.936 277.606 276.644C277.671 276.348 277.625 276.062 277.466 275.787C277.312 275.52 277.104 275.355 276.841 275.291C276.578 275.228 276.258 275.234 275.882 275.311L277.107 277.433ZM283.201 272.315C283.471 272.633 283.775 272.824 284.113 272.887C284.455 272.938 284.82 272.851 285.208 272.627C285.709 272.338 285.953 271.922 285.942 271.379C285.925 270.828 285.633 270.059 285.063 269.073C285.027 269.439 284.881 269.793 284.625 270.134C284.378 270.471 284.06 270.751 283.672 270.975C283.155 271.274 282.625 271.44 282.084 271.472C281.545 271.492 281.034 271.362 280.549 271.081C280.059 270.793 279.639 270.346 279.289 269.739C278.771 268.842 278.627 267.977 278.857 267.144C279.083 266.302 279.656 265.615 280.577 265.083C281.725 264.421 282.746 264.322 283.639 264.787C284.541 265.247 285.419 266.217 286.273 267.696C286.879 268.747 287.283 269.661 287.485 270.439C287.694 271.213 287.677 271.902 287.433 272.506C287.197 273.105 286.7 273.625 285.94 274.063C285.342 274.409 284.767 274.589 284.216 274.606C283.661 274.614 283.162 274.498 282.721 274.256C282.284 274.003 281.918 273.659 281.624 273.225L283.201 272.315ZM283.226 269.39C283.646 269.148 283.903 268.827 283.996 268.428C284.089 268.03 284.01 267.612 283.758 267.176C283.482 266.699 283.141 266.406 282.733 266.296C282.328 266.174 281.908 266.239 281.471 266.491C281.035 266.743 280.766 267.081 280.666 267.505C280.57 267.917 280.65 268.345 280.907 268.789C281.154 269.218 281.478 269.499 281.879 269.634C282.284 269.756 282.733 269.675 283.226 269.39ZM291.396 262.054C291.119 261.761 290.831 261.589 290.531 261.535C290.239 261.478 289.907 261.556 289.535 261.771C288.977 262.093 288.696 262.557 288.69 263.164C288.688 263.758 288.975 264.562 289.55 265.577C289.558 265.142 289.696 264.728 289.965 264.335C290.229 263.935 290.58 263.609 291.016 263.357C291.542 263.053 292.072 262.898 292.607 262.891C293.141 262.884 293.648 263.033 294.126 263.339C294.6 263.637 295.012 264.089 295.362 264.695C295.693 265.269 295.872 265.85 295.899 266.438C295.93 267.013 295.795 267.554 295.495 268.062C295.195 268.569 294.738 269 294.124 269.355C293.283 269.84 292.513 270.037 291.813 269.945C291.122 269.848 290.488 269.525 289.911 268.974C289.338 268.41 288.769 267.64 288.204 266.662C287.35 265.182 286.961 263.92 287.036 262.874C287.106 261.82 287.691 260.976 288.791 260.342C289.639 259.852 290.431 259.702 291.166 259.892C291.901 260.082 292.503 260.499 292.972 261.144L291.396 262.054ZM291.433 264.975C291.005 265.222 290.718 265.555 290.571 265.974C290.425 266.392 290.489 266.84 290.765 267.317C291.04 267.794 291.391 268.093 291.816 268.214C292.249 268.33 292.713 268.245 293.206 267.961C293.642 267.709 293.909 267.377 294.005 266.966C294.11 266.55 294.032 266.115 293.77 265.663C293.5 265.194 293.16 264.894 292.75 264.764C292.349 264.629 291.91 264.7 291.433 264.975ZM298.206 264.411C298.609 263.316 298.917 262.422 299.13 261.728C299.339 261.025 299.461 260.351 299.498 259.705C299.534 259.058 299.422 258.509 299.16 258.056C298.922 257.644 298.639 257.377 298.309 257.255C297.98 257.132 297.613 257.188 297.209 257.421C296.805 257.654 296.573 257.971 296.514 258.372C296.449 258.765 296.549 259.198 296.811 259.671L295.162 260.623C294.635 259.635 294.497 258.734 294.749 257.92C295.009 257.101 295.56 256.449 296.401 255.964C297.322 255.432 298.172 255.27 298.949 255.479C299.722 255.679 300.34 256.179 300.802 256.979C301.166 257.61 301.344 258.31 301.336 259.08C301.327 259.85 301.229 260.575 301.04 261.255C300.846 261.928 300.57 262.766 300.212 263.77L303.789 261.705L304.601 263.112L298.611 266.57L297.883 265.309L298.206 264.411ZM307.116 261.934C306.809 262.111 306.501 262.165 306.191 262.096C305.885 262.014 305.651 261.832 305.487 261.549C305.324 261.266 305.286 260.976 305.372 260.678C305.462 260.367 305.661 260.123 305.968 259.946C306.267 259.773 306.57 259.728 306.876 259.81C307.177 259.884 307.409 260.062 307.573 260.345C307.736 260.628 307.777 260.922 307.695 261.228C307.608 261.526 307.415 261.761 307.116 261.934ZM305.917 253.832C305.491 253 305.415 252.215 305.688 251.475C305.965 250.722 306.536 250.096 307.4 249.597C307.991 249.256 308.556 249.07 309.098 249.037C309.635 248.997 310.111 249.094 310.527 249.328C310.946 249.549 311.283 249.883 311.54 250.327C311.834 250.836 311.95 251.346 311.889 251.855C311.831 252.352 311.655 252.766 311.361 253.098L311.389 253.146C311.942 253.021 312.455 253.07 312.929 253.292C313.41 253.51 313.819 253.91 314.155 254.492C314.435 254.977 314.571 255.474 314.564 255.985C314.565 256.491 314.411 256.979 314.1 257.449C313.793 257.907 313.336 258.31 312.73 258.66C311.817 259.188 310.94 259.387 310.1 259.257C309.26 259.128 308.565 258.624 308.015 257.746L309.664 256.794C309.909 257.18 310.226 257.423 310.617 257.52C311.011 257.605 311.43 257.52 311.875 257.263C312.287 257.025 312.537 256.73 312.625 256.377C312.716 256.012 312.656 255.648 312.446 255.284C312.166 254.799 311.812 254.54 311.383 254.508C310.955 254.475 310.417 254.645 309.771 255.018L309.419 255.221L308.614 253.827L308.966 253.624C310.113 252.961 310.466 252.246 310.022 251.478C309.822 251.131 309.56 250.921 309.238 250.848C308.924 250.771 308.573 250.844 308.185 251.068C307.805 251.287 307.571 251.563 307.482 251.894C307.397 252.213 307.429 252.539 307.578 252.873L305.917 253.832ZM317.82 252.327C318.09 252.645 318.394 252.836 318.733 252.899C319.074 252.95 319.439 252.863 319.827 252.639C320.328 252.35 320.573 251.934 320.562 251.391C320.545 250.84 320.252 250.071 319.683 249.085C319.646 249.451 319.5 249.805 319.245 250.146C318.998 250.483 318.68 250.764 318.292 250.988C317.775 251.286 317.245 251.452 316.703 251.484C316.165 251.504 315.653 251.374 315.168 251.094C314.679 250.805 314.259 250.358 313.909 249.752C313.391 248.855 313.247 247.989 313.477 247.156C313.702 246.314 314.276 245.628 315.197 245.096C316.345 244.433 317.366 244.334 318.259 244.799C319.161 245.259 320.038 246.229 320.892 247.708C321.499 248.759 321.903 249.673 322.105 250.452C322.314 251.225 322.297 251.914 322.053 252.518C321.817 253.118 321.319 253.637 320.56 254.076C319.961 254.421 319.387 254.602 318.836 254.618C318.28 254.626 317.782 254.51 317.341 254.269C316.903 254.015 316.538 253.671 316.244 253.237L317.82 252.327ZM317.845 249.403C318.266 249.16 318.522 248.839 318.616 248.441C318.709 248.042 318.629 247.624 318.377 247.188C318.102 246.711 317.76 246.418 317.352 246.309C316.948 246.186 316.527 246.251 316.091 246.503C315.654 246.755 315.386 247.094 315.286 247.518C315.19 247.929 315.27 248.357 315.526 248.802C315.774 249.23 316.098 249.512 316.499 249.646C316.904 249.769 317.352 249.687 317.845 249.403Z" fill="#232D42"/>
</g>
<defs>
<filter id="filter0_d_1_3740" x="-116.684" y="0.508453" width="582.43" height="554.181" filterUnits="userSpaceOnUse" color-interpolation-filters="sRGB">
<feFlood flood-opacity="0" result="BackgroundImageFix"/>
<feColorMatrix in="SourceAlpha" type="matrix" values="0 0 0 0 0 0 0 0 0 0 0 0 0 0 0 0 0 0 127 0" result="hardAlpha"/>
<feOffset dx="-40" dy="40"/>
<feGaussianBlur stdDeviation="65"/>
<feColorMatrix type="matrix" values="0 0 0 0 0.62862 0 0 0 0 0.557604 0 0 0 0 0.841667 0 0 0 0.18 0"/>
<feBlend mode="normal" in2="BackgroundImageFix" result="effect1_dropShadow_1_3740"/>
<feBlend mode="normal" in="SourceGraphic" in2="effect1_dropShadow_1_3740" result="shape"/>
</filter>
<filter id="filter1_d_1_3740" x="210.803" y="133.387" width="70.1113" height="62.9362" filterUnits="userSpaceOnUse" color-interpolation-filters="sRGB">
<feFlood flood-opacity="0" result="BackgroundImageFix"/>
<feColorMatrix in="SourceAlpha" type="matrix" values="0 0 0 0 0 0 0 0 0 0 0 0 0 0 0 0 0 0 127 0" result="hardAlpha"/>
<feOffset dy="6"/>
<feGaussianBlur stdDeviation="5"/>
<feColorMatrix type="matrix" values="0 0 0 0 0.863571 0 0 0 0 0.82875 0 0 0 0 0.975 0 0 0 0.4 0"/>
<feBlend mode="normal" in2="BackgroundImageFix" result="effect1_dropShadow_1_3740"/>
<feBlend mode="normal" in="SourceGraphic" in2="effect1_dropShadow_1_3740" result="shape"/>
</filter>
</defs>
</svg>
