<svg width="737" height="640" viewBox="0 0 737 640" fill="none" xmlns="http://www.w3.org/2000/svg">
<g filter="url(#filter0_d_1_3739)">
<rect x="46" y="305.69" width="274.996" height="197.82" rx="20" transform="rotate(-30 46 305.69)" fill="white"/>
</g>
<mask id="mask0_1_3739" style="mask-type:alpha" maskUnits="userSpaceOnUse" x="53" y="175" width="324" height="295">
<rect x="46.332" y="305.498" width="274.996" height="197.82" rx="20" transform="rotate(-30 46.332 305.498)" fill="white"/>
</mask>
<g mask="url(#mask0_1_3739)">
<path d="M99.2402 403.907L102.886 374.804L120.788 364.468L118.108 316.829L131.335 298.395L146.836 282.247L181.558 299.39L193.747 279.157L200.936 248.613L233.904 264.37L237.457 227.527L278.413 255.468L296.835 246.032L310.778 227.185L343.226 242.042L367.559 241.19" stroke="#068F7D" stroke-width="2"/>
<path d="M92.5802 399.95L101.329 372.105L125.465 372.566L133.693 343.822L140.687 314.591L167.617 318.238L164.417 269.698L190.112 272.859L227.951 295.401L244.814 283.265L258.238 263.518L276.856 252.769L302.551 255.929L330 260.476L348.942 251.94L367.56 241.19" stroke="#FB4C5C" stroke-width="2"/>
<g filter="url(#filter1_d_1_3739)">
<path d="M221.34 247.388C220.235 245.475 220.891 243.028 222.804 241.924L255.713 222.924C257.626 221.819 260.072 222.475 261.177 224.388L270.377 240.323C271.482 242.236 270.826 244.682 268.913 245.787L258.149 252.001L255.758 261.003L246.767 258.573L236.004 264.787C234.091 265.891 231.644 265.236 230.54 263.323L221.34 247.388Z" fill="#F7F4FD"/>
<path d="M257.899 251.568L257.72 251.672L257.666 251.873L255.404 260.389L246.898 258.09L246.697 258.036L246.517 258.14L235.754 264.354C234.08 265.32 231.939 264.747 230.973 263.073L221.773 247.138C220.806 245.464 221.38 243.323 223.054 242.357L255.963 223.357C257.637 222.39 259.778 222.964 260.744 224.638L269.944 240.573C270.91 242.247 270.337 244.387 268.663 245.354L257.899 251.568Z" stroke="#E8E0FF"/>
</g>
<path d="M243.612 248.132C243.92 248.665 243.977 249.237 243.785 249.847C243.588 250.45 243.107 251.001 242.341 251.498L243.031 252.693L242.511 252.993L241.827 251.809C241.305 252.073 240.771 252.252 240.225 252.346C239.682 252.428 239.206 252.412 238.797 252.297L238.757 251.531C239.135 251.626 239.565 251.642 240.045 251.577C240.531 251.508 240.998 251.364 241.443 251.144L239.865 248.41C239.319 248.569 238.849 248.674 238.454 248.726C238.055 248.772 237.675 248.728 237.312 248.596C236.952 248.453 236.648 248.166 236.4 247.737C236.092 247.203 236.028 246.644 236.208 246.06C236.384 245.469 236.835 244.922 237.561 244.42L236.871 243.225L237.391 242.925L238.075 244.109C238.478 243.895 238.897 243.741 239.332 243.647C239.77 243.542 240.178 243.505 240.556 243.536L240.651 244.299C240.263 244.283 239.879 244.315 239.501 244.395C239.122 244.475 238.773 244.598 238.453 244.764L240.043 247.518C240.628 247.347 241.121 247.233 241.522 247.177C241.92 247.113 242.306 247.149 242.679 247.285C243.053 247.42 243.364 247.702 243.612 248.132ZM237.147 247.278C237.355 247.638 237.644 247.836 238.016 247.871C238.394 247.902 238.87 247.839 239.445 247.683L237.945 245.085C237.457 245.422 237.151 245.788 237.027 246.183C236.907 246.566 236.947 246.931 237.147 247.278ZM241.963 250.844C242.486 250.486 242.82 250.113 242.966 249.724C243.111 249.336 243.081 248.965 242.877 248.611C242.661 248.237 242.357 248.039 241.965 248.016C241.573 247.992 241.072 248.069 240.463 248.245L241.963 250.844ZM250.683 245.726L251.067 246.391L245.964 249.337L245.658 248.807L246.973 244.099C247.138 243.505 247.208 243.035 247.184 242.689C247.162 242.331 247.071 242.014 246.911 241.737C246.663 241.308 246.323 241.061 245.889 240.998C245.458 240.923 244.968 241.044 244.421 241.36C243.569 241.852 243.063 242.504 242.904 243.316L242.11 243.165C242.202 242.669 242.415 242.204 242.747 241.772C243.086 241.336 243.533 240.958 244.087 240.638C244.829 240.21 245.516 240.049 246.15 240.154C246.786 240.248 247.281 240.6 247.633 241.21C247.849 241.584 247.973 241.992 248.007 242.435C248.041 242.877 247.956 243.458 247.751 244.176L246.682 248.036L250.683 245.726ZM251.787 240.253C252.84 239.645 253.715 239.393 254.413 239.498C255.114 239.592 255.661 239.979 256.053 240.658C256.297 241.081 256.414 241.516 256.405 241.965C256.403 242.409 256.261 242.843 255.978 243.265C255.691 243.68 255.26 244.053 254.685 244.385C254.166 244.685 253.622 244.888 253.055 244.994C252.491 245.088 251.985 245.076 251.537 244.956L251.558 244.153C251.945 244.263 252.382 244.283 252.869 244.215C253.351 244.139 253.822 243.969 254.279 243.705C254.882 243.357 255.268 242.954 255.437 242.496C255.614 242.034 255.572 241.577 255.312 241.127C255.024 240.628 254.619 240.359 254.097 240.318C253.582 240.274 252.884 240.506 252.004 241.014L250.456 241.908L248.724 238.044L252.704 235.746L253.088 236.411L249.763 238.331L250.851 240.793L251.787 240.253Z" fill="#232D42"/>
<path opacity="0.7" d="M154.892 404.265L159.074 411.509L158.128 412.055L153.946 404.811L154.892 404.265ZM159.348 404.797L161.286 408.153C161.446 408.43 161.619 408.594 161.804 408.644C161.986 408.687 162.223 408.624 162.514 408.456L163.21 408.054L163.672 408.854L162.82 409.346C162.293 409.65 161.828 409.757 161.425 409.666C161.022 409.576 160.66 409.254 160.34 408.699L158.402 405.343L157.664 405.769L157.214 404.989L157.952 404.563L157.124 403.129L158.07 402.583L158.898 404.017L160.384 403.159L160.834 403.939L159.348 404.797ZM168.59 401.927C168.694 402.107 168.794 402.304 168.889 402.517L164.337 405.145C164.696 405.686 165.14 406.016 165.671 406.134C166.204 406.242 166.72 406.152 167.219 405.864C167.628 405.628 167.913 405.338 168.076 404.995C168.241 404.641 168.287 404.273 168.214 403.89L169.232 403.302C169.396 403.938 169.349 404.561 169.091 405.171C168.83 405.774 168.36 406.272 167.681 406.664C167.141 406.976 166.586 407.135 166.016 407.14C165.454 407.142 164.923 406.991 164.425 406.688C163.922 406.377 163.501 405.928 163.161 405.339C162.821 404.75 162.641 404.166 162.62 403.586C162.6 403.007 162.733 402.477 163.019 401.998C163.309 401.507 163.731 401.102 164.285 400.782C164.825 400.47 165.372 400.312 165.923 400.307C166.475 400.303 166.982 400.445 167.443 400.732C167.908 401.009 168.29 401.407 168.59 401.927ZM167.499 402.293C167.291 401.933 167.034 401.671 166.726 401.507C166.415 401.335 166.083 401.264 165.73 401.292C165.379 401.31 165.038 401.414 164.706 401.606C164.227 401.882 163.907 402.271 163.743 402.772C163.587 403.268 163.64 403.801 163.904 404.369L167.499 402.293ZM175.455 394.319C175.899 394.063 176.348 393.929 176.802 393.916C177.253 393.896 177.684 394.011 178.097 394.263C178.51 394.514 178.869 394.903 179.173 395.429L181.111 398.786L180.175 399.326L178.315 396.104C177.987 395.536 177.595 395.185 177.139 395.051C176.686 394.906 176.22 394.972 175.742 395.248C175.251 395.532 174.951 395.917 174.844 396.404C174.733 396.884 174.85 397.422 175.194 398.017L177.006 401.156L176.07 401.696L174.21 398.474C173.882 397.906 173.49 397.555 173.034 397.421C172.581 397.276 172.116 397.342 171.637 397.618C171.146 397.902 170.846 398.287 170.739 398.774C170.628 399.254 170.745 399.792 171.089 400.387L172.901 403.526L171.955 404.072L168.667 398.377L169.613 397.831L170.087 398.652C170.102 398.246 170.219 397.873 170.439 397.534C170.666 397.191 170.969 396.909 171.351 396.689C171.829 396.413 172.313 396.276 172.804 396.279C173.296 396.282 173.751 396.439 174.171 396.751C174.099 396.257 174.182 395.793 174.421 395.36C174.66 394.926 175.005 394.579 175.455 394.319ZM182.703 390.37C182.383 389.705 182.341 389.064 182.576 388.448C182.812 387.832 183.283 387.32 183.99 386.912C184.461 386.64 184.916 386.492 185.356 386.469C185.798 386.436 186.19 386.514 186.531 386.705C186.879 386.892 187.159 387.169 187.371 387.537C187.619 387.966 187.708 388.409 187.639 388.865C187.577 389.316 187.374 389.701 187.031 390.019L187.061 390.071C187.575 389.922 188.058 389.934 188.509 390.108C188.961 390.282 189.338 390.632 189.642 391.158C189.87 391.553 189.986 391.962 189.99 392.385C189.99 392.8 189.862 393.202 189.605 393.59C189.349 393.979 188.968 394.319 188.462 394.611C187.728 395.035 187.015 395.192 186.324 395.083C185.629 394.967 185.05 394.572 184.586 393.897L185.501 393.369C185.789 393.757 186.155 393.998 186.598 394.094C187.041 394.189 187.505 394.096 187.99 393.816C188.475 393.536 188.77 393.2 188.876 392.806C188.984 392.402 188.922 391.999 188.69 391.597C188.39 391.077 188.001 390.803 187.522 390.775C187.044 390.746 186.455 390.934 185.755 391.338L185.516 391.476L185.06 390.686L185.31 390.542C185.943 390.167 186.365 389.785 186.574 389.396C186.78 389 186.759 388.588 186.511 388.158C186.299 387.791 186.007 387.566 185.637 387.485C185.273 387.399 184.87 387.484 184.426 387.74C183.997 387.988 183.714 388.299 183.579 388.673C183.444 389.046 183.46 389.434 183.628 389.836L182.703 390.37ZM190.222 388.413C189.534 387.221 189.192 386.181 189.195 385.292C189.195 384.396 189.68 383.668 190.65 383.108C191.613 382.552 192.483 382.498 193.259 382.946C194.031 383.387 194.761 384.203 195.449 385.395C196.149 386.607 196.499 387.661 196.499 388.557C196.499 389.453 196.017 390.18 195.054 390.736C194.084 391.296 193.211 391.351 192.435 390.903C191.66 390.455 190.922 389.625 190.222 388.413ZM194.514 385.935C194.166 385.332 193.83 384.847 193.507 384.479C193.187 384.1 192.828 383.855 192.43 383.743C192.04 383.626 191.613 383.702 191.148 383.97C190.677 384.242 190.391 384.578 190.29 384.979C190.195 385.375 190.228 385.808 190.389 386.279C190.553 386.739 190.809 387.27 191.157 387.873C191.517 388.496 191.857 388.997 192.177 389.376C192.504 389.751 192.863 389.996 193.254 390.112C193.651 390.225 194.085 390.145 194.556 389.873C195.021 389.605 195.3 389.273 195.394 388.876C195.496 388.476 195.463 388.043 195.295 387.576C195.134 387.105 194.874 386.558 194.514 385.935ZM204.919 385.137C204.441 385.413 203.964 385.578 203.487 385.632C203.012 385.674 202.582 385.609 202.195 385.435C201.804 385.254 201.492 384.968 201.257 384.577L202.265 383.995C202.495 384.315 202.8 384.522 203.178 384.618C203.56 384.703 203.986 384.609 204.457 384.337C204.908 384.077 205.197 383.762 205.325 383.392C205.456 383.012 205.42 382.645 205.216 382.291C205.056 382.014 204.85 381.833 204.597 381.748C204.345 381.663 204.079 381.641 203.798 381.683C203.517 381.725 203.153 381.806 202.705 381.926C202.155 382.077 201.698 382.175 201.335 382.218C200.979 382.257 200.621 382.205 200.262 382.062C199.905 381.908 199.596 381.605 199.336 381.155C199.108 380.76 199.007 380.352 199.032 379.931C199.056 379.511 199.201 379.113 199.465 378.739C199.737 378.36 200.108 378.035 200.579 377.763C201.258 377.371 201.91 377.221 202.536 377.313C203.168 377.4 203.674 377.708 204.053 378.238L203.014 378.838C202.82 378.58 202.534 378.422 202.158 378.362C201.777 378.295 201.376 378.384 200.953 378.628C200.558 378.856 200.296 379.146 200.167 379.498C200.033 379.843 200.073 380.199 200.285 380.566C200.437 380.829 200.633 381.002 200.875 381.084C201.123 381.162 201.381 381.185 201.648 381.151C201.917 381.106 202.282 381.025 202.741 380.908C203.295 380.763 203.755 380.673 204.122 380.637C204.485 380.593 204.849 380.647 205.212 380.797C205.572 380.94 205.884 381.241 206.148 381.698C206.352 382.051 206.451 382.438 206.444 382.857C206.437 383.277 206.305 383.69 206.05 384.096C205.795 384.502 205.418 384.849 204.919 385.137ZM207.017 380.005C206.681 379.423 206.505 378.845 206.488 378.273C206.468 377.693 206.592 377.165 206.861 376.686C207.136 376.204 207.527 375.816 208.033 375.524C208.532 375.236 209.027 375.094 209.518 375.096C210.009 375.099 210.439 375.211 210.807 375.433L210.207 374.394L211.163 373.842L214.451 379.537L213.495 380.089L212.883 379.029C212.888 379.469 212.767 379.908 212.521 380.346C212.278 380.773 211.91 381.128 211.419 381.412C210.913 381.704 210.384 381.844 209.831 381.83C209.278 381.817 208.754 381.653 208.258 381.339C207.763 381.024 207.349 380.58 207.017 380.005ZM211.845 377.231C211.597 376.801 211.294 376.477 210.937 376.259C210.58 376.04 210.204 375.933 209.81 375.939C209.419 375.934 209.047 376.033 208.694 376.237C208.341 376.441 208.066 376.71 207.872 377.045C207.677 377.379 207.584 377.755 207.595 378.174C207.606 378.593 207.735 379.017 207.983 379.447C208.235 379.883 208.542 380.214 208.903 380.44C209.26 380.658 209.635 380.77 210.026 380.776C210.412 380.774 210.783 380.671 211.136 380.467C211.489 380.263 211.763 379.994 211.958 379.66C212.156 379.314 212.25 378.932 212.239 378.514C212.224 378.088 212.093 377.66 211.845 377.231ZM212.901 370.178L217.341 377.868L216.396 378.414L211.956 370.724L212.901 370.178ZM222.726 370.672C222.83 370.852 222.929 371.049 223.024 371.261L218.473 373.889C218.831 374.431 219.276 374.761 219.806 374.879C220.34 374.987 220.856 374.897 221.354 374.609C221.763 374.373 222.049 374.083 222.211 373.74C222.376 373.386 222.422 373.018 222.349 372.635L223.367 372.047C223.531 372.683 223.484 373.305 223.227 373.916C222.966 374.519 222.495 375.017 221.816 375.409C221.276 375.721 220.721 375.88 220.152 375.885C219.589 375.887 219.058 375.736 218.56 375.433C218.057 375.122 217.636 374.673 217.296 374.084C216.956 373.495 216.776 372.911 216.755 372.331C216.735 371.752 216.868 371.222 217.155 370.743C217.444 370.252 217.866 369.847 218.42 369.527C218.961 369.215 219.507 369.057 220.059 369.052C220.61 369.048 221.117 369.19 221.579 369.477C222.043 369.754 222.426 370.152 222.726 370.672ZM221.635 371.038C221.427 370.678 221.169 370.416 220.862 370.251C220.55 370.08 220.218 370.009 219.865 370.037C219.515 370.055 219.173 370.159 218.841 370.351C218.363 370.627 218.042 371.016 217.879 371.517C217.722 372.013 217.776 372.546 218.039 373.114L221.635 371.038ZM228.16 371.746C227.724 371.998 227.291 372.152 226.86 372.206C226.426 372.254 226.032 372.204 225.679 372.057C225.322 371.902 225.033 371.658 224.813 371.324L225.789 370.76C225.981 371.028 226.247 371.184 226.586 371.228C226.933 371.268 227.3 371.176 227.688 370.952C228.048 370.744 228.286 370.501 228.402 370.221C228.518 369.942 228.506 369.681 228.366 369.438C228.222 369.189 228.005 369.069 227.715 369.08C227.422 369.083 227.009 369.16 226.477 369.31C225.99 369.443 225.58 369.532 225.245 369.577C224.914 369.612 224.587 369.574 224.265 369.464C223.946 369.343 223.681 369.1 223.469 368.732C223.301 368.441 223.234 368.125 223.267 367.782C223.3 367.44 223.436 367.107 223.675 366.785C223.909 366.455 224.231 366.172 224.64 365.936C225.27 365.572 225.871 365.438 226.443 365.532C227.015 365.627 227.475 365.944 227.823 366.482L226.877 367.028C226.684 366.742 226.425 366.573 226.1 366.521C225.781 366.465 225.438 366.543 225.071 366.755C224.731 366.951 224.503 367.179 224.386 367.441C224.269 367.702 224.279 367.951 224.415 368.186C224.523 368.373 224.671 368.495 224.861 368.552C225.054 368.598 225.262 368.607 225.487 368.579C225.714 368.54 226.016 368.472 226.394 368.374C226.866 368.249 227.263 368.168 227.583 368.131C227.9 368.087 228.21 368.12 228.514 368.231C228.825 368.337 229.084 368.562 229.291 368.904C229.471 369.216 229.546 369.547 229.517 369.896C229.488 370.246 229.356 370.585 229.121 370.915C228.889 371.233 228.569 371.51 228.16 371.746Z" fill="#232D42"/>
<circle cx="143.447" cy="415.706" r="4" transform="rotate(-30 143.447 415.706)" fill="#068F7D"/>
<path d="M172.796 423.431C173.038 423.852 173.158 424.311 173.154 424.808C173.154 425.294 173.014 425.779 172.734 426.264C172.457 426.736 172.047 427.156 171.505 427.523L172.072 428.505L171.296 428.953L170.722 427.959C169.871 428.353 169.081 428.486 168.35 428.358C167.614 428.223 167.033 427.804 166.606 427.102L168.424 426.052C168.809 426.606 169.311 426.785 169.931 426.589L168.594 424.273C167.928 424.464 167.375 424.589 166.935 424.649C166.495 424.708 166.053 424.651 165.608 424.477C165.162 424.303 164.779 423.938 164.457 423.38C164.051 422.677 163.97 421.958 164.214 421.224C164.467 420.486 164.975 419.853 165.738 419.326L165.171 418.344L165.947 417.896L166.514 418.878C167.327 418.495 168.08 418.372 168.775 418.511C169.477 418.644 170.061 419.05 170.529 419.729L168.698 420.786C168.538 420.565 168.337 420.412 168.093 420.327C167.853 420.228 167.595 420.21 167.319 420.273L168.642 422.564C169.336 422.368 169.9 422.242 170.331 422.187C170.766 422.119 171.206 422.172 171.652 422.346C172.092 422.512 172.474 422.874 172.796 423.431ZM166.178 422.273C166.332 422.54 166.539 422.711 166.798 422.788C167.053 422.856 167.365 422.854 167.733 422.782L166.522 420.684C166.254 420.893 166.087 421.135 166.019 421.411C165.952 421.686 166.005 421.974 166.178 422.273ZM170.721 426.165C170.995 425.931 171.161 425.668 171.219 425.376C171.285 425.08 171.238 424.794 171.08 424.519C170.926 424.252 170.717 424.087 170.454 424.023C170.191 423.96 169.871 423.966 169.496 424.043L170.721 426.165ZM176.814 421.047C177.084 421.365 177.388 421.556 177.726 421.619C178.068 421.67 178.433 421.583 178.821 421.359C179.322 421.07 179.567 420.654 179.555 420.111C179.539 419.56 179.246 418.791 178.677 417.805C178.64 418.171 178.494 418.525 178.238 418.866C177.991 419.203 177.673 419.484 177.285 419.708C176.768 420.006 176.239 420.172 175.697 420.204C175.159 420.224 174.647 420.094 174.162 419.813C173.672 419.525 173.252 419.078 172.902 418.472C172.384 417.574 172.24 416.709 172.47 415.876C172.696 415.034 173.269 414.347 174.191 413.815C175.339 413.153 176.359 413.054 177.253 413.519C178.154 413.979 179.032 414.949 179.886 416.428C180.493 417.479 180.897 418.393 181.098 419.171C181.308 419.945 181.29 420.634 181.047 421.238C180.811 421.838 180.313 422.357 179.553 422.795C178.955 423.141 178.38 423.322 177.829 423.338C177.274 423.346 176.776 423.23 176.335 422.989C175.897 422.735 175.531 422.391 175.238 421.957L176.814 421.047ZM176.839 418.122C177.259 417.88 177.516 417.559 177.609 417.16C177.702 416.762 177.623 416.344 177.371 415.908C177.096 415.431 176.754 415.138 176.346 415.028C175.941 414.906 175.521 414.971 175.084 415.223C174.648 415.475 174.38 415.813 174.28 416.237C174.183 416.649 174.263 417.077 174.52 417.521C174.767 417.95 175.091 418.231 175.493 418.366C175.897 418.488 176.346 418.407 176.839 418.122ZM185.009 410.786C184.732 410.494 184.444 410.321 184.144 410.268C183.852 410.21 183.52 410.288 183.148 410.503C182.591 410.825 182.309 411.289 182.304 411.896C182.302 412.49 182.588 413.294 183.163 414.309C183.171 413.874 183.309 413.46 183.578 413.068C183.843 412.667 184.193 412.341 184.63 412.089C185.155 411.785 185.685 411.63 186.22 411.623C186.755 411.616 187.261 411.766 187.74 412.071C188.213 412.369 188.625 412.821 188.975 413.427C189.306 414.001 189.486 414.582 189.512 415.17C189.543 415.745 189.408 416.287 189.108 416.794C188.808 417.301 188.351 417.732 187.737 418.087C186.896 418.572 186.126 418.769 185.426 418.677C184.735 418.58 184.101 418.257 183.524 417.706C182.951 417.142 182.382 416.372 181.817 415.394C180.963 413.914 180.574 412.652 180.649 411.606C180.72 410.553 181.305 409.708 182.404 409.074C183.253 408.584 184.044 408.434 184.779 408.624C185.514 408.814 186.116 409.231 186.585 409.876L185.009 410.786ZM185.047 413.707C184.618 413.954 184.331 414.287 184.185 414.706C184.038 415.124 184.103 415.572 184.378 416.049C184.653 416.526 185.004 416.825 185.429 416.946C185.863 417.062 186.326 416.977 186.819 416.693C187.255 416.441 187.522 416.109 187.619 415.698C187.723 415.282 187.645 414.847 187.384 414.395C187.113 413.926 186.773 413.626 186.364 413.496C185.963 413.361 185.524 413.432 185.047 413.707ZM191.819 413.143C192.222 412.049 192.53 411.154 192.743 410.46C192.952 409.757 193.075 409.083 193.111 408.437C193.147 407.791 193.035 407.241 192.774 406.789C192.536 406.376 192.252 406.109 191.923 405.987C191.593 405.864 191.227 405.92 190.823 406.153C190.418 406.386 190.187 406.703 190.127 407.104C190.063 407.497 190.162 407.93 190.424 408.404L188.776 409.356C188.248 408.367 188.11 407.466 188.362 406.652C188.623 405.833 189.173 405.182 190.014 404.696C190.935 404.164 191.785 404.002 192.563 404.211C193.336 404.411 193.953 404.911 194.415 405.712C194.779 406.342 194.957 407.042 194.949 407.812C194.941 408.582 194.842 409.307 194.653 409.987C194.459 410.66 194.183 411.498 193.825 412.502L197.402 410.437L198.214 411.844L192.225 415.302L191.497 414.041L191.819 413.143ZM200.729 410.666C200.422 410.844 200.114 410.898 199.805 410.828C199.499 410.746 199.264 410.564 199.101 410.281C198.937 409.998 198.899 409.708 198.986 409.41C199.076 409.099 199.274 408.855 199.581 408.678C199.881 408.505 200.183 408.46 200.489 408.542C200.79 408.616 201.023 408.794 201.186 409.077C201.349 409.36 201.39 409.654 201.308 409.96C201.221 410.258 201.029 410.494 200.729 410.666ZM199.531 402.564C199.104 401.733 199.028 400.947 199.301 400.207C199.578 399.454 200.149 398.829 201.014 398.329C201.604 397.989 202.17 397.802 202.711 397.769C203.248 397.729 203.725 397.826 204.14 398.06C204.559 398.282 204.897 398.615 205.153 399.059C205.447 399.568 205.564 400.078 205.502 400.587C205.444 401.084 205.268 401.498 204.975 401.83L205.003 401.878C205.556 401.753 206.069 401.802 206.542 402.024C207.023 402.242 207.432 402.642 207.768 403.224C208.048 403.709 208.185 404.207 208.178 404.717C208.179 405.223 208.024 405.711 207.713 406.181C207.406 406.639 206.95 407.043 206.344 407.393C205.43 407.92 204.554 408.119 203.714 407.989C202.874 407.86 202.179 407.356 201.628 406.478L203.277 405.526C203.522 405.912 203.84 406.155 204.23 406.252C204.624 406.337 205.044 406.252 205.488 405.995C205.9 405.757 206.15 405.462 206.238 405.11C206.329 404.744 206.269 404.38 206.059 404.016C205.779 403.531 205.425 403.272 204.997 403.24C204.568 403.207 204.031 403.377 203.384 403.75L203.032 403.953L202.227 402.559L202.579 402.356C203.727 401.693 204.079 400.978 203.636 400.21C203.435 399.863 203.174 399.653 202.851 399.58C202.537 399.503 202.186 399.576 201.798 399.8C201.418 400.019 201.184 400.295 201.095 400.626C201.01 400.945 201.042 401.271 201.192 401.605L199.531 402.564ZM211.434 401.059C211.704 401.377 212.008 401.568 212.346 401.631C212.688 401.682 213.053 401.595 213.441 401.371C213.942 401.082 214.186 400.666 214.175 400.123C214.158 399.572 213.866 398.803 213.296 397.817C213.26 398.183 213.114 398.537 212.858 398.879C212.611 399.215 212.293 399.496 211.905 399.72C211.388 400.018 210.858 400.184 210.317 400.217C209.778 400.236 209.267 400.106 208.782 399.826C208.292 399.537 207.872 399.09 207.522 398.484C207.004 397.587 206.86 396.721 207.09 395.888C207.316 395.046 207.889 394.36 208.81 393.828C209.958 393.165 210.979 393.066 211.872 393.531C212.774 393.991 213.652 394.961 214.506 396.44C215.112 397.491 215.516 398.405 215.718 399.184C215.927 399.957 215.91 400.646 215.666 401.25C215.43 401.85 214.933 402.369 214.173 402.808C213.575 403.153 213 403.334 212.449 403.35C211.894 403.358 211.395 403.242 210.954 403.001C210.517 402.747 210.151 402.403 209.857 401.969L211.434 401.059ZM211.459 398.135C211.879 397.892 212.136 397.571 212.229 397.173C212.322 396.774 212.243 396.356 211.991 395.92C211.715 395.443 211.374 395.15 210.966 395.041C210.561 394.919 210.141 394.984 209.704 395.236C209.268 395.488 208.999 395.826 208.899 396.25C208.803 396.661 208.883 397.089 209.14 397.534C209.387 397.962 209.711 398.244 210.112 398.379C210.517 398.501 210.966 398.419 211.459 398.135Z" fill="#232D42"/>
<path opacity="0.7" d="M262.279 342.265L266.461 349.509L265.515 350.055L261.333 342.811L262.279 342.265ZM266.734 342.797L268.672 346.153C268.832 346.43 269.005 346.594 269.191 346.644C269.373 346.687 269.609 346.624 269.9 346.456L270.597 346.054L271.059 346.854L270.206 347.346C269.68 347.65 269.215 347.757 268.812 347.666C268.408 347.576 268.047 347.254 267.727 346.699L265.789 343.343L265.051 343.769L264.601 342.989L265.339 342.563L264.511 341.129L265.456 340.583L266.284 342.017L267.771 341.159L268.221 341.939L266.734 342.797ZM275.977 339.927C276.081 340.107 276.181 340.304 276.276 340.517L271.724 343.145C272.083 343.686 272.527 344.016 273.058 344.134C273.591 344.242 274.107 344.152 274.606 343.864C275.015 343.628 275.3 343.338 275.462 342.995C275.627 342.641 275.673 342.273 275.6 341.89L276.619 341.302C276.782 341.938 276.735 342.561 276.478 343.171C276.217 343.774 275.747 344.272 275.068 344.664C274.527 344.976 273.972 345.135 273.403 345.14C272.84 345.142 272.31 344.991 271.811 344.688C271.309 344.377 270.887 343.928 270.547 343.339C270.207 342.75 270.027 342.166 270.007 341.586C269.986 341.007 270.119 340.477 270.406 339.998C270.696 339.507 271.118 339.102 271.672 338.782C272.212 338.47 272.758 338.312 273.31 338.307C273.862 338.303 274.368 338.445 274.83 338.732C275.295 339.009 275.677 339.407 275.977 339.927ZM274.886 340.293C274.678 339.933 274.42 339.671 274.113 339.507C273.802 339.335 273.469 339.264 273.116 339.292C272.766 339.31 272.425 339.414 272.092 339.606C271.614 339.882 271.293 340.271 271.13 340.772C270.973 341.268 271.027 341.801 271.29 342.369L274.886 340.293ZM282.842 332.319C283.286 332.063 283.735 331.929 284.189 331.916C284.639 331.896 285.071 332.011 285.484 332.263C285.897 332.514 286.255 332.903 286.559 333.429L288.497 336.786L287.562 337.326L285.702 334.104C285.374 333.536 284.982 333.185 284.526 333.051C284.073 332.906 283.607 332.972 283.129 333.248C282.637 333.532 282.338 333.917 282.231 334.404C282.12 334.884 282.236 335.422 282.58 336.017L284.392 339.156L283.457 339.696L281.597 336.474C281.269 335.906 280.877 335.555 280.421 335.421C279.968 335.276 279.502 335.342 279.024 335.618C278.532 335.902 278.233 336.287 278.126 336.774C278.015 337.254 278.131 337.792 278.475 338.387L280.287 341.526L279.342 342.072L276.054 336.377L276.999 335.831L277.473 336.652C277.488 336.246 277.606 335.873 277.826 335.534C278.052 335.191 278.356 334.909 278.737 334.689C279.215 334.413 279.7 334.276 280.191 334.279C280.682 334.282 281.138 334.439 281.558 334.751C281.485 334.257 281.569 333.793 281.808 333.36C282.047 332.926 282.392 332.579 282.842 332.319ZM289.267 327.474L288.769 326.611L290.722 325.483L295.06 332.997L294.104 333.549L290.264 326.898L289.267 327.474ZM295.837 330.318L295.423 329.601L296.154 322.444L297.287 321.79L300.143 326.737L301.182 326.137L301.656 326.958L300.617 327.558L301.583 329.231L300.648 329.771L299.682 328.098L295.837 330.318ZM296.963 323.293L296.454 328.867L299.249 327.253L296.963 323.293ZM309.525 324.743C309.047 325.019 308.57 325.183 308.092 325.237C307.618 325.28 307.188 325.214 306.801 325.04C306.41 324.86 306.098 324.574 305.863 324.183L306.871 323.601C307.101 323.92 307.406 324.128 307.784 324.223C308.166 324.308 308.592 324.214 309.063 323.942C309.513 323.682 309.803 323.367 309.931 322.998C310.062 322.617 310.026 322.25 309.822 321.897C309.662 321.62 309.456 321.439 309.203 321.353C308.951 321.268 308.684 321.246 308.404 321.288C308.123 321.33 307.759 321.411 307.311 321.531C306.761 321.683 306.304 321.78 305.941 321.823C305.585 321.863 305.227 321.811 304.868 321.667C304.511 321.513 304.202 321.211 303.942 320.761C303.714 320.366 303.613 319.958 303.638 319.537C303.662 319.116 303.807 318.719 304.071 318.344C304.343 317.966 304.714 317.641 305.185 317.369C305.864 316.977 306.516 316.827 307.142 316.918C307.774 317.006 308.28 317.314 308.659 317.843L307.62 318.443C307.426 318.186 307.14 318.027 306.764 317.968C306.383 317.901 305.982 317.989 305.559 318.233C305.164 318.461 304.902 318.751 304.773 319.103C304.639 319.448 304.679 319.804 304.891 320.171C305.043 320.435 305.239 320.607 305.481 320.69C305.729 320.768 305.987 320.79 306.254 320.756C306.523 320.711 306.888 320.63 307.347 320.513C307.901 320.369 308.361 320.278 308.728 320.242C309.091 320.199 309.455 320.252 309.818 320.402C310.178 320.546 310.49 320.846 310.754 321.303C310.958 321.657 311.057 322.043 311.05 322.463C311.042 322.883 310.911 323.296 310.656 323.702C310.401 324.108 310.024 324.455 309.525 324.743ZM311.623 319.61C311.287 319.028 311.111 318.451 311.094 317.878C311.074 317.299 311.198 316.77 311.467 316.292C311.742 315.809 312.133 315.422 312.639 315.13C313.138 314.842 313.633 314.699 314.124 314.702C314.615 314.705 315.045 314.817 315.413 315.039L314.813 313.999L315.769 313.447L319.057 319.142L318.101 319.694L317.489 318.634C317.494 319.075 317.373 319.514 317.127 319.952C316.884 320.378 316.516 320.734 316.025 321.018C315.519 321.31 314.989 321.449 314.437 321.436C313.884 321.422 313.36 321.258 312.864 320.944C312.369 320.63 311.955 320.185 311.623 319.61ZM316.451 316.836C316.203 316.407 315.9 316.083 315.543 315.864C315.186 315.645 314.81 315.539 314.416 315.545C314.025 315.539 313.653 315.639 313.3 315.843C312.947 316.047 312.672 316.316 312.477 316.65C312.282 316.984 312.19 317.361 312.201 317.78C312.212 318.198 312.341 318.622 312.589 319.052C312.841 319.489 313.148 319.82 313.509 320.045C313.866 320.264 314.24 320.376 314.631 320.381C315.018 320.379 315.389 320.276 315.742 320.072C316.095 319.868 316.369 319.599 316.564 319.265C316.762 318.92 316.856 318.538 316.845 318.119C316.83 317.694 316.699 317.266 316.451 316.836ZM317.507 309.783L321.947 317.474L321.002 318.02L316.562 310.329L317.507 309.783ZM327.332 310.277C327.436 310.457 327.535 310.654 327.63 310.867L323.079 313.495C323.437 314.036 323.882 314.366 324.412 314.485C324.946 314.592 325.462 314.502 325.96 314.214C326.369 313.978 326.655 313.689 326.817 313.346C326.982 312.992 327.028 312.623 326.955 312.241L327.973 311.653C328.137 312.288 328.09 312.911 327.833 313.521C327.572 314.125 327.101 314.623 326.422 315.015C325.882 315.327 325.327 315.485 324.758 315.491C324.195 315.492 323.664 315.341 323.166 315.038C322.663 314.728 322.242 314.278 321.902 313.689C321.562 313.1 321.382 312.516 321.361 311.937C321.341 311.357 321.474 310.828 321.761 310.348C322.05 309.858 322.472 309.453 323.026 309.133C323.567 308.821 324.113 308.662 324.665 308.658C325.216 308.653 325.723 308.795 326.185 309.083C326.649 309.36 327.032 309.758 327.332 310.277ZM326.241 310.644C326.033 310.284 325.775 310.021 325.468 309.857C325.156 309.686 324.824 309.614 324.471 309.643C324.121 309.66 323.779 309.765 323.447 309.957C322.969 310.233 322.648 310.621 322.485 311.122C322.328 311.619 322.381 312.151 322.645 312.72L326.241 310.644ZM332.766 311.352C332.33 311.604 331.897 311.757 331.466 311.812C331.032 311.859 330.638 311.809 330.285 311.662C329.928 311.508 329.639 311.264 329.419 310.929L330.395 310.365C330.587 310.633 330.853 310.789 331.192 310.833C331.539 310.874 331.906 310.782 332.294 310.558C332.654 310.35 332.892 310.106 333.008 309.827C333.124 309.547 333.112 309.286 332.972 309.044C332.828 308.794 332.611 308.675 332.321 308.685C332.028 308.688 331.615 308.765 331.083 308.915C330.596 309.049 330.186 309.138 329.851 309.183C329.52 309.217 329.193 309.179 328.871 309.07C328.552 308.949 328.287 308.705 328.075 308.338C327.907 308.047 327.839 307.73 327.873 307.388C327.906 307.045 328.042 306.713 328.281 306.39C328.515 306.061 328.837 305.778 329.246 305.542C329.876 305.178 330.477 305.043 331.049 305.138C331.621 305.233 332.081 305.549 332.429 306.087L331.483 306.633C331.29 306.347 331.031 306.178 330.705 306.126C330.387 306.07 330.044 306.148 329.677 306.36C329.337 306.556 329.109 306.785 328.992 307.046C328.875 307.308 328.885 307.556 329.021 307.792C329.129 307.979 329.277 308.101 329.467 308.158C329.66 308.203 329.868 308.212 330.092 308.184C330.32 308.146 330.622 308.077 331 307.98C331.472 307.854 331.869 307.773 332.189 307.736C332.506 307.692 332.816 307.725 333.12 307.836C333.431 307.943 333.69 308.167 333.897 308.51C334.077 308.822 334.152 309.152 334.123 309.502C334.094 309.851 333.962 310.191 333.727 310.52C333.495 310.839 333.175 311.116 332.766 311.352Z" fill="#232D42"/>
<circle cx="250.833" cy="353.706" r="4" transform="rotate(-30 250.833 353.706)" fill="#DFD5FE"/>
<path d="M279.182 359.699C279.425 360.12 279.545 360.579 279.541 361.076C279.541 361.561 279.401 362.047 279.12 362.532C278.843 363.004 278.434 363.424 277.891 363.791L278.458 364.773L277.682 365.221L277.108 364.227C276.258 364.621 275.467 364.754 274.736 364.626C274.001 364.491 273.419 364.072 272.992 363.37L274.811 362.32C275.196 362.874 275.698 363.053 276.317 362.857L274.98 360.541C274.314 360.732 273.762 360.857 273.322 360.917C272.882 360.976 272.44 360.919 271.994 360.745C271.549 360.571 271.165 360.205 270.843 359.648C270.437 358.945 270.357 358.226 270.601 357.492C270.854 356.754 271.361 356.121 272.124 355.594L271.557 354.612L272.333 354.164L272.9 355.146C273.714 354.763 274.467 354.64 275.161 354.778C275.863 354.912 276.448 355.318 276.915 355.997L275.085 357.054C274.925 356.833 274.723 356.68 274.48 356.594C274.24 356.496 273.982 356.478 273.705 356.541L275.028 358.832C275.723 358.636 276.286 358.51 276.718 358.455C277.153 358.387 277.593 358.44 278.038 358.614C278.479 358.78 278.86 359.141 279.182 359.699ZM272.565 358.541C272.719 358.808 272.925 358.979 273.185 359.056C273.44 359.124 273.751 359.122 274.119 359.05L272.908 356.952C272.641 357.161 272.473 357.403 272.406 357.679C272.339 357.954 272.392 358.242 272.565 358.541ZM277.107 362.433C277.382 362.199 277.548 361.936 277.606 361.644C277.671 361.348 277.625 361.062 277.466 360.787C277.312 360.52 277.104 360.355 276.841 360.291C276.578 360.228 276.258 360.234 275.882 360.311L277.107 362.433ZM283.201 357.315C283.471 357.633 283.775 357.824 284.113 357.887C284.455 357.938 284.82 357.851 285.208 357.627C285.709 357.338 285.953 356.922 285.942 356.379C285.925 355.828 285.633 355.059 285.063 354.073C285.027 354.439 284.881 354.793 284.625 355.134C284.378 355.471 284.06 355.751 283.672 355.975C283.155 356.274 282.625 356.44 282.084 356.472C281.545 356.492 281.034 356.362 280.549 356.081C280.059 355.793 279.639 355.346 279.289 354.739C278.771 353.842 278.627 352.977 278.857 352.144C279.083 351.302 279.656 350.615 280.577 350.083C281.725 349.421 282.746 349.322 283.639 349.787C284.541 350.247 285.419 351.217 286.273 352.696C286.879 353.747 287.283 354.661 287.485 355.439C287.694 356.213 287.677 356.902 287.433 357.506C287.197 358.105 286.7 358.625 285.94 359.063C285.342 359.409 284.767 359.589 284.216 359.606C283.661 359.614 283.162 359.498 282.721 359.256C282.284 359.003 281.918 358.659 281.624 358.225L283.201 357.315ZM283.226 354.39C283.646 354.148 283.903 353.827 283.996 353.428C284.089 353.03 284.01 352.612 283.758 352.176C283.482 351.699 283.141 351.406 282.733 351.296C282.328 351.174 281.908 351.239 281.471 351.491C281.035 351.743 280.766 352.081 280.666 352.505C280.57 352.917 280.65 353.345 280.907 353.789C281.154 354.218 281.478 354.499 281.879 354.634C282.284 354.756 282.733 354.675 283.226 354.39ZM291.396 347.054C291.119 346.761 290.831 346.589 290.531 346.535C290.239 346.478 289.907 346.556 289.535 346.771C288.977 347.093 288.696 347.557 288.69 348.164C288.688 348.758 288.975 349.562 289.55 350.577C289.558 350.142 289.696 349.728 289.965 349.335C290.229 348.935 290.58 348.609 291.016 348.357C291.542 348.053 292.072 347.898 292.607 347.891C293.141 347.884 293.648 348.033 294.126 348.339C294.6 348.637 295.012 349.089 295.362 349.695C295.693 350.269 295.872 350.85 295.899 351.438C295.93 352.013 295.795 352.554 295.495 353.062C295.195 353.569 294.738 354 294.124 354.355C293.283 354.84 292.513 355.037 291.813 354.945C291.122 354.848 290.488 354.525 289.911 353.974C289.338 353.41 288.769 352.64 288.204 351.662C287.35 350.182 286.961 348.92 287.036 347.874C287.106 346.82 287.691 345.976 288.791 345.342C289.639 344.852 290.431 344.702 291.166 344.892C291.901 345.082 292.503 345.499 292.972 346.144L291.396 347.054ZM291.433 349.975C291.005 350.222 290.718 350.555 290.571 350.974C290.425 351.392 290.489 351.84 290.765 352.317C291.04 352.794 291.391 353.093 291.816 353.214C292.249 353.33 292.713 353.245 293.206 352.961C293.642 352.709 293.909 352.377 294.005 351.966C294.11 351.55 294.032 351.115 293.77 350.663C293.5 350.194 293.16 349.894 292.75 349.764C292.349 349.629 291.91 349.7 291.433 349.975ZM298.206 349.411C298.609 348.316 298.917 347.422 299.13 346.728C299.339 346.025 299.461 345.351 299.498 344.705C299.534 344.058 299.422 343.509 299.16 343.056C298.922 342.644 298.639 342.377 298.309 342.255C297.98 342.132 297.613 342.188 297.209 342.421C296.805 342.654 296.573 342.971 296.514 343.372C296.449 343.765 296.549 344.198 296.811 344.671L295.162 345.623C294.635 344.635 294.497 343.734 294.749 342.92C295.009 342.101 295.56 341.449 296.401 340.964C297.322 340.432 298.172 340.27 298.949 340.479C299.722 340.679 300.34 341.179 300.802 341.979C301.166 342.61 301.344 343.31 301.336 344.08C301.327 344.85 301.229 345.575 301.04 346.255C300.846 346.928 300.57 347.766 300.212 348.77L303.789 346.705L304.601 348.112L298.611 351.57L297.883 350.309L298.206 349.411ZM307.116 346.934C306.809 347.111 306.501 347.165 306.191 347.096C305.885 347.014 305.651 346.832 305.487 346.549C305.324 346.266 305.286 345.976 305.372 345.678C305.462 345.367 305.661 345.123 305.968 344.946C306.267 344.773 306.57 344.728 306.876 344.81C307.177 344.884 307.409 345.062 307.573 345.345C307.736 345.628 307.777 345.922 307.695 346.228C307.608 346.526 307.415 346.761 307.116 346.934ZM305.917 338.832C305.491 338 305.415 337.215 305.688 336.475C305.965 335.722 306.536 335.096 307.4 334.597C307.991 334.256 308.556 334.07 309.098 334.037C309.635 333.997 310.111 334.094 310.527 334.328C310.946 334.549 311.283 334.883 311.54 335.327C311.834 335.836 311.95 336.346 311.889 336.855C311.831 337.352 311.655 337.766 311.361 338.098L311.389 338.146C311.942 338.021 312.455 338.07 312.929 338.292C313.41 338.51 313.819 338.91 314.155 339.492C314.435 339.977 314.571 340.474 314.564 340.985C314.565 341.491 314.411 341.979 314.1 342.449C313.793 342.907 313.336 343.31 312.73 343.66C311.817 344.188 310.94 344.387 310.1 344.257C309.26 344.128 308.565 343.624 308.015 342.746L309.664 341.794C309.909 342.18 310.226 342.423 310.617 342.52C311.011 342.605 311.43 342.52 311.875 342.263C312.287 342.025 312.537 341.73 312.625 341.377C312.716 341.012 312.656 340.648 312.446 340.284C312.166 339.799 311.812 339.54 311.383 339.508C310.955 339.475 310.417 339.645 309.771 340.018L309.419 340.221L308.614 338.827L308.966 338.624C310.113 337.961 310.466 337.246 310.022 336.478C309.822 336.131 309.56 335.921 309.238 335.848C308.924 335.771 308.573 335.844 308.185 336.068C307.805 336.287 307.571 336.563 307.482 336.894C307.397 337.213 307.429 337.539 307.578 337.873L305.917 338.832ZM317.82 337.327C318.09 337.645 318.394 337.836 318.733 337.899C319.074 337.95 319.439 337.863 319.827 337.639C320.328 337.35 320.573 336.934 320.562 336.391C320.545 335.84 320.252 335.071 319.683 334.085C319.646 334.451 319.5 334.805 319.245 335.146C318.998 335.483 318.68 335.764 318.292 335.988C317.775 336.286 317.245 336.452 316.703 336.484C316.165 336.504 315.653 336.374 315.168 336.094C314.679 335.805 314.259 335.358 313.909 334.752C313.391 333.855 313.247 332.989 313.477 332.156C313.702 331.314 314.276 330.628 315.197 330.096C316.345 329.433 317.366 329.334 318.259 329.799C319.161 330.259 320.038 331.229 320.892 332.708C321.499 333.759 321.903 334.673 322.105 335.452C322.314 336.225 322.297 336.914 322.053 337.518C321.817 338.118 321.319 338.637 320.56 339.076C319.961 339.421 319.387 339.602 318.836 339.618C318.28 339.626 317.782 339.51 317.341 339.269C316.903 339.015 316.538 338.671 316.244 338.237L317.82 337.327ZM317.845 334.403C318.266 334.16 318.522 333.839 318.616 333.441C318.709 333.042 318.629 332.624 318.377 332.188C318.102 331.711 317.76 331.418 317.352 331.309C316.948 331.186 316.527 331.251 316.091 331.503C315.654 331.755 315.386 332.094 315.286 332.518C315.19 332.929 315.27 333.357 315.526 333.802C315.774 334.23 316.098 334.512 316.499 334.646C316.904 334.769 317.352 334.687 317.845 334.403Z" fill="#232D42"/>
</g>
<g filter="url(#filter2_d_1_3739)">
<rect x="337" y="200.498" width="274.996" height="197.82" rx="20" transform="rotate(-30 337 200.498)" fill="white"/>
</g>
<path d="M429.752 303.888C439.922 298.016 431.305 283.091 441.576 277.161C451.746 271.29 448.455 265.59 458.727 259.66C468.896 253.789 456.804 232.844 467.075 226.914C477.245 221.042 483.394 231.693 493.666 225.762C503.835 219.891 515.229 239.625 525.398 233.753C535.67 227.823 518.23 197.617 528.4 191.745C538.671 185.815 557.859 219.049 568.029 213.178C578.3 207.247 576.058 203.365 586.228 197.493C596.5 191.563 603.451 203.603 613.62 197.731" stroke="#068F7D" stroke-width="2"/>
<path d="M429.753 303.888C439.923 298.016 433.519 286.925 443.791 280.994C453.96 275.123 459.571 284.841 469.843 278.911C480.012 273.04 478.122 269.765 488.393 263.835C498.563 257.963 490.838 244.583 501.109 238.653C511.279 232.781 502.354 217.323 512.524 211.452C522.795 205.522 534.769 226.261 544.939 220.39C555.21 214.46 551.002 207.171 561.172 201.299C571.443 195.369 575.082 201.672 585.252 195.8C595.524 189.87 603.452 203.603 613.622 197.731" stroke="#F25368" stroke-width="2"/>
<path d="M432.716 302.176C433.202 303.018 432.914 303.986 432.227 304.383C431.539 304.78 430.556 304.545 430.07 303.704C429.585 302.862 429.873 301.894 430.56 301.497C431.247 301.1 432.23 301.335 432.716 302.176Z" fill="white" stroke="#1F78B4" stroke-width="2"/>
<circle cx="442.868" cy="276.108" r="1.5" transform="rotate(-30 442.868 276.108)" fill="white" stroke="#068F7D" stroke-width="2"/>
<circle cx="460.329" cy="258.329" r="1.5" transform="rotate(-30 460.329 258.329)" fill="white" stroke="#068F7D" stroke-width="2"/>
<circle cx="468.577" cy="225.855" r="1.5" transform="rotate(-30 468.577 225.855)" fill="white" stroke="#068F7D" stroke-width="2"/>
<circle cx="495.372" cy="224.241" r="1.5" transform="rotate(-30 495.372 224.241)" fill="white" stroke="#068F7D" stroke-width="2"/>
<path d="M528.382 231.548C528.868 232.39 528.58 233.358 527.893 233.755C527.205 234.152 526.222 233.917 525.736 233.076C525.251 232.234 525.539 231.265 526.226 230.868C526.914 230.472 527.896 230.707 528.382 231.548Z" fill="white" stroke="#068F7D" stroke-width="2"/>
<circle cx="529.866" cy="190.469" r="1.5" transform="rotate(-30 529.866 190.469)" fill="white" stroke="#068F7D" stroke-width="2"/>
<circle cx="569.661" cy="211.372" r="1.5" transform="rotate(-30 569.661 211.372)" fill="white" stroke="#068F7D" stroke-width="2"/>
<path d="M589.337 195.585C589.823 196.427 589.535 197.395 588.848 197.792C588.16 198.189 587.177 197.954 586.692 197.113C586.206 196.271 586.494 195.303 587.181 194.906C587.869 194.509 588.851 194.744 589.337 195.585Z" fill="white" stroke="#068F7D" stroke-width="2"/>
<path d="M617.132 195.704C617.618 196.545 617.33 197.514 616.643 197.911C615.955 198.308 614.972 198.073 614.486 197.231C614.001 196.39 614.289 195.421 614.976 195.024C615.663 194.627 616.646 194.862 617.132 195.704Z" fill="white" stroke="#068F7D" stroke-width="2"/>
<circle cx="431.286" cy="302.809" r="1.5" transform="rotate(-30 431.286 302.809)" fill="white" stroke="#F25368" stroke-width="2"/>
<circle cx="444.868" cy="279.573" r="1.5" transform="rotate(-30 444.868 279.573)" fill="white" stroke="#F25368" stroke-width="2"/>
<circle cx="471.329" cy="277.382" r="1.5" transform="rotate(-30 471.329 277.382)" fill="white" stroke="#F25368" stroke-width="2"/>
<circle cx="489.577" cy="262.228" r="1.5" transform="rotate(-30 489.577 262.228)" fill="white" stroke="#F25368" stroke-width="2"/>
<circle cx="502.704" cy="236.943" r="1.5" transform="rotate(-30 502.704 236.943)" fill="white" stroke="#F25368" stroke-width="2"/>
<circle cx="513.952" cy="209.665" r="1.5" transform="rotate(-30 513.952 209.665)" fill="white" stroke="#F25368" stroke-width="2"/>
<circle cx="546.2" cy="218.759" r="1.5" transform="rotate(-30 546.2 218.759)" fill="white" stroke="#F25368" stroke-width="2"/>
<circle cx="562.993" cy="199.825" r="1.5" transform="rotate(-30 562.993 199.825)" fill="white" stroke="#F25368" stroke-width="2"/>
<circle cx="586.907" cy="194.486" r="1.5" transform="rotate(-30 586.907 194.486)" fill="white" stroke="#F25368" stroke-width="2"/>
<circle cx="615.702" cy="196.337" r="1.5" transform="rotate(-30 615.702 196.337)" fill="white" stroke="#F25368" stroke-width="2"/>
<g filter="url(#filter3_d_1_3739)">
<path d="M411.945 262.307C410.841 260.393 411.496 257.947 413.409 256.842L441.122 240.842C443.035 239.738 445.482 240.393 446.586 242.307L453.386 254.084C454.491 255.998 453.835 258.444 451.922 259.549L443.015 264.691L440.766 272.225L433.117 270.406L424.209 275.549C422.296 276.653 419.85 275.998 418.745 274.084L411.945 262.307Z" fill="#F7F4FD"/>
<path d="M442.765 264.258L442.592 264.358L442.535 264.548L440.422 271.629L433.233 269.919L433.039 269.873L432.867 269.973L423.959 275.116C422.285 276.082 420.145 275.509 419.178 273.834L412.378 262.057C411.412 260.383 411.985 258.242 413.659 257.275L441.372 241.275C443.046 240.309 445.187 240.883 446.153 242.557L452.953 254.334C453.92 256.009 453.346 258.149 451.672 259.116L442.765 264.258Z" stroke="#E8E0FF"/>
</g>
<path d="M429.494 262.035C429.66 262.323 429.745 262.636 429.747 262.974C429.755 263.308 429.671 263.641 429.494 263.974C429.322 264.304 429.059 264.595 428.704 264.846L429.109 265.548L428.546 265.873L428.141 265.171C427.568 265.433 427.031 265.516 426.53 265.42C426.028 265.325 425.641 265.041 425.367 264.567L426.424 263.957C426.571 264.172 426.752 264.318 426.965 264.395C427.176 264.466 427.411 264.453 427.671 264.357L426.571 262.452C426.127 262.577 425.756 262.661 425.457 262.702C425.154 262.739 424.853 262.697 424.553 262.577C424.259 262.455 424.002 262.203 423.782 261.822C423.506 261.343 423.445 260.85 423.6 260.345C423.751 259.834 424.083 259.396 424.596 259.031L424.191 258.33L424.754 258.005L425.159 258.706C425.694 258.459 426.194 258.386 426.66 258.486C427.128 258.577 427.521 258.851 427.838 259.307L426.782 259.917C426.661 259.748 426.5 259.629 426.299 259.561C426.094 259.486 425.876 259.481 425.644 259.546L426.724 261.417C427.164 261.286 427.535 261.202 427.838 261.166C428.137 261.124 428.434 261.165 428.728 261.288C429.018 261.404 429.274 261.653 429.494 262.035ZM424.757 261.19C424.894 261.427 425.069 261.571 425.285 261.624C425.506 261.674 425.769 261.664 426.076 261.595L425.066 259.845C424.834 260.017 424.687 260.222 424.623 260.459C424.566 260.692 424.61 260.936 424.757 261.19ZM428.234 264.032C428.465 263.845 428.605 263.629 428.656 263.384C428.704 263.133 428.661 262.892 428.528 262.661C428.395 262.431 428.219 262.293 428.001 262.25C427.786 262.197 427.525 262.205 427.219 262.274L428.234 264.032ZM432.042 261.06C432.319 260.261 432.529 259.617 432.67 259.127C432.813 258.629 432.895 258.15 432.915 257.692C432.935 257.234 432.849 256.838 432.655 256.503C432.455 256.156 432.215 255.933 431.934 255.834C431.659 255.731 431.346 255.781 430.993 255.984C430.653 256.181 430.451 256.444 430.387 256.773C430.325 257.094 430.394 257.439 430.592 257.809L429.64 258.359C429.277 257.691 429.183 257.075 429.359 256.512C429.536 255.94 429.917 255.486 430.5 255.149C431.129 254.786 431.72 254.676 432.272 254.819C432.83 254.958 433.276 255.317 433.609 255.894C433.849 256.31 433.974 256.773 433.984 257.283C433.996 257.784 433.943 258.273 433.825 258.749C433.71 259.216 433.542 259.778 433.322 260.437L433.132 261.008L435.877 259.423L436.352 260.246L432.143 262.676L431.728 261.957L432.042 261.06ZM438.531 251.817L435.63 253.492L436.625 255.215C436.653 254.984 436.754 254.745 436.927 254.498C437.106 254.249 437.331 254.045 437.603 253.889C438.088 253.609 438.54 253.486 438.961 253.521C439.387 253.552 439.755 253.689 440.065 253.934C440.381 254.174 440.641 254.471 440.844 254.823C441.091 255.25 441.227 255.68 441.253 256.111C441.281 256.534 441.186 256.935 440.967 257.316C440.754 257.693 440.41 258.018 439.937 258.292C439.308 258.655 438.712 258.791 438.151 258.699C437.59 258.607 437.124 258.326 436.752 257.856L437.713 257.301C437.934 257.535 438.2 257.67 438.513 257.705C438.822 257.734 439.141 257.654 439.47 257.464C439.88 257.227 440.115 256.926 440.173 256.561C440.238 256.193 440.152 255.804 439.915 255.394C439.675 254.978 439.388 254.721 439.053 254.622C438.716 254.516 438.345 254.58 437.94 254.814C437.658 254.977 437.46 255.188 437.347 255.445C437.236 255.694 437.208 255.964 437.261 256.257L436.326 256.797L434.221 253.151L438.031 250.951L438.531 251.817Z" fill="#232D42"/>
<path d="M388.991 207.477L391.537 222.127L388.593 223.827L377.179 214.297L379.777 212.797L388.652 220.49L386.41 208.967L388.991 207.477ZM392.455 207.279C392.027 207.525 391.593 207.599 391.151 207.5C390.714 207.383 390.378 207.122 390.145 206.718C389.912 206.314 389.857 205.899 389.981 205.474C390.109 205.03 390.387 204.685 390.815 204.438C391.242 204.191 391.674 204.127 392.111 204.244C392.553 204.343 392.891 204.594 393.124 204.998C393.358 205.402 393.41 205.826 393.281 206.27C393.157 206.696 392.882 207.032 392.455 207.279ZM394.31 207.732L399.85 217.327L397.425 218.727L391.885 209.132L394.31 207.732ZM408.276 205.788C408.476 206.135 408.633 206.46 408.746 206.764L401.732 210.814C402.189 211.473 402.745 211.876 403.399 212.022C404.053 212.168 404.692 212.061 405.315 211.701C406.216 211.181 406.633 210.424 406.568 209.43L409.183 207.92C409.439 209.004 409.348 210.073 408.91 211.127C408.464 212.169 407.67 213.02 406.527 213.68C405.603 214.213 404.655 214.491 403.683 214.514C402.716 214.518 401.807 214.265 400.958 213.754C400.121 213.237 399.419 212.488 398.852 211.506C398.279 210.513 397.977 209.525 397.948 208.541C397.919 207.557 398.152 206.653 398.646 205.829C399.14 205.005 399.86 204.319 400.807 203.773C401.719 203.246 402.647 202.972 403.589 202.952C404.543 202.924 405.427 203.161 406.239 203.662C407.057 204.144 407.736 204.853 408.276 205.788ZM405.364 206.546C404.993 205.929 404.481 205.562 403.829 205.446C403.17 205.318 402.523 205.438 401.888 205.805C401.287 206.151 400.886 206.629 400.684 207.239C400.486 207.83 400.528 208.476 400.809 209.176L405.364 206.546ZM420.698 192.497L423.432 203.712L420.816 205.222L415.197 199.529L417.318 207.242L414.685 208.762L406.322 200.797L408.781 199.377L414.699 205.706L412.315 197.337L414.878 195.857L420.889 202.109L418.377 193.837L420.698 192.497ZM431.312 199.371C430.527 199.824 429.742 200.092 428.959 200.175C428.168 200.246 427.449 200.146 426.799 199.874C426.161 199.596 425.655 199.173 425.28 198.604L427.722 197.194C427.982 197.536 428.338 197.739 428.789 197.802C429.253 197.857 429.721 197.749 430.194 197.475C430.656 197.209 430.961 196.91 431.108 196.578C431.267 196.24 431.263 195.927 431.097 195.638C430.917 195.326 430.622 195.189 430.212 195.225C429.807 195.244 429.204 195.36 428.405 195.576C427.589 195.816 426.897 195.977 426.328 196.059C425.771 196.134 425.215 196.078 424.66 195.89C424.117 195.696 423.659 195.275 423.285 194.628C422.979 194.097 422.849 193.526 422.896 192.914C422.954 192.295 423.193 191.695 423.612 191.114C424.043 190.527 424.645 190.01 425.419 189.563C426.562 188.903 427.641 188.665 428.655 188.849C429.663 189.022 430.482 189.573 431.111 190.503L428.79 191.843C428.535 191.482 428.2 191.275 427.785 191.222C427.375 191.151 426.933 191.253 426.459 191.526C426.02 191.779 425.726 192.057 425.577 192.358C425.44 192.653 425.454 192.945 425.621 193.234C425.808 193.557 426.113 193.712 426.536 193.699C426.953 193.674 427.551 193.551 428.333 193.331C429.126 193.104 429.8 192.953 430.357 192.878C430.914 192.803 431.468 192.868 432.018 193.074C432.573 193.262 433.039 193.67 433.418 194.298C433.738 194.852 433.868 195.439 433.81 196.058C433.763 196.67 433.524 197.27 433.094 197.857C432.668 198.426 432.074 198.931 431.312 199.371Z" fill="#232D42"/>
<rect opacity="0.2" x="536.011" y="116.198" width="31" height="31" rx="3.5" transform="rotate(-30 536.011 116.198)" stroke="#232D42"/>
<path fill-rule="evenodd" clip-rule="evenodd" d="M550.32 121.985C549.768 121.028 550.096 119.805 551.052 119.253L557.981 115.253C558.937 114.7 560.16 115.028 560.713 115.985L564.713 122.913C565.265 123.869 564.937 125.093 563.981 125.645L557.052 129.645C556.096 130.197 554.873 129.869 554.32 128.913L550.32 121.985Z" stroke="#232D42" stroke-width="2" stroke-linecap="round" stroke-linejoin="round"/>
<path d="M556.16 114.764L557.493 117.074" stroke="#232D42" stroke-width="2" stroke-linecap="round" stroke-linejoin="round"/>
<path d="M551.541 117.431L552.874 119.741" stroke="#232D42" stroke-width="2" stroke-linecap="round" stroke-linejoin="round"/>
<path d="M551.32 123.717L561.713 117.717" stroke="#232D42" stroke-width="2" stroke-linecap="round" stroke-linejoin="round"/>
<path opacity="0.5" d="M531.025 285.966L534.51 292.002L533.722 292.457L530.237 286.421L531.025 285.966ZM534.795 286.375L536.41 289.173C536.544 289.403 536.688 289.54 536.843 289.581C536.994 289.617 537.191 289.565 537.434 289.425L538.014 289.09L538.399 289.757L537.689 290.167C537.25 290.42 536.863 290.509 536.526 290.433C536.19 290.358 535.889 290.089 535.622 289.628L534.007 286.83L533.392 287.185L533.017 286.536L533.632 286.181L532.942 284.986L533.73 284.531L534.42 285.726L535.659 285.011L536.034 285.66L534.795 286.375ZM542.555 283.951C542.642 284.101 542.725 284.264 542.804 284.442L539.011 286.632C539.31 287.083 539.68 287.358 540.122 287.457C540.567 287.546 540.997 287.471 541.413 287.231C541.753 287.035 541.991 286.793 542.126 286.508C542.264 286.213 542.302 285.906 542.241 285.587L543.09 285.097C543.226 285.626 543.187 286.145 542.973 286.654C542.755 287.157 542.363 287.572 541.798 287.898C541.347 288.158 540.885 288.291 540.41 288.295C539.941 288.296 539.499 288.171 539.084 287.918C538.665 287.659 538.314 287.284 538.031 286.794C537.747 286.303 537.597 285.816 537.58 285.333C537.563 284.851 537.674 284.409 537.913 284.01C538.154 283.601 538.506 283.263 538.968 282.997C539.418 282.737 539.873 282.605 540.333 282.601C540.792 282.597 541.215 282.715 541.599 282.955C541.987 283.186 542.305 283.518 542.555 283.951ZM541.646 284.256C541.473 283.956 541.258 283.737 541.002 283.6C540.743 283.457 540.466 283.398 540.171 283.422C539.88 283.436 539.595 283.523 539.318 283.683C538.92 283.913 538.652 284.237 538.516 284.654C538.386 285.068 538.43 285.512 538.65 285.986L541.646 284.256ZM548.334 277.577C548.704 277.364 549.078 277.252 549.456 277.241C549.832 277.225 550.191 277.321 550.535 277.53C550.88 277.74 551.178 278.064 551.432 278.502L553.047 281.3L552.267 281.75L550.717 279.065C550.444 278.592 550.117 278.299 549.737 278.187C549.36 278.067 548.972 278.121 548.573 278.351C548.163 278.588 547.914 278.909 547.825 279.315C547.732 279.715 547.829 280.163 548.116 280.659L549.626 283.275L548.846 283.725L547.296 281.04C547.023 280.567 546.696 280.274 546.316 280.162C545.939 280.042 545.551 280.096 545.152 280.326C544.742 280.563 544.493 280.884 544.404 281.29C544.311 281.69 544.408 282.138 544.695 282.634L546.205 285.25L545.417 285.705L542.677 280.959L543.465 280.504L543.86 281.188C543.873 280.85 543.97 280.539 544.154 280.256C544.342 279.97 544.596 279.736 544.913 279.552C545.312 279.322 545.715 279.208 546.125 279.211C546.534 279.213 546.914 279.344 547.264 279.604C547.203 279.192 547.273 278.806 547.472 278.444C547.671 278.083 547.959 277.794 548.334 277.577ZM557.166 273.61L557.737 275.358L558.932 274.668L559.332 275.361L557.99 276.136L558.618 278.083L557.864 278.518L557.236 276.571L555.418 277.621L556.045 279.568L555.292 280.003L554.664 278.056L553.305 278.841L552.905 278.148L554.412 277.278L553.841 275.53L552.498 276.305L552.098 275.612L553.588 274.752L552.96 272.805L553.714 272.37L554.341 274.317L556.16 273.267L555.532 271.32L556.286 270.885L556.913 272.832L558.117 272.137L558.517 272.83L557.166 273.61ZM556.413 274.045L554.594 275.095L555.165 276.843L556.984 275.793L556.413 274.045ZM561.715 275.452C562.109 274.44 562.405 273.626 562.604 273.011C562.799 272.39 562.92 271.792 562.967 271.219C563.015 270.637 562.925 270.146 562.695 269.748C562.478 269.373 562.216 269.132 561.907 269.025C561.602 268.909 561.247 268.967 560.843 269.201C560.45 269.427 560.216 269.728 560.14 270.103C560.066 270.469 560.139 270.862 560.358 271.282L559.596 271.722C559.246 271.062 559.154 270.449 559.32 269.883C559.486 269.318 559.861 268.867 560.444 268.53C561.039 268.187 561.604 268.08 562.141 268.209C562.683 268.335 563.121 268.686 563.454 269.263C563.731 269.743 563.856 270.294 563.831 270.916C563.808 271.53 563.715 272.115 563.551 272.672C563.384 273.222 563.149 273.889 562.847 274.672L565.826 272.952L566.206 273.61L562.04 276.015L561.715 275.452Z" fill="#232D42"/>
<circle cx="519.263" cy="296.187" r="4" transform="rotate(-30 519.263 296.187)" fill="#F25368"/>
<path opacity="0.5" d="M464.343 324.466L467.828 330.502L467.04 330.957L463.555 324.921L464.343 324.466ZM468.114 324.875L469.729 327.673C469.862 327.903 470.006 328.04 470.161 328.081C470.313 328.117 470.51 328.065 470.752 327.925L471.332 327.59L471.717 328.257L471.007 328.667C470.568 328.92 470.181 329.009 469.845 328.933C469.509 328.858 469.207 328.589 468.941 328.128L467.326 325.33L466.711 325.685L466.336 325.036L466.951 324.681L466.261 323.486L467.049 323.031L467.739 324.226L468.977 323.511L469.352 324.16L468.114 324.875ZM475.874 322.451C475.96 322.601 476.043 322.764 476.123 322.942L472.329 325.132C472.628 325.583 472.999 325.858 473.441 325.957C473.885 326.046 474.315 325.971 474.731 325.731C475.072 325.535 475.31 325.293 475.445 325.008C475.582 324.713 475.621 324.406 475.56 324.087L476.408 323.597C476.545 324.126 476.506 324.645 476.291 325.154C476.074 325.657 475.682 326.072 475.116 326.398C474.666 326.658 474.203 326.791 473.729 326.795C473.26 326.796 472.818 326.671 472.402 326.418C471.983 326.159 471.632 325.784 471.349 325.294C471.066 324.803 470.916 324.316 470.899 323.833C470.881 323.351 470.992 322.909 471.231 322.51C471.473 322.101 471.824 321.763 472.286 321.497C472.736 321.237 473.191 321.105 473.651 321.101C474.111 321.097 474.533 321.215 474.918 321.455C475.305 321.686 475.624 322.018 475.874 322.451ZM474.965 322.756C474.791 322.456 474.577 322.237 474.32 322.1C474.061 321.957 473.784 321.898 473.49 321.922C473.198 321.936 472.913 322.023 472.636 322.183C472.238 322.413 471.971 322.737 471.834 323.154C471.704 323.568 471.749 324.012 471.968 324.486L474.965 322.756ZM481.652 316.077C482.022 315.864 482.396 315.752 482.775 315.741C483.15 315.725 483.51 315.821 483.854 316.03C484.198 316.24 484.497 316.564 484.75 317.002L486.365 319.8L485.586 320.25L484.036 317.565C483.762 317.092 483.436 316.799 483.055 316.687C482.678 316.567 482.29 316.621 481.892 316.851C481.482 317.088 481.232 317.409 481.143 317.815C481.05 318.215 481.148 318.663 481.434 319.159L482.944 321.775L482.165 322.225L480.615 319.54C480.341 319.067 480.015 318.774 479.635 318.662C479.257 318.542 478.869 318.596 478.471 318.826C478.061 319.063 477.811 319.384 477.722 319.79C477.63 320.19 477.727 320.638 478.013 321.134L479.523 323.75L478.735 324.205L475.995 319.459L476.783 319.004L477.178 319.688C477.191 319.35 477.289 319.039 477.472 318.756C477.661 318.47 477.914 318.236 478.232 318.052C478.63 317.822 479.034 317.708 479.443 317.711C479.852 317.713 480.232 317.844 480.582 318.104C480.522 317.692 480.591 317.306 480.79 316.944C480.99 316.583 481.277 316.294 481.652 316.077ZM490.485 312.11L491.055 313.858L492.251 313.168L492.651 313.861L491.308 314.636L491.936 316.583L491.182 317.018L490.555 315.071L488.736 316.121L489.364 318.068L488.61 318.503L487.983 316.556L486.623 317.341L486.223 316.648L487.73 315.778L487.159 314.03L485.817 314.805L485.417 314.112L486.906 313.252L486.279 311.305L487.032 310.87L487.66 312.817L489.478 311.767L488.851 309.82L489.604 309.385L490.232 311.332L491.436 310.637L491.836 311.33L490.485 312.11ZM489.731 312.545L487.912 313.595L488.483 315.343L490.302 314.293L489.731 312.545ZM492.086 309.107L491.671 308.388L493.299 307.448L496.914 313.709L496.117 314.169L492.917 308.627L492.086 309.107Z" fill="#232D42"/>
<circle cx="451.714" cy="335.187" r="4" transform="rotate(-30 451.714 335.187)" fill="#068F7D"/>
<defs>
<filter id="filter0_d_1_3739" x="-116.684" y="85.5085" width="582.43" height="554.181" filterUnits="userSpaceOnUse" color-interpolation-filters="sRGB">
<feFlood flood-opacity="0" result="BackgroundImageFix"/>
<feColorMatrix in="SourceAlpha" type="matrix" values="0 0 0 0 0 0 0 0 0 0 0 0 0 0 0 0 0 0 127 0" result="hardAlpha"/>
<feOffset dx="-40" dy="40"/>
<feGaussianBlur stdDeviation="65"/>
<feColorMatrix type="matrix" values="0 0 0 0 0.62862 0 0 0 0 0.557604 0 0 0 0 0.841667 0 0 0 0.18 0"/>
<feBlend mode="normal" in2="BackgroundImageFix" result="effect1_dropShadow_1_3739"/>
<feBlend mode="normal" in="SourceGraphic" in2="effect1_dropShadow_1_3739" result="shape"/>
</filter>
<filter id="filter1_d_1_3739" x="210.803" y="218.387" width="70.1113" height="62.9362" filterUnits="userSpaceOnUse" color-interpolation-filters="sRGB">
<feFlood flood-opacity="0" result="BackgroundImageFix"/>
<feColorMatrix in="SourceAlpha" type="matrix" values="0 0 0 0 0 0 0 0 0 0 0 0 0 0 0 0 0 0 127 0" result="hardAlpha"/>
<feOffset dy="6"/>
<feGaussianBlur stdDeviation="5"/>
<feColorMatrix type="matrix" values="0 0 0 0 0.863571 0 0 0 0 0.82875 0 0 0 0 0.975 0 0 0 0.4 0"/>
<feBlend mode="normal" in2="BackgroundImageFix" result="effect1_dropShadow_1_3739"/>
<feBlend mode="normal" in="SourceGraphic" in2="effect1_dropShadow_1_3739" result="shape"/>
</filter>
<filter id="filter2_d_1_3739" x="154.316" y="0.317139" width="582.43" height="554.181" filterUnits="userSpaceOnUse" color-interpolation-filters="sRGB">
<feFlood flood-opacity="0" result="BackgroundImageFix"/>
<feColorMatrix in="SourceAlpha" type="matrix" values="0 0 0 0 0 0 0 0 0 0 0 0 0 0 0 0 0 0 127 0" result="hardAlpha"/>
<feOffset dx="-60" dy="60"/>
<feGaussianBlur stdDeviation="65"/>
<feColorMatrix type="matrix" values="0 0 0 0 0.62862 0 0 0 0 0.557604 0 0 0 0 0.841667 0 0 0 0.3 0"/>
<feBlend mode="normal" in2="BackgroundImageFix" result="effect1_dropShadow_1_3739"/>
<feBlend mode="normal" in="SourceGraphic" in2="effect1_dropShadow_1_3739" result="shape"/>
</filter>
<filter id="filter3_d_1_3739" x="401.408" y="236.306" width="62.5156" height="55.7793" filterUnits="userSpaceOnUse" color-interpolation-filters="sRGB">
<feFlood flood-opacity="0" result="BackgroundImageFix"/>
<feColorMatrix in="SourceAlpha" type="matrix" values="0 0 0 0 0 0 0 0 0 0 0 0 0 0 0 0 0 0 127 0" result="hardAlpha"/>
<feOffset dy="6"/>
<feGaussianBlur stdDeviation="5"/>
<feColorMatrix type="matrix" values="0 0 0 0 0.863571 0 0 0 0 0.82875 0 0 0 0 0.975 0 0 0 0.4 0"/>
<feBlend mode="normal" in2="BackgroundImageFix" result="effect1_dropShadow_1_3739"/>
<feBlend mode="normal" in="SourceGraphic" in2="effect1_dropShadow_1_3739" result="shape"/>
</filter>
</defs>
</svg>
