<svg width="1440" height="692" viewBox="0 0 1440 692" fill="none" xmlns="http://www.w3.org/2000/svg">
<mask id="mask0_1_3807" style="mask-type:alpha" maskUnits="userSpaceOnUse" x="0" y="0" width="1440" height="692">
<rect width="1440" height="692" transform="matrix(1 0 0 -1 0 692)" fill="white"/>
</mask>
<g mask="url(#mask0_1_3807)">
<path opacity="0.1" d="M653.139 152.02C665.76 127.459 695.903 117.781 720.464 130.402L1998.45 787.144C2023.01 799.766 2032.69 829.908 2020.06 854.469L1546.48 1776.03C1533.86 1800.59 1503.92 1810.37 1479.37 1797.75C1365.5 1739.27 1056.31 1580.44 840.648 1469.51C625.49 1358.84 315.161 1199.43 201.005 1140.79C176.438 1128.17 166.946 1098.13 179.569 1073.56L653.139 152.02Z" fill="#F3E039"/>
<path opacity="0.1" d="M273.139 145.02C285.76 120.459 315.903 110.781 340.464 123.402L1618.45 780.144C1643.01 792.766 1652.69 822.908 1640.06 847.469L1166.48 1769.03C1153.86 1793.59 1123.92 1803.37 1099.37 1790.75C985.501 1732.27 676.308 1573.44 460.648 1462.51C245.49 1351.84 -64.8389 1192.43 -178.995 1133.79C-203.562 1121.17 -213.054 1091.13 -200.431 1066.56L273.139 145.02Z" fill="#F3E039"/>
</g>
</svg>
