<svg width="52" height="48" viewBox="0 0 52 48" fill="none" xmlns="http://www.w3.org/2000/svg">
<rect width="52" height="48" rx="10" fill="#FFDED4"/>
<g clip-path="url(#clip0_415_886)">
<path d="M25.9998 38.7698C17.8557 38.7698 11.23 32.144 11.23 23.9999C11.23 15.8558 17.8557 9.23009 25.9998 9.23009C34.1439 9.23009 40.7697 15.8558 40.7697 23.9999C40.7697 32.144 34.1439 38.7698 25.9998 38.7698ZM26.328 29.3033C28.4542 29.3374 30.5155 29.7004 32.3893 30.3529C32.8563 28.5339 33.1291 26.4908 33.1543 24.3282H26.328V29.3033ZM26.328 29.9597V38.0969C28.8484 37.8714 31.0321 35.0635 32.2156 30.9871C30.4006 30.3497 28.3975 29.9939 26.328 29.9597ZM25.6716 29.9597C23.6019 29.9939 21.5991 30.3497 19.7837 30.9874C20.9672 35.0635 23.1509 37.8714 25.6716 38.0969V29.9597ZM25.6716 29.3033V24.3282H18.8453C18.8706 26.4908 19.1433 28.5339 19.6104 30.3529C21.4842 29.7004 23.5454 29.3374 25.6716 29.3033ZM18.1889 24.3282H11.8946C11.9688 27.5506 13.1261 30.5088 15.0186 32.852C16.1707 31.9218 17.5196 31.1544 19.0045 30.5748C18.5053 28.6859 18.2151 26.5679 18.1889 24.3282ZM18.1889 23.6717C18.2148 21.4319 18.5053 19.314 19.0045 17.4247C17.52 16.8451 16.1707 16.0777 15.0189 15.1475C13.1261 17.491 11.9688 20.4493 11.8946 23.6717H18.1889ZM18.8453 23.6717H25.6716V18.6969C23.5454 18.6628 21.4842 18.2994 19.6104 17.6469C19.1433 19.4659 18.8706 21.5091 18.8453 23.6717ZM25.6716 18.0405V9.90294C23.1509 10.1284 20.9672 12.9363 19.7837 17.0128C21.5991 17.6502 23.6022 18.006 25.6716 18.0405ZM26.328 18.0405C28.3975 18.0063 30.4006 17.6505 32.2156 17.0131C31.0321 12.9363 28.8488 10.1284 26.328 9.90294V18.0405ZM26.328 18.6969V23.6717H33.1543C33.1291 21.5091 32.8563 19.4659 32.3893 17.6469C30.5155 18.2994 28.4542 18.6628 26.328 18.6969ZM33.8104 23.6717H40.105C40.0308 20.4493 38.8735 17.491 36.9807 15.1475C35.8287 16.0777 34.4797 16.8454 32.9948 17.4247C33.494 19.3143 33.7845 21.4319 33.8104 23.6717ZM33.8104 24.3282C33.7845 26.5679 33.494 28.6856 32.9948 30.5748C34.4797 31.1544 35.8287 31.9218 36.9807 32.852C38.8735 30.5085 40.0305 27.5503 40.1047 24.3282H33.8104ZM36.5563 33.3529C35.4745 32.4814 34.2089 31.7603 32.8166 31.2102C31.9143 34.2456 30.462 36.6213 28.7158 37.8485C31.8086 37.2429 34.5417 35.6241 36.5563 33.3529ZM23.2838 37.8485C21.5377 36.6213 20.0853 34.2456 19.183 31.2106C17.7907 31.7607 16.5251 32.4818 15.4433 33.3532C17.4576 35.6241 20.1907 37.2429 23.2838 37.8485ZM15.443 14.647C16.5248 15.5184 17.7901 16.2395 19.1827 16.7896C20.085 13.7546 21.5374 11.3789 23.2835 10.1517C20.1907 10.757 17.4576 12.3757 15.443 14.647ZM28.7158 10.1514C30.462 11.3786 31.9143 13.7543 32.8166 16.7896C34.2092 16.2395 35.4745 15.5184 36.5563 14.647C34.5417 12.3757 31.809 10.757 28.7158 10.1514Z" fill="black"/>
</g>
<defs>
<clipPath id="clip0_415_886">
<rect width="30" height="30" fill="white" transform="matrix(1 0 0 -1 11 39)"/>
</clipPath>
</defs>
</svg>
