<svg width="163" height="50" viewBox="0 0 163 50" fill="none" xmlns="http://www.w3.org/2000/svg">
<path d="M27.7212 0.759367C26.6223 -0.27712 24.8694 -0.249048 23.806 0.822069L16.0079 8.67676C14.9445 9.74788 14.9733 11.4564 16.0722 12.4929L24.1308 20.0937C25.2298 21.1301 26.9827 21.1021 28.0461 20.031L35.8442 12.1763C36.9076 11.1051 36.8788 9.3966 35.7798 8.36011L27.7212 0.759367Z" fill="#068F7D"/>
<path d="M27.4443 29.9063C26.3454 28.8699 24.5925 28.8979 23.5291 29.969L15.731 37.8237C14.6676 38.8949 14.6964 40.6034 15.7953 41.6399L23.8539 49.2406C24.9529 50.2771 26.7058 50.2491 27.7692 49.1779L35.5673 41.3232C36.6307 40.2521 36.6019 38.5436 35.5029 37.5071L27.4443 29.9063Z" fill="#E38E18"/>
<path d="M12.4924 15.6027C11.3935 14.5662 9.64058 14.5943 8.57718 15.6654L0.779083 23.5201C-0.284317 24.5912 -0.255513 26.2998 0.843416 27.3363L8.90205 34.937C10.001 35.9735 11.7539 35.9454 12.8173 34.8743L20.6154 27.0196C21.6788 25.9485 21.65 24.24 20.5511 23.2035L12.4924 15.6027Z" fill="#019CDE"/>
<path fill-rule="evenodd" clip-rule="evenodd" d="M27.2479 37.6463C27.917 38.0967 28.3555 38.8494 28.3555 39.7019C28.3555 41.0381 27.2785 42.129 25.9245 42.1951L25.8582 42.2607L25.7933 42.1983C24.3921 42.1978 23.254 41.1006 23.2334 39.7395L11.2334 28.2138C11.0205 28.2697 10.7966 28.2995 10.5655 28.2995C9.15099 28.2995 8.0043 27.1818 8.0043 25.8031C8.0043 24.4244 9.15099 23.3067 10.5655 23.3067C10.8586 23.3067 11.1402 23.3547 11.4024 23.443L23.3313 11.2421C23.2673 11.0238 23.2331 10.7932 23.2331 10.5549C23.2331 9.17621 24.3798 8.05854 25.7943 8.05854C27.2088 8.05854 28.3555 9.17621 28.3555 10.5549C28.3555 11.4075 27.917 12.1602 27.2479 12.6105V37.6463ZM24.4791 13.9802V37.147L13.0927 26.2107C13.1151 26.078 13.1267 25.9419 13.1267 25.8031C13.1267 25.7347 13.1239 25.667 13.1184 25.6L24.4791 13.9802Z" fill="white"/>
<path d="M47.6102 15.6208H54.7542C55.9928 15.6208 57.0788 15.7003 58.0122 15.8593C58.9542 16.0094 59.7698 16.2258 60.4589 16.5084C61.148 16.791 61.7193 17.131 62.1729 17.5285C62.6352 17.9259 63.0016 18.3631 63.272 18.84C63.5511 19.308 63.7474 19.8114 63.8608 20.3502C63.9742 20.8889 64.0309 21.4453 64.0309 22.0193C64.0309 22.5051 63.9742 22.9908 63.8608 23.4765C63.7561 23.9623 63.5729 24.4259 63.3113 24.8675C63.0583 25.3091 62.7181 25.7198 62.2907 26.0995C61.8633 26.4793 61.3355 26.8105 60.7075 27.0931C60.0882 27.3757 59.3511 27.5965 58.4963 27.7555C57.6502 27.9144 56.6732 27.9939 55.5654 27.9939C55.4084 27.9939 55.2121 27.9939 54.9766 27.9939C54.7411 27.9851 54.51 27.9718 54.2832 27.9542L53.4719 27.9012V34.3527H47.6102V15.6208ZM53.4719 25.0265H54.8196C55.4477 25.0265 55.9754 24.9514 56.4028 24.8013C56.8302 24.6423 57.1748 24.4304 57.4365 24.1654C57.6981 23.9005 57.8857 23.5869 57.9991 23.2248C58.1125 22.8628 58.1692 22.4742 58.1692 22.0591C58.1692 21.3967 58.0863 20.8491 57.9206 20.4164C57.7548 19.9836 57.5193 19.6392 57.214 19.3831C56.9174 19.1182 56.5642 18.9327 56.1542 18.8267C55.7442 18.7207 55.2994 18.6677 54.8196 18.6677H53.4719V25.0265Z" fill="#068F7D"/>
<path d="M88 15.9388H93.8617V34.6706H88V15.9388Z" fill="#068F7D"/>
<path d="M76.6571 34.8743C75.6976 34.8743 74.7817 34.7639 73.9094 34.5431C73.0372 34.3312 72.226 34.0221 71.4758 33.6158C70.7256 33.2096 70.0452 32.715 69.4347 32.1321C68.8328 31.5492 68.3138 30.8913 67.8776 30.1582C67.4502 29.4252 67.1187 28.626 66.8832 27.7605C66.6477 26.895 66.53 25.9721 66.53 24.9918C66.53 23.561 66.8091 22.2584 67.3674 21.0838C67.9343 19.9003 68.7194 18.8891 69.7225 18.0501C70.7343 17.2023 71.9337 16.5487 73.3207 16.0895C74.7163 15.6303 76.2472 15.4006 77.9132 15.4006C78.8117 15.4006 79.7625 15.4713 80.7656 15.6126C81.7687 15.7451 82.7718 15.9614 83.7749 16.2617L82.9375 20.5009C82.0391 20.1741 81.2192 19.9489 80.4777 19.8253C79.7363 19.6928 79.021 19.6266 78.3319 19.6266C77.416 19.6266 76.5917 19.759 75.859 20.024C75.1263 20.2801 74.5026 20.6422 73.988 21.1103C73.4733 21.5783 73.0764 22.148 72.7973 22.8192C72.5269 23.4816 72.3917 24.2146 72.3917 25.0183C72.3917 25.9102 72.4833 26.7051 72.6665 27.4028C72.8496 28.1005 73.1331 28.6922 73.5169 29.1779C73.9007 29.6637 74.3848 30.0346 74.9693 30.2907C75.5624 30.5468 76.2646 30.6749 77.0758 30.6749H78.7506V26.7934L75.8197 27.1908V23.8922H83.7749V32.8475C83.1294 33.2361 82.5058 33.5628 81.9039 33.8278C81.302 34.0839 80.7089 34.2914 80.1244 34.4504C79.54 34.6005 78.96 34.7065 78.3842 34.7683C77.8173 34.839 77.2416 34.8743 76.6571 34.8743Z" fill="#068F7D"/>
<path d="M97.8666 15.6208H110.846V19.0917H103.728V23.0526H110.009V26.444H103.728V30.5374H110.846V34.3527H97.8666V15.6208Z" fill="#068F7D"/>
<path d="M115.138 15.6208H127.803V19.0917H120.999V23.0924H126.966V26.9076H120.999V34.3527H115.138V15.6208Z" fill="#068F7D"/>
<path d="M130.826 15.6208H137.97C139.208 15.6208 140.294 15.7003 141.228 15.8593C142.17 16.0094 142.985 16.2258 143.674 16.5084C144.363 16.791 144.935 17.131 145.388 17.5285C145.851 17.9259 146.217 18.3631 146.487 18.84C146.767 19.308 146.963 19.8114 147.076 20.3502C147.19 20.8889 147.246 21.4453 147.246 22.0193C147.246 22.5051 147.19 22.9908 147.076 23.4765C146.972 23.9623 146.788 24.4259 146.527 24.8675C146.274 25.3091 145.934 25.7198 145.506 26.0995C145.079 26.4793 144.551 26.8105 143.923 27.0931C143.304 27.3757 142.567 27.5965 141.712 27.7555C140.866 27.9144 139.889 27.9939 138.781 27.9939C138.624 27.9939 138.428 27.9939 138.192 27.9939C137.957 27.9851 137.725 27.9718 137.499 27.9542L136.687 27.9012V34.3527H130.826V15.6208ZM136.687 25.0265H138.035C138.663 25.0265 139.191 24.9514 139.618 24.8013C140.046 24.6423 140.39 24.4304 140.652 24.1654C140.914 23.9005 141.101 23.5869 141.215 23.2248C141.328 22.8628 141.385 22.4742 141.385 22.0591C141.385 21.3967 141.302 20.8491 141.136 20.4164C140.97 19.9836 140.735 19.6392 140.43 19.3831C140.133 19.1182 139.78 18.9327 139.37 18.8267C138.96 18.7207 138.515 18.6677 138.035 18.6677H136.687V25.0265Z" fill="#068F7D"/>
<path d="M152.572 34.3527V19.9395H148.385V15.6208H162.712V19.9395H158.433V34.3527H152.572Z" fill="#068F7D"/>
</svg>
