<svg width="52" height="48" viewBox="0 0 52 48" fill="none" xmlns="http://www.w3.org/2000/svg">
<rect width="52" height="48" rx="10" fill="#FFEED4"/>
<path d="M42.7391 30.1572H9.26074V12.7005C9.26074 11.5886 10.165 10.6843 11.2769 10.6843H40.7229C41.8344 10.6843 42.7391 11.5886 42.7391 12.7005V30.1572ZM10.0047 29.4132H41.9951V12.7005C41.9951 11.9989 41.4245 11.4283 40.7229 11.4283H11.2769C10.5753 11.4283 10.0047 11.9989 10.0047 12.7005V29.4132Z" fill="#331B3B"/>
<path d="M40.7229 34.7788H11.2769C10.165 34.7788 9.26074 33.8741 9.26074 32.7626V29.4133H42.7391V32.7626C42.7391 33.8741 41.8344 34.7788 40.7229 34.7788ZM10.0047 30.1573V32.7626C10.0047 33.4642 10.5753 34.0348 11.2769 34.0348H40.7229C41.4245 34.0348 41.9951 33.4642 41.9951 32.7626V30.1573H10.0047Z" fill="#331B3B"/>
<path d="M31.1426 39.3775H20.8573C20.6966 39.3775 20.5542 39.2745 20.5039 39.1216C20.4537 38.9687 20.5077 38.8013 20.6371 38.7061C22.0499 37.6687 22.9929 36.0837 23.2242 34.3577C23.2488 34.1732 23.4065 34.0352 23.5929 34.0352H28.4063C28.5927 34.0352 28.7504 34.1728 28.7749 34.3577C29.0063 36.084 29.9497 37.6687 31.3624 38.7061C31.4923 38.8013 31.5458 38.9687 31.4956 39.1216C31.4454 39.2745 31.3037 39.3775 31.1426 39.3775ZM21.8661 38.6336H30.1342C29.0766 37.592 28.3546 36.2391 28.089 34.7787H23.9109C23.6457 36.2391 22.9237 37.592 21.8661 38.6336Z" fill="#331B3B"/>
<path d="M31.9716 41.3158H20.028C19.2885 41.3158 18.687 40.7143 18.687 39.9748C18.687 39.2353 19.2885 38.6338 20.028 38.6338H31.9716C32.7111 38.6338 33.3126 39.2353 33.3126 39.9748C33.3126 40.7143 32.7111 41.3158 31.9716 41.3158ZM20.028 39.3774C19.6988 39.3774 19.431 39.6452 19.431 39.9744C19.431 40.3036 19.6988 40.5714 20.028 40.5714H31.9716C32.3012 40.5714 32.5686 40.3036 32.5686 39.9744C32.5686 39.6452 32.3008 39.3774 31.9716 39.3774H20.028Z" fill="#331B3B"/>
<path d="M26.6326 32.4678H25.3671C25.1618 32.4678 24.9951 32.3016 24.9951 32.0959C24.9951 31.8902 25.1618 31.7239 25.3671 31.7239H26.6326C26.8383 31.7239 27.0046 31.8902 27.0046 32.0959C27.0046 32.3016 26.8383 32.4678 26.6326 32.4678Z" fill="#331B3B"/>
<path d="M22.7581 24.0391C21.4591 24.0391 21.0849 22.883 20.784 21.9541C20.476 21.003 20.2528 20.4201 19.5702 20.4201C19.3649 20.4201 19.1982 20.2534 19.1982 20.0481C19.1982 19.8428 19.3649 19.6761 19.5702 19.6761C20.2528 19.6761 20.4764 19.0932 20.7844 18.1421C21.0853 17.2129 21.4595 16.0571 22.7585 16.0571C22.9638 16.0571 23.1305 16.2238 23.1305 16.4291C23.1305 16.6344 22.9638 16.8011 22.7585 16.8011C22.0372 16.8011 21.8073 17.3977 21.4923 18.3712C21.3022 18.9586 21.082 19.6378 20.6144 20.0481C21.082 20.4584 21.3022 21.1376 21.4923 21.725C21.8073 22.6985 22.0372 23.2951 22.7585 23.2951C22.9638 23.2951 23.1305 23.4618 23.1305 23.6671C23.1305 23.8725 22.9634 24.0391 22.7581 24.0391Z" fill="#331B3B"/>
<path d="M29.2416 24.0391C29.0359 24.0391 28.8696 23.8725 28.8696 23.6671C28.8696 23.4618 29.0359 23.2951 29.2416 23.2951C29.9625 23.2951 30.1928 22.6985 30.5078 21.7246C30.6979 21.1376 30.9181 20.458 31.3857 20.0481C30.9178 19.6378 30.6975 18.9586 30.5078 18.3716C30.1924 17.3977 29.9625 16.8011 29.2416 16.8011C29.0359 16.8011 28.8696 16.6344 28.8696 16.4291C28.8696 16.2238 29.0359 16.0571 29.2416 16.0571C30.5406 16.0571 30.9148 17.2132 31.2157 18.1421C31.5237 19.0932 31.7469 19.6761 32.4295 19.6761C32.6352 19.6761 32.8015 19.8428 32.8015 20.0481C32.8015 20.2534 32.6352 20.4201 32.4295 20.4201C31.7469 20.4201 31.5233 21.003 31.2153 21.9541C30.9148 22.883 30.5406 24.0391 29.2416 24.0391Z" fill="#331B3B"/>
<path d="M24.5376 24.9034C24.4986 24.9034 24.4588 24.8971 24.4193 24.884C24.2248 24.8186 24.1195 24.6077 24.185 24.4131L27.1906 15.4473C27.256 15.2527 27.467 15.1478 27.6615 15.2129C27.8564 15.2784 27.9617 15.4893 27.8962 15.6838L24.8906 24.6497C24.8382 24.8048 24.6931 24.9034 24.5376 24.9034Z" fill="#331B3B"/>
</svg>
