<svg width="1400" height="662" viewBox="0 0 1400 662" fill="none" xmlns="http://www.w3.org/2000/svg">
<path d="M1453.91 377.542C1453.95 378.885 1453.98 380.234 1453.99 381.588L1452.99 381.598C1453 382.271 1453 382.946 1453 383.622C1453 384.285 1453 384.947 1452.99 385.609L1453.99 385.619C1453.98 386.95 1453.95 388.282 1453.91 389.613L1452.91 389.584C1452.87 390.909 1452.82 392.234 1452.76 393.559L1453.76 393.608C1453.69 394.938 1453.61 396.268 1453.52 397.599L1452.53 397.531C1452.44 398.852 1452.33 400.172 1452.22 401.493L1453.22 401.579C1453.1 402.906 1452.97 404.232 1452.83 405.558L1451.84 405.453C1451.7 406.773 1451.55 408.092 1451.39 409.411L1452.38 409.534C1452.21 410.853 1452.04 412.171 1451.85 413.488L1450.86 413.348C1450.68 414.659 1450.48 415.97 1450.27 417.281L1451.25 417.439C1451.04 418.755 1450.82 420.071 1450.58 421.385L1449.6 421.209C1449.37 422.512 1449.12 423.814 1448.87 425.115L1449.85 425.308C1449.59 426.613 1449.32 427.917 1449.04 429.22L1448.07 429.011C1447.79 430.308 1447.5 431.604 1447.2 432.899L1448.17 433.125C1447.87 434.422 1447.56 435.717 1447.23 437.01L1446.26 436.768C1445.94 438.052 1445.61 439.335 1445.27 440.616L1446.24 440.874C1445.89 442.161 1445.54 443.446 1445.17 444.729L1444.21 444.456C1443.85 445.732 1443.47 447.007 1443.09 448.28L1444.04 448.569C1443.66 449.841 1443.27 451.11 1442.86 452.378L1441.91 452.074C1441.5 453.337 1441.09 454.598 1440.67 455.857L1441.61 456.176C1441.19 457.44 1440.75 458.702 1440.31 459.962L1439.37 459.628C1438.92 460.876 1438.47 462.121 1438.01 463.364L1438.95 463.712C1438.49 464.959 1438.01 466.204 1437.53 467.447L1436.6 467.085C1436.12 468.323 1435.63 469.558 1435.13 470.792L1436.06 471.167C1435.56 472.4 1435.05 473.631 1434.53 474.859L1433.61 474.47C1433.09 475.69 1432.57 476.908 1432.03 478.123L1432.95 478.525C1432.41 479.744 1431.87 480.961 1431.32 482.175L1430.41 481.76C1429.85 482.968 1429.29 484.174 1428.72 485.377L1429.63 485.805C1429.06 487.005 1428.48 488.203 1427.9 489.398L1427 488.957C1426.41 490.148 1425.82 491.336 1425.22 492.521L1426.11 492.974C1425.51 494.163 1424.9 495.348 1424.27 496.531L1423.39 496.066C1422.77 497.239 1422.15 498.409 1421.52 499.576L1422.4 500.053C1421.76 501.222 1421.12 502.388 1420.47 503.551L1419.6 503.062C1418.95 504.221 1418.29 505.377 1417.63 506.529L1418.49 507.029C1417.83 508.182 1417.15 509.332 1416.47 510.479L1415.61 509.967C1414.93 511.106 1414.25 512.242 1413.56 513.374L1414.41 513.896C1413.71 515.032 1413.01 516.163 1412.3 517.292L1411.45 516.758C1410.74 517.883 1410.03 519.004 1409.3 520.121L1410.14 520.665C1409.42 521.78 1408.69 522.892 1407.95 524L1407.12 523.445C1406.38 524.549 1405.64 525.649 1404.89 526.746L1405.71 527.31C1404.96 528.41 1404.2 529.506 1403.43 530.597L1402.62 530.022C1401.85 531.108 1401.08 532.189 1400.31 533.267L1401.12 533.852C1400.34 534.931 1399.55 536.006 1398.76 537.076L1397.96 536.481C1397.16 537.548 1396.37 538.61 1395.56 539.669L1396.36 540.274C1395.55 541.335 1394.74 542.392 1393.92 543.444L1393.13 542.83C1392.32 543.876 1391.49 544.918 1390.67 545.955L1391.45 546.579C1390.62 547.619 1389.78 548.655 1388.93 549.686L1388.16 549.052C1387.32 550.08 1386.47 551.103 1385.62 552.121L1386.38 552.764C1385.53 553.784 1384.66 554.8 1383.79 555.81L1383.04 555.158C1382.17 556.164 1381.3 557.166 1380.42 558.163L1381.17 558.824C1380.29 559.823 1379.4 560.818 1378.51 561.807L1377.77 561.137C1376.88 562.124 1375.98 563.105 1375.08 564.081L1375.82 564.76C1374.91 565.737 1374 566.71 1373.09 567.678L1372.36 566.99C1371.45 567.955 1370.53 568.914 1369.6 569.868L1370.32 570.564C1369.39 571.52 1368.46 572.472 1367.52 573.417L1366.81 572.713C1365.88 573.656 1364.94 574.593 1363.99 575.524L1364.69 576.237C1363.74 577.172 1362.79 578.1 1361.83 579.023L1361.13 578.302C1360.17 579.222 1359.21 580.137 1358.24 581.046L1358.93 581.775C1357.96 582.686 1356.98 583.592 1356 584.492L1355.32 583.754C1354.34 584.652 1353.36 585.544 1352.37 586.429L1353.03 587.175C1352.04 588.063 1351.04 588.945 1350.04 589.821L1349.38 589.068C1348.38 589.941 1347.37 590.809 1346.36 591.67L1347.01 592.431C1346 593.295 1344.98 594.154 1343.95 595.006L1343.32 594.237C1342.29 595.086 1341.27 595.93 1340.24 596.767L1340.87 597.543C1339.83 598.383 1338.79 599.216 1337.75 600.042L1337.13 599.258C1336.09 600.082 1335.04 600.9 1333.99 601.711L1334.6 602.503C1333.55 603.318 1332.49 604.126 1331.42 604.928L1330.82 604.129C1329.76 604.928 1328.69 605.72 1327.62 606.506L1328.21 607.312C1327.14 608.1 1326.06 608.88 1324.98 609.654L1324.4 608.841C1323.32 609.614 1322.23 610.38 1321.14 611.139L1321.71 611.96C1320.62 612.722 1319.52 613.477 1318.42 614.224L1317.85 613.397C1316.76 614.142 1315.65 614.88 1314.55 615.61L1315.1 616.445C1313.98 617.179 1312.87 617.905 1311.75 618.624L1311.21 617.782C1310.09 618.501 1308.96 619.212 1307.84 619.915L1308.37 620.763C1307.24 621.469 1306.1 622.167 1304.96 622.857L1304.44 622.001C1303.31 622.689 1302.17 623.369 1301.03 624.041L1301.54 624.903C1300.39 625.58 1299.23 626.249 1298.08 626.91L1297.58 626.042C1296.42 626.701 1295.27 627.352 1294.11 627.995L1294.59 628.87C1293.42 629.515 1292.26 630.152 1291.08 630.781L1290.61 629.9C1289.44 630.528 1288.27 631.147 1287.09 631.759L1287.55 632.646C1286.37 633.261 1285.18 633.868 1283.99 634.466L1283.54 633.572C1282.35 634.168 1281.16 634.755 1279.97 635.333L1280.4 636.233C1279.21 636.814 1278.01 637.386 1276.8 637.949L1276.38 637.043C1275.17 637.608 1273.96 638.163 1272.75 638.709L1273.16 639.621C1271.95 640.169 1270.73 640.708 1269.51 641.238L1269.11 640.321C1267.89 640.849 1266.67 641.367 1265.45 641.877L1265.84 642.8C1264.6 643.314 1263.37 643.818 1262.13 644.312L1261.76 643.384C1260.53 643.878 1259.29 644.362 1258.05 644.837L1258.41 645.771C1257.17 646.247 1255.92 646.714 1254.67 647.171L1254.33 646.232C1253.08 646.688 1251.83 647.135 1250.58 647.571L1250.91 648.515C1249.65 648.955 1248.39 649.385 1247.12 649.805L1246.81 648.856C1245.55 649.275 1244.28 649.683 1243.02 650.081L1243.32 651.035C1242.05 651.435 1240.78 651.824 1239.51 652.203L1239.22 651.245C1237.95 651.624 1236.67 651.994 1235.39 652.353L1235.66 653.315C1234.38 653.676 1233.09 654.025 1231.8 654.364L1231.55 653.397C1230.26 653.735 1228.98 654.062 1227.7 654.378L1227.93 655.349C1226.64 655.668 1225.34 655.975 1224.04 656.272L1223.82 655.297C1222.53 655.593 1221.23 655.878 1219.93 656.152L1220.14 657.131C1218.83 657.406 1217.53 657.669 1216.22 657.922L1216.03 656.94C1214.73 657.192 1213.43 657.433 1212.12 657.662L1212.3 658.647C1210.98 658.878 1209.67 659.097 1208.35 659.305L1208.19 658.317C1206.88 658.524 1205.57 658.719 1204.26 658.902L1204.4 659.893C1203.08 660.077 1201.76 660.249 1200.44 660.41L1200.32 659.417C1199 659.578 1197.68 659.726 1196.36 659.863L1196.46 660.857C1195.14 660.994 1193.81 661.119 1192.49 661.232L1192.4 660.236C1191.08 660.348 1189.76 660.448 1188.44 660.536L1188.5 661.534C1187.17 661.622 1185.84 661.698 1184.51 661.761L1184.46 660.762C1183.14 660.825 1181.81 660.876 1180.49 660.914L1180.52 661.914C1179.19 661.952 1177.86 661.978 1176.52 661.99L1176.51 660.99C1175.85 660.997 1175.19 661 1174.53 661C1173.85 661 1173.18 660.997 1172.51 660.992L1172.51 661.992C1171.16 661.982 1169.82 661.961 1168.48 661.93L1168.5 660.93C1167.17 660.899 1165.83 660.858 1164.5 660.807L1164.47 661.806C1163.13 661.754 1161.79 661.692 1160.46 661.62L1160.51 660.622C1159.17 660.549 1157.84 660.466 1156.5 660.373L1156.43 661.371C1155.1 661.277 1153.76 661.174 1152.43 661.06L1152.51 660.064C1151.19 659.95 1149.86 659.826 1148.54 659.693L1148.44 660.687C1147.1 660.552 1145.76 660.406 1144.43 660.25L1144.55 659.257C1143.22 659.101 1141.9 658.936 1140.57 658.76L1140.44 659.751C1139.12 659.575 1137.79 659.388 1136.47 659.191L1136.62 658.202C1135.3 658.005 1133.97 657.797 1132.66 657.58L1132.49 658.566C1131.17 658.347 1129.85 658.118 1128.53 657.879L1128.71 656.895C1127.4 656.657 1126.09 656.409 1124.78 656.151L1124.59 657.132C1123.27 656.872 1121.96 656.601 1120.65 656.32L1120.86 655.342C1119.55 655.062 1118.25 654.772 1116.95 654.472L1116.72 655.446C1115.42 655.145 1114.11 654.833 1112.82 654.512L1113.06 653.541C1111.76 653.22 1110.47 652.889 1109.18 652.548L1108.92 653.514C1107.62 653.171 1106.33 652.818 1105.04 652.455L1105.31 651.492C1104.03 651.13 1102.75 650.759 1101.47 650.378L1101.18 651.336C1099.9 650.952 1098.62 650.558 1097.34 650.154L1097.64 649.201C1096.37 648.798 1095.1 648.385 1093.83 647.962L1093.51 648.911C1092.24 648.487 1090.98 648.053 1089.72 647.609L1090.05 646.666C1088.79 646.223 1087.53 645.77 1086.28 645.308L1085.93 646.246C1084.68 645.781 1083.42 645.306 1082.17 644.822L1082.53 643.89C1081.29 643.407 1080.05 642.915 1078.81 642.414L1078.44 643.34C1077.2 642.836 1075.96 642.322 1074.73 641.799L1075.12 640.879C1073.89 640.356 1072.66 639.824 1071.44 639.283L1071.04 640.197C1069.81 639.654 1068.59 639.101 1067.38 638.539L1067.8 637.631C1066.59 637.071 1065.38 636.501 1064.18 635.922L1063.74 636.823C1062.54 636.24 1061.33 635.648 1060.13 635.047L1060.58 634.153C1059.39 633.554 1058.2 632.946 1057.02 632.329L1056.56 633.216C1055.37 632.596 1054.19 631.967 1053.01 631.329L1053.49 630.45C1052.31 629.813 1051.14 629.167 1049.98 628.512L1049.49 629.383C1048.32 628.725 1047.16 628.059 1046 627.384L1046.51 626.52C1045.36 625.847 1044.21 625.165 1043.07 624.474L1042.55 625.33C1041.4 624.635 1040.26 623.931 1039.13 623.219L1039.66 622.372C1038.53 621.662 1037.4 620.944 1036.28 620.217L1035.74 621.056C1034.62 620.325 1033.5 619.587 1032.39 618.839L1032.95 618.01C1031.84 617.264 1030.73 616.51 1029.64 615.747L1029.07 616.568C1027.97 615.802 1026.87 615.028 1025.79 614.246L1026.37 613.434C1025.29 612.655 1024.21 611.867 1023.14 611.07L1022.54 611.873C1021.47 611.072 1020.4 610.263 1019.34 609.446L1019.95 608.653C1018.89 607.84 1017.84 607.018 1016.79 606.188L1016.17 606.97C1015.12 606.137 1014.08 605.295 1013.05 604.445L1013.68 603.672C1012.65 602.825 1011.62 601.969 1010.6 601.106L1009.96 601.869C1008.94 601.002 1007.92 600.128 1006.91 599.245L1007.57 598.493C1006.57 597.614 1005.57 596.727 1004.58 595.832L1003.91 596.574C1002.92 595.675 1001.93 594.768 1000.95 593.853L1001.63 593.122C1000.66 592.212 999.688 591.293 998.727 590.367L998.033 591.087C997.068 590.158 996.111 589.22 995.161 588.275L995.867 587.566C994.92 586.625 993.981 585.676 993.05 584.72L992.334 585.417C991.399 584.457 990.472 583.49 989.553 582.515L990.28 581.829C989.365 580.858 988.457 579.88 987.557 578.894L986.819 579.569C985.915 578.579 985.019 577.582 984.132 576.579L984.881 575.916C983.996 574.916 983.12 573.91 982.252 572.896L981.493 573.546C980.621 572.529 979.758 571.504 978.903 570.472L979.673 569.834C978.821 568.807 977.977 567.772 977.142 566.731L976.362 567.357C975.524 566.312 974.694 565.26 973.872 564.201L974.662 563.588C973.844 562.534 973.034 561.473 972.232 560.406L971.433 561.006C970.628 559.935 969.833 558.857 969.045 557.773L969.855 557.185C969.071 556.105 968.295 555.019 967.529 553.926L966.71 554.501C965.94 553.404 965.18 552.301 964.428 551.191L965.255 550.63C964.507 549.526 963.767 548.416 963.036 547.299L962.2 547.847C961.466 546.726 960.741 545.598 960.025 544.465L960.87 543.931C960.158 542.803 959.454 541.669 958.759 540.529L957.905 541.049C957.209 539.905 956.521 538.756 955.843 537.601L956.705 537.094C956.029 535.944 955.362 534.787 954.705 533.625L953.835 534.117C953.175 532.951 952.525 531.779 951.884 530.602L952.762 530.124C952.124 528.953 951.496 527.776 950.877 526.594L949.991 527.058C949.37 525.871 948.758 524.678 948.155 523.48L949.049 523.031C948.449 521.839 947.859 520.642 947.279 519.439L946.378 519.873C945.796 518.668 945.224 517.458 944.662 516.242L945.569 515.822C945.009 514.611 944.458 513.395 943.917 512.174L943.003 512.579C942.46 511.354 941.927 510.124 941.404 508.889L942.325 508.499C941.805 507.272 941.295 506.04 940.795 504.803L939.868 505.178C939.366 503.936 938.874 502.689 938.391 501.438L939.324 501.078C938.845 499.833 938.375 498.583 937.915 497.328L936.976 497.673C936.515 496.417 936.065 495.157 935.624 493.892L936.569 493.563C936.13 492.303 935.702 491.039 935.283 489.77L934.333 490.083C933.914 488.811 933.504 487.534 933.104 486.252L934.059 485.955C933.663 484.684 933.277 483.408 932.901 482.129L931.942 482.41C931.564 481.126 931.197 479.837 930.84 478.543L931.804 478.277C931.449 476.99 931.104 475.699 930.769 474.404L929.801 474.654C929.467 473.361 929.143 472.063 928.829 470.762L929.802 470.527C929.489 469.231 929.187 467.931 928.896 466.627L927.92 466.845C927.627 465.536 927.345 464.224 927.074 462.907L928.053 462.705C927.784 461.403 927.526 460.097 927.278 458.787L926.295 458.973C926.046 457.658 925.808 456.34 925.58 455.017L926.566 454.848C926.339 453.531 926.122 452.21 925.916 450.887L924.928 451.04C924.723 449.722 924.529 448.4 924.345 447.074L925.335 446.937C925.152 445.617 924.98 444.294 924.818 442.968L923.825 443.089C923.662 441.758 923.51 440.423 923.369 439.085L924.364 438.98C924.224 437.658 924.095 436.333 923.976 435.005L922.98 435.093C922.862 433.762 922.754 432.427 922.656 431.09L923.654 431.017C923.557 429.685 923.47 428.35 923.395 427.012L922.396 427.068C922.321 425.735 922.256 424.398 922.202 423.059L923.202 423.019C923.148 421.69 923.105 420.358 923.073 419.023L922.073 419.047C922.041 417.707 922.019 416.365 922.008 415.02L923.008 415.012C923.003 414.342 923 413.671 923 413C923 412.329 923.003 411.658 923.008 410.988L922.008 410.98C922.019 409.635 922.041 408.292 922.073 406.952L923.073 406.977C923.105 405.642 923.148 404.31 923.202 402.981L922.202 402.94C922.256 401.601 922.321 400.265 922.396 398.931L923.395 398.988C923.47 397.65 923.557 396.315 923.654 394.983L922.656 394.91C922.754 393.573 922.862 392.238 922.98 390.906L923.976 390.995C924.095 389.667 924.224 388.342 924.364 387.02L923.369 386.915C923.51 385.577 923.662 384.242 923.825 382.911L924.818 383.032C924.98 381.706 925.152 380.383 925.335 379.063L924.345 378.926C924.529 377.6 924.723 376.278 924.928 374.96L925.916 375.113C926.122 373.789 926.339 372.469 926.566 371.152L925.58 370.982C925.808 369.66 926.046 368.342 926.295 367.027L927.278 367.213C927.526 365.903 927.784 364.597 928.053 363.295L927.074 363.093C927.345 361.776 927.627 360.464 927.92 359.155L928.896 359.373C929.187 358.069 929.489 356.769 929.802 355.473L928.829 355.238C929.143 353.937 929.467 352.639 929.801 351.346L930.769 351.596C931.104 350.301 931.449 349.01 931.804 347.723L930.84 347.457C931.197 346.163 931.564 344.874 931.942 343.589L932.901 343.871C933.277 342.592 933.663 341.316 934.059 340.045L933.104 339.748C933.504 338.466 933.914 337.189 934.333 335.917L935.283 336.23C935.702 334.961 936.13 333.697 936.569 332.437L935.624 332.108C936.065 330.843 936.515 329.583 936.976 328.327L937.915 328.672C938.375 327.417 938.845 326.167 939.324 324.922L938.391 324.562C938.874 323.311 939.366 322.064 939.868 320.822L940.795 321.197C941.295 319.96 941.805 318.728 942.325 317.501L941.404 317.111C941.927 315.876 942.46 314.646 943.003 313.421L943.917 313.826C944.458 312.605 945.009 311.389 945.569 310.178L944.662 309.758C945.224 308.542 945.796 307.332 946.378 306.127L947.279 306.561C947.859 305.359 948.449 304.161 949.049 302.969L948.155 302.52C948.758 301.322 949.37 300.129 949.991 298.942L950.877 299.406C951.496 298.224 952.124 297.047 952.762 295.877L951.883 295.398C952.525 294.221 953.175 293.049 953.835 291.883L954.705 292.375C955.362 291.213 956.029 290.057 956.705 288.906L955.843 288.399C956.521 287.244 957.209 286.095 957.905 284.951L958.759 285.472C959.454 284.331 960.158 283.197 960.87 282.069L960.025 281.535C960.741 280.402 961.466 279.275 962.2 278.153L963.036 278.701C963.767 277.585 964.507 276.474 965.255 275.37L964.427 274.809C965.179 273.7 965.94 272.596 966.71 271.5L967.528 272.074C968.295 270.981 969.071 269.895 969.855 268.815L969.045 268.227C969.833 267.143 970.628 266.065 971.433 264.994L972.232 265.594C973.034 264.527 973.844 263.466 974.662 262.412L973.872 261.799C974.694 260.74 975.524 259.688 976.362 258.643L977.142 259.269C977.977 258.228 978.821 257.193 979.672 256.166L978.903 255.528C979.758 254.496 980.621 253.472 981.493 252.454L982.252 253.104C983.12 252.09 983.996 251.084 984.881 250.084L984.131 249.421C985.019 248.418 985.915 247.421 986.819 246.432L987.557 247.106C988.457 246.121 989.365 245.142 990.28 244.171L989.553 243.485C990.472 242.511 991.399 241.543 992.334 240.583L993.05 241.281C993.981 240.324 994.92 239.375 995.866 238.434L995.161 237.725C996.111 236.78 997.068 235.843 998.033 234.913L998.727 235.633C999.688 234.707 1000.66 233.788 1001.63 232.878L1000.95 232.147C1001.93 231.232 1002.92 230.326 1003.91 229.427L1004.58 230.168C1005.57 229.274 1006.57 228.387 1007.57 227.507L1006.91 226.755C1007.92 225.873 1008.94 224.998 1009.96 224.131L1010.6 224.894C1011.62 224.031 1012.65 223.175 1013.68 222.328L1013.05 221.555C1014.08 220.705 1015.12 219.863 1016.17 219.03L1016.79 219.813C1017.84 218.983 1018.89 218.161 1019.95 217.347L1019.34 216.554C1020.4 215.737 1021.47 214.928 1022.54 214.128L1023.14 214.93C1024.21 214.134 1025.29 213.345 1026.37 212.566L1025.79 211.754C1026.87 210.972 1027.97 210.198 1029.07 209.432L1029.64 210.253C1030.73 209.49 1031.84 208.736 1032.95 207.991L1032.39 207.161C1033.5 206.414 1034.62 205.675 1035.74 204.945L1036.28 205.783C1037.4 205.056 1038.53 204.338 1039.66 203.628L1039.13 202.781C1040.26 202.069 1041.4 201.365 1042.55 200.67L1043.07 201.526C1044.21 200.835 1045.35 200.153 1046.51 199.48L1046 198.616C1047.16 197.941 1048.32 197.275 1049.49 196.617L1049.98 197.488C1051.14 196.833 1052.31 196.187 1053.49 195.55L1053.01 194.671C1054.19 194.033 1055.37 193.404 1056.56 192.784L1057.02 193.671C1058.2 193.054 1059.39 192.446 1060.58 191.847L1060.13 190.953C1061.33 190.352 1062.53 189.76 1063.74 189.177L1064.18 190.078C1065.38 189.499 1066.59 188.929 1067.8 188.369L1067.38 187.461C1068.59 186.899 1069.81 186.346 1071.04 185.803L1071.44 186.717C1072.66 186.176 1073.89 185.644 1075.12 185.121L1074.73 184.201C1075.96 183.678 1077.2 183.164 1078.44 182.66L1078.81 183.586C1080.05 183.085 1081.29 182.593 1082.53 182.11L1082.17 181.178C1083.42 180.694 1084.68 180.219 1085.93 179.754L1086.28 180.692C1087.53 180.23 1088.79 179.777 1090.05 179.334L1089.72 178.391C1090.98 177.947 1092.24 177.513 1093.52 177.089L1093.83 178.038C1095.1 177.615 1096.37 177.202 1097.64 176.799L1097.34 175.846C1098.62 175.442 1099.9 175.048 1101.18 174.664L1101.47 175.622C1102.75 175.241 1104.03 174.87 1105.31 174.508L1105.04 173.545C1106.33 173.182 1107.62 172.829 1108.92 172.486L1109.18 173.452C1110.47 173.111 1111.76 172.78 1113.06 172.459L1112.82 171.488C1114.11 171.167 1115.42 170.855 1116.72 170.554L1116.95 171.528C1118.25 171.228 1119.55 170.938 1120.86 170.658L1120.65 169.68C1121.96 169.399 1123.27 169.128 1124.59 168.868L1124.78 169.849C1126.09 169.591 1127.4 169.343 1128.71 169.104L1128.53 168.121C1129.85 167.882 1131.17 167.653 1132.49 167.434L1132.66 168.42C1133.97 168.203 1135.3 167.995 1136.62 167.798L1136.47 166.809C1137.79 166.612 1139.12 166.425 1140.44 166.249L1140.57 167.24C1141.9 167.064 1143.22 166.899 1144.55 166.743L1144.43 165.75C1145.76 165.594 1147.1 165.448 1148.44 165.313L1148.54 166.307C1149.86 166.174 1151.19 166.05 1152.51 165.936L1152.43 164.94C1153.76 164.826 1155.1 164.723 1156.44 164.629L1156.5 165.627C1157.84 165.534 1159.17 165.451 1160.51 165.378L1160.46 164.38C1161.79 164.308 1163.13 164.246 1164.47 164.194L1164.5 165.193C1165.83 165.142 1167.17 165.101 1168.5 165.07L1168.48 164.07C1169.82 164.039 1171.16 164.018 1172.51 164.008L1172.51 165.008C1173.18 165.003 1173.85 165 1174.53 165C1175.2 165 1175.87 165.002 1176.53 165.006L1176.54 164.006C1177.88 164.013 1179.23 164.029 1180.57 164.051L1180.55 165.051C1181.89 165.074 1183.23 165.104 1184.57 165.142L1184.6 164.142C1185.94 164.18 1187.28 164.226 1188.62 164.279L1188.58 165.278C1189.92 165.331 1191.26 165.391 1192.6 165.459L1192.65 164.46C1193.99 164.528 1195.33 164.604 1196.67 164.687L1196.61 165.685C1197.94 165.768 1199.28 165.858 1200.61 165.956L1200.69 164.959C1202.03 165.057 1203.37 165.162 1204.71 165.275L1204.62 166.272C1205.96 166.384 1207.29 166.505 1208.62 166.632L1208.72 165.637C1210.05 165.765 1211.39 165.9 1212.72 166.043L1212.62 167.037C1213.95 167.18 1215.28 167.33 1216.61 167.487L1216.73 166.494C1218.06 166.652 1219.4 166.817 1220.73 166.989L1220.6 167.981C1221.93 168.153 1223.25 168.333 1224.58 168.52L1224.72 167.529C1226.05 167.717 1227.38 167.912 1228.71 168.114L1228.55 169.103C1229.88 169.305 1231.2 169.514 1232.52 169.731L1232.69 168.744C1234.01 168.962 1235.34 169.186 1236.66 169.418L1236.48 170.403C1237.8 170.635 1239.12 170.874 1240.44 171.12L1240.62 170.137C1241.94 170.384 1243.26 170.639 1244.58 170.901L1244.38 171.882C1245.7 172.143 1247.01 172.412 1248.32 172.688L1248.52 171.709C1249.84 171.986 1251.15 172.27 1252.46 172.561L1252.24 173.537C1253.55 173.829 1254.86 174.128 1256.16 174.434L1256.39 173.46C1257.7 173.767 1259 174.082 1260.31 174.403L1260.07 175.374C1261.37 175.695 1262.66 176.023 1263.96 176.358L1264.21 175.39C1265.51 175.727 1266.81 176.072 1268.11 176.424L1267.84 177.389C1269.14 177.74 1270.43 178.099 1271.71 178.465L1271.99 177.503C1273.28 177.87 1274.57 178.244 1275.85 178.625L1275.57 179.584C1276.85 179.965 1278.14 180.354 1279.41 180.75L1279.71 179.795C1281 180.193 1282.28 180.598 1283.55 181.011L1283.25 181.962C1284.52 182.374 1285.79 182.792 1287.06 183.218L1287.38 182.27C1288.65 182.698 1289.92 183.134 1291.19 183.577L1290.86 184.521C1292.12 184.964 1293.39 185.414 1294.64 185.871L1294.99 184.931C1296.25 185.39 1297.51 185.856 1298.76 186.329L1298.41 187.264C1299.66 187.737 1300.91 188.218 1302.15 188.705L1302.52 187.774C1303.77 188.265 1305.02 188.763 1306.27 189.268L1305.89 190.195C1307.13 190.699 1308.37 191.21 1309.6 191.728L1309.99 190.807C1311.22 191.327 1312.46 191.856 1313.69 192.391L1313.29 193.308C1314.52 193.844 1315.74 194.388 1316.96 194.939L1317.38 194.028C1318.6 194.581 1319.82 195.141 1321.03 195.709L1320.61 196.615C1321.82 197.181 1323.03 197.754 1324.23 198.335L1324.67 197.435C1325.88 198.021 1327.09 198.615 1328.29 199.216L1327.84 200.11C1329.04 200.709 1330.23 201.316 1331.42 201.93L1331.88 201.041C1333.07 201.657 1334.26 202.28 1335.44 202.911L1334.97 203.793C1336.15 204.426 1337.33 205.066 1338.5 205.714L1338.99 204.839C1340.16 205.489 1341.33 206.146 1342.5 206.811L1342 207.679C1343.16 208.342 1344.32 209.012 1345.47 209.689L1345.98 208.827C1347.14 209.512 1348.29 210.204 1349.44 210.903L1348.92 211.757C1350.06 212.454 1351.2 213.159 1352.33 213.871L1352.87 213.024C1354 213.739 1355.13 214.46 1356.25 215.189L1355.71 216.028C1356.83 216.76 1357.95 217.499 1359.06 218.245L1359.62 217.415C1360.74 218.165 1361.85 218.923 1362.95 219.687L1362.38 220.509C1363.48 221.271 1364.57 222.04 1365.65 222.816L1366.23 222.004C1367.33 222.789 1368.41 223.581 1369.49 224.381L1368.9 225.185C1369.98 225.982 1371.04 226.787 1372.1 227.6L1372.71 226.806C1373.78 227.621 1374.83 228.444 1375.88 229.275L1375.26 230.059C1376.32 230.892 1377.36 231.732 1378.4 232.579L1379.03 231.806C1380.07 232.657 1381.1 233.517 1382.13 234.383L1381.48 235.147C1382.5 236.01 1383.51 236.88 1384.51 237.758L1385.17 237.006C1386.18 237.894 1387.19 238.789 1388.19 239.691L1387.51 240.432C1388.51 241.331 1389.49 242.238 1390.46 243.152L1391.15 242.423C1392.12 243.341 1393.09 244.266 1394.05 245.199L1393.36 245.916C1394.32 246.851 1395.27 247.793 1396.21 248.743L1396.92 248.039C1397.87 248.993 1398.81 249.954 1399.73 250.923L1399.01 251.615C1399.94 252.58 1400.85 253.552 1401.75 254.532L1402.49 253.854C1403.4 254.843 1404.3 255.84 1405.2 256.845L1404.45 257.509C1405.34 258.509 1406.22 259.516 1407.08 260.53L1407.84 259.88C1408.72 260.9 1409.58 261.928 1410.43 262.963L1409.66 263.598C1410.51 264.632 1411.35 265.673 1412.18 266.722L1412.96 266.101C1413.8 267.155 1414.62 268.216 1415.43 269.285L1414.63 269.89C1415.44 270.954 1416.24 272.025 1417.02 273.104L1417.83 272.515C1418.62 273.601 1419.4 274.695 1420.17 275.796L1419.35 276.369C1420.12 277.464 1420.87 278.568 1421.61 279.678L1422.45 279.122C1423.19 280.239 1423.93 281.362 1424.65 282.493L1423.81 283.032C1424.52 284.158 1425.23 285.291 1425.93 286.431L1426.78 285.911C1427.48 287.057 1428.17 288.211 1428.84 289.372L1427.98 289.874C1428.65 291.029 1429.31 292.19 1429.96 293.359L1430.83 292.874C1431.48 294.048 1432.12 295.23 1432.74 296.418L1431.86 296.884C1432.48 298.066 1433.09 299.255 1433.69 300.452L1434.58 300.005C1435.18 301.206 1435.77 302.413 1436.34 303.628L1435.44 304.055C1436 305.261 1436.56 306.474 1437.11 307.694L1438.02 307.287C1438.57 308.513 1439.1 309.747 1439.62 310.988L1438.7 311.375C1439.21 312.604 1439.72 313.84 1440.21 315.082L1441.14 314.716C1441.63 315.962 1442.11 317.216 1442.57 318.476L1441.63 318.823C1442.1 320.076 1442.55 321.337 1442.98 322.604L1443.93 322.278C1444.36 323.544 1444.78 324.816 1445.19 326.095L1444.24 326.4C1444.65 327.668 1445.04 328.944 1445.42 330.226L1446.38 329.942C1446.76 331.231 1447.12 332.527 1447.48 333.829L1446.51 334.091C1446.86 335.374 1447.19 336.663 1447.52 337.959L1448.49 337.718C1448.81 339.017 1449.12 340.322 1449.41 341.634L1448.44 341.854C1448.73 343.158 1449.01 344.469 1449.28 345.787L1450.26 345.589C1450.52 346.897 1450.77 348.212 1451.01 349.532L1450.02 349.709C1450.26 351.018 1450.48 352.334 1450.69 353.655L1451.68 353.5C1451.89 354.828 1452.08 356.163 1452.26 357.504L1451.27 357.638C1451.45 358.952 1451.61 360.273 1451.76 361.6L1452.76 361.487C1452.91 362.814 1453.05 364.147 1453.17 365.486L1452.17 365.578C1452.3 366.91 1452.41 368.248 1452.5 369.591L1453.5 369.52C1453.6 370.851 1453.68 372.188 1453.75 373.53L1452.75 373.58C1452.81 374.906 1452.87 376.236 1452.91 377.573L1453.91 377.542Z" stroke="black" stroke-opacity="0.26" stroke-width="2" stroke-dasharray="4 4"/>
<path opacity="0.1" d="M0 0H893C1113.91 0 1293 179.086 1293 400V578H0V0Z" fill="#068F7D"/>
</svg>
