<svg width="52" height="48" viewBox="0 0 52 48" fill="none" xmlns="http://www.w3.org/2000/svg">
<path d="M0 10C0 4.47715 4.47715 0 10 0H42C47.5228 0 52 4.47715 52 10V38C52 43.5228 47.5228 48 42 48H10C4.47715 48 0 43.5228 0 38V10Z" fill="#D4F0FF"/>
<path d="M26.3559 28.3899C24.7277 28.3899 23.0999 27.7699 21.8604 26.5304C19.3818 24.0519 19.3818 20.0183 21.8604 17.5397C24.3394 15.0612 28.3729 15.0608 30.8515 17.5397C33.3305 20.0183 33.3305 24.0519 30.8515 26.5304C29.612 27.7699 27.9838 28.3899 26.3559 28.3899ZM26.3555 16.468C24.9294 16.468 23.5028 17.0108 22.4169 18.0967C20.2452 20.2684 20.2452 23.8018 22.4169 25.9735C24.5887 28.1453 28.1224 28.1453 30.2942 25.9735C32.4659 23.8018 32.4659 20.2684 30.2942 18.0967C29.2083 17.0112 27.7821 16.468 26.3555 16.468Z" fill="#331B3B"/>
<path d="M39.2723 32.8646L34.0374 27.6294C33.5593 27.1513 32.8338 27.0764 32.271 27.3935L31.1158 26.2383C33.3198 23.7444 33.2363 19.9247 30.8515 17.5402C28.3733 15.0613 24.3394 15.0617 21.8604 17.5402C19.3818 20.0188 19.3818 24.0524 21.8604 26.5309C23.0999 27.77 24.7277 28.3904 26.3559 28.3904C27.8605 28.3904 29.3611 27.8539 30.5589 26.7956L31.7141 27.9508C31.397 28.5136 31.4714 29.2387 31.95 29.7173L37.1852 34.9521C37.4629 35.2302 37.8335 35.3834 38.2285 35.3834C38.6236 35.3834 38.9942 35.2302 39.2719 34.9521C39.5499 34.674 39.7032 34.3034 39.7032 33.9084C39.7032 33.5133 39.5503 33.1423 39.2723 32.8646ZM22.4177 25.974C20.246 23.8023 20.246 20.2689 22.4177 18.0972C23.5036 17.0113 24.9298 16.4685 26.3563 16.4685C27.7829 16.4685 29.2091 17.0113 30.295 18.0972C32.4667 20.2689 32.4667 23.8023 30.295 25.974C28.1232 28.1458 24.5891 28.1454 22.4177 25.974ZM38.7154 34.3952C38.457 34.6536 38.0009 34.6536 37.7421 34.3952L32.5069 29.16C32.2387 28.8913 32.2387 28.455 32.5069 28.1863C32.6412 28.0524 32.8173 27.9851 32.9937 27.9851C33.1698 27.9851 33.3462 28.052 33.4801 28.1863L38.715 33.4216C38.8441 33.5507 38.9154 33.7236 38.9154 33.908C38.9154 34.0923 38.8445 34.2656 38.7154 34.3952Z" fill="#331B3B"/>
<path d="M22.2345 24.2986C22.1151 24.2986 21.9974 24.2446 21.9202 24.1426C21.789 23.9693 21.8229 23.722 21.9966 23.5908L27.6804 19.289C27.7694 19.2221 27.8821 19.1953 27.9916 19.2162C28.1007 19.237 28.1964 19.3028 28.2543 19.3977L30.0144 22.2828L30.6068 21.8574C30.7825 21.7298 31.029 21.7708 31.1566 21.9476C31.2835 22.1244 31.2433 22.3702 31.0664 22.4974L30.1294 23.1705C30.0404 23.2344 29.9282 23.2592 29.8218 23.2367C29.7143 23.2151 29.6206 23.1493 29.5639 23.0559L27.8092 20.1799L22.4724 24.2186C22.4007 24.2726 22.3172 24.2986 22.2345 24.2986Z" fill="#331B3B"/>
<path d="M36.5796 28.8629C36.7974 28.8629 36.9735 28.6869 36.9735 28.4691V9.24032C36.9735 8.15719 36.0924 7.27612 35.0093 7.27612H18.2607C17.1776 7.27612 16.2969 8.15719 16.2969 9.24032V40.7599C16.2969 41.8427 17.1779 42.7237 18.2607 42.7237H35.0089C36.092 42.7237 36.9731 41.8427 36.9731 40.7599V35.9749C36.9731 35.7571 36.797 35.581 36.5792 35.581C36.3614 35.581 36.1854 35.7571 36.1854 35.9749V36.993H17.0846V25.3107L18.1047 26.9803C18.1626 27.0752 18.2583 27.141 18.3674 27.1618C18.3918 27.1666 18.4162 27.1689 18.4407 27.1689C18.5257 27.1689 18.6092 27.1414 18.6786 27.0894L19.9271 26.1449C20.1004 26.0133 20.1347 25.7664 20.0035 25.5931C19.872 25.4198 19.625 25.3855 19.4517 25.5167L18.5502 26.1989L17.0846 23.8002V11.7945H36.1857V17.8498L33.348 19.8888C33.1711 20.0156 33.1306 20.2618 33.2578 20.4386C33.3346 20.5457 33.4555 20.6029 33.578 20.6029C33.6575 20.6029 33.7379 20.5788 33.8072 20.5288L36.1857 18.8198V28.4695C36.1857 28.6865 36.3618 28.8629 36.5796 28.8629ZM36.1857 37.7808V40.7596C36.1857 41.4079 35.658 41.9356 35.0093 41.9356H18.2607C17.6124 41.9356 17.0846 41.4079 17.0846 40.7596V37.7808H36.1857ZM17.0846 11.0068V9.24032C17.0846 8.59162 17.6124 8.06385 18.2607 8.06385H35.0089C35.6576 8.06385 36.1854 8.59162 36.1854 9.24032V11.0068H17.0846Z" fill="#331B3B"/>
<path d="M26.6349 41.2778C25.8638 41.2778 25.2363 40.6504 25.2363 39.8792C25.2363 39.108 25.8638 38.4802 26.6349 38.4802C27.4061 38.4802 28.0335 39.108 28.0335 39.8792C28.0335 40.6504 27.4061 41.2778 26.6349 41.2778ZM26.6349 39.2683C26.2982 39.2683 26.0241 39.5425 26.0241 39.8796C26.0241 40.2168 26.2982 40.4905 26.6349 40.4905C26.9717 40.4905 27.2458 40.2168 27.2458 39.8796C27.2458 39.5425 26.9721 39.2683 26.6349 39.2683Z" fill="#331B3B"/>
<path d="M29.0322 9.90247H24.2381C24.0207 9.90247 23.8442 9.72602 23.8442 9.50861C23.8442 9.2912 24.0207 9.11475 24.2381 9.11475H29.0322C29.25 9.11475 29.4261 9.2912 29.4261 9.50861C29.4261 9.72602 29.25 9.90247 29.0322 9.90247Z" fill="#331B3B"/>
</svg>
