<svg width="52" height="48" viewBox="0 0 52 48" fill="none" xmlns="http://www.w3.org/2000/svg">
<rect width="52" height="48" rx="10" fill="#FFD4D4"/>
<g clip-path="url(#clip0_419_890)">
<path d="M31.443 23.5486C30.6537 23.5486 29.9117 23.2414 29.354 22.6833C28.7959 22.1252 28.4883 21.3836 28.4883 20.5943C28.4883 19.8053 28.7955 19.0633 29.354 18.5052C29.9117 17.9471 30.6537 17.6399 31.443 17.6399C32.2319 17.6399 32.974 17.9471 33.5321 18.5052C34.6837 19.6573 34.6837 21.5316 33.5321 22.6833C32.9744 23.2414 32.2319 23.5486 31.443 23.5486ZM31.443 18.4276C30.8641 18.4276 30.3201 18.6529 29.9109 19.0621C29.5017 19.4714 29.276 20.0157 29.276 20.5943C29.276 21.1728 29.5013 21.7172 29.9109 22.1264C30.3201 22.5356 30.8641 22.7609 31.443 22.7609C32.0216 22.7609 32.5659 22.5356 32.9752 22.1264C33.82 21.2815 33.82 19.907 32.9752 19.0621C32.5659 18.6529 32.0216 18.4276 31.443 18.4276ZM29.6325 18.7837H29.6364H29.6325Z" fill="#331B3B"/>
<path d="M43.7215 10.6694C43.7219 10.4922 43.7207 10.3141 43.7163 10.1349C43.7144 10.0361 43.7104 9.93681 43.7069 9.83795C43.7026 9.71428 43.6986 9.59139 43.6923 9.46693C43.6801 9.22943 43.6647 8.99154 43.6447 8.75207C43.6289 8.56026 43.4769 8.40823 43.2851 8.39208C43.0444 8.372 42.8053 8.35664 42.5667 8.34443C42.4489 8.33812 42.3319 8.33497 42.2145 8.33064C42.1086 8.3267 42.0022 8.32276 41.8967 8.3204C41.7246 8.31686 41.5536 8.31567 41.3831 8.31567C41.3532 8.31567 41.3236 8.31567 41.2937 8.31607C37.8068 8.33419 34.6083 9.20777 31.3715 11.0176C31.3676 11.0199 31.3656 11.0243 31.3617 11.0266C28.7507 12.4804 26.1422 14.5363 23.4391 17.2398C23.0905 17.5884 22.7479 17.9413 22.4119 18.2969C22.3989 18.2965 22.3871 18.291 22.3737 18.2922L16.9593 18.7038C16.8837 18.7097 16.8108 18.7369 16.7505 18.783L8.42902 25.1143C8.29944 25.2128 8.2439 25.3806 8.2888 25.5365C8.3337 25.6929 8.46998 25.8055 8.63186 25.8201L16.5879 26.5381L19.7856 29.7355C18.7431 29.7292 17.5706 30.2172 16.6332 31.1542C16.2086 31.5788 15.8679 32.0546 15.6198 32.5713C15.2724 33.3074 14.4996 35.2263 13.6812 37.2583L13.2873 38.2362C13.2282 38.3827 13.2625 38.5505 13.374 38.662C13.4492 38.7372 13.55 38.7774 13.6524 38.7774C13.702 38.7774 13.7521 38.7683 13.7997 38.749L14.8116 38.3414C16.8281 37.5292 18.7325 36.7624 19.4674 36.4158C19.981 36.1684 20.4572 35.8281 20.8818 35.4032C21.6246 34.6603 22.1157 33.7482 22.2646 32.8344C22.2969 32.6367 22.3083 32.4449 22.3075 32.2578L25.425 35.374L26.1434 43.3308C26.1579 43.4927 26.2706 43.629 26.427 43.6739C26.4628 43.6841 26.4998 43.6893 26.5357 43.6893C26.6566 43.6893 26.7736 43.6333 26.8492 43.5337L33.1809 35.2125C33.2266 35.1523 33.2546 35.0798 33.2601 35.0042L33.6638 29.6957C34.0454 29.3369 34.4239 28.9714 34.7977 28.5976C37.5016 25.8938 39.5575 23.2852 41.0117 20.6739C41.0137 20.6704 41.0176 20.6688 41.0196 20.6652C42.8313 17.4253 43.7049 14.2244 43.7211 10.7316C43.7211 10.7111 43.7211 10.6903 43.7215 10.6694ZM42.3177 15.4521C42.3055 15.4981 42.2925 15.5438 42.2799 15.5899C41.914 16.9082 41.3662 18.3143 40.571 19.8113L32.2258 11.4662C33.7205 10.6722 35.125 10.1251 36.4413 9.75918C36.4909 9.74579 36.5406 9.73161 36.5902 9.71822C36.6875 9.69183 36.784 9.6678 36.8805 9.64378C38.808 9.16799 40.7848 9.00808 42.8853 9.15224C43.0294 11.2503 42.8699 13.226 42.3949 15.1516C42.3697 15.2512 42.3449 15.3512 42.3177 15.4521ZM17.135 19.4797L21.6407 19.1374C20.8286 20.0374 20.0621 20.9528 19.3457 21.8764C19.3445 21.8775 19.3429 21.8783 19.3418 21.8795C19.311 21.9189 19.2831 21.9583 19.2528 21.9977C19.0219 22.297 18.7951 22.5967 18.5757 22.8973C18.5316 22.9579 18.4898 23.0182 18.4461 23.0784C18.2389 23.3652 18.0341 23.6519 17.838 23.9386C17.7561 24.0584 17.6801 24.1769 17.6001 24.2962C17.4477 24.5239 17.2937 24.7519 17.1487 24.9796C16.9825 25.2395 16.827 25.4975 16.6714 25.7551L9.7138 25.1265L17.135 19.4797ZM17.9258 25.2285C18.0235 25.0777 18.1255 24.9256 18.2271 24.774C18.3307 24.6184 18.4355 24.4625 18.5426 24.3069C18.6753 24.1143 18.8108 23.9209 18.9491 23.7275C19.0231 23.6235 19.0988 23.5199 19.174 23.4164C19.337 23.1923 19.5017 22.9681 19.6722 22.7436C19.6789 22.735 19.686 22.7259 19.6927 22.7173L29.3199 32.3444C29.3088 32.3527 29.2978 32.3614 29.2868 32.37C29.0666 32.537 28.8468 32.6981 28.6271 32.8584C28.5195 32.9368 28.412 33.0148 28.3045 33.0916C28.1139 33.2279 27.9236 33.361 27.7342 33.4918C27.5735 33.6024 27.4128 33.7104 27.2521 33.8171C27.1056 33.9152 26.9587 34.014 26.8125 34.1085C26.4967 34.3126 26.1808 34.5119 25.8665 34.7013L17.3354 26.171C17.5241 25.8575 17.7226 25.5432 17.9258 25.2285ZM21.4875 32.708C21.365 33.4599 20.9523 34.2192 20.3252 34.8462C19.9633 35.2078 19.56 35.4973 19.1287 35.7045C18.4174 36.0404 16.4347 36.8384 14.5173 37.6108L14.3637 37.6726L14.413 37.5501C15.1905 35.6194 15.9943 33.6229 16.3307 32.9104C16.539 32.476 16.8285 32.0731 17.1901 31.7115C17.9723 30.9293 18.9349 30.5086 19.7593 30.5086C20.263 30.5086 20.7152 30.6654 21.0429 30.9935C21.4446 31.3944 21.6025 32.003 21.4875 32.708ZM32.4834 34.8285L26.8366 42.2489L26.2186 35.4044C26.4971 35.2374 26.7763 35.068 27.0575 34.888C27.2793 34.7466 27.501 34.5965 27.7228 34.4484C27.8484 34.3646 27.9733 34.2846 28.0993 34.198C28.3785 34.0069 28.6574 33.8076 28.9363 33.6064C29.0056 33.5563 29.0745 33.5087 29.1438 33.4583C29.4337 33.2468 29.7224 33.0278 30.0111 32.8056C30.0599 32.7682 30.1088 32.7332 30.1576 32.6954C30.1592 32.6942 30.16 32.6918 30.1616 32.6906C31.0552 31.9974 31.9422 31.2582 32.8142 30.4748L32.4834 34.8285ZM34.2408 28.0407C32.8568 29.4247 31.4121 30.7064 29.9489 31.8592L20.1775 22.0883C21.3304 20.6251 22.612 19.1804 23.9964 17.7963C26.7149 15.0779 29.2147 13.1791 31.5086 11.8632L40.1739 20.5286C38.858 22.8224 36.9592 25.3223 34.2408 28.0407Z" fill="#331B3B"/>
</g>
<defs>
<clipPath id="clip0_419_890">
<rect width="36" height="36" fill="white" transform="translate(8 8)"/>
</clipPath>
</defs>
</svg>
